{"glyphs":{"0":{"ha":617,"x_min":78,"x_max":658,"o":"m 242 -22 q 115 34 151 -22 q 78 186 78 90 q 101 331 78 253 q 164 487 124 410 q 256 627 204 564 q 367 728 308 690 q 486 767 426 767 q 618 706 578 767 q 658 547 658 646 q 633 386 658 467 q 563 232 607 306 q 465 101 519 158 q 353 11 411 44 q 242 -22 294 -22 m 231 13 q 337 55 285 13 q 435 166 389 97 q 516 316 481 235 q 572 476 551 397 q 592 615 592 554 q 576 692 592 664 q 524 719 560 719 q 410 680 465 719 q 308 576 356 640 q 224 437 260 513 q 167 286 188 361 q 147 153 147 211 q 165 52 147 92 q 231 13 183 13 z "},"1":{"ha":325,"x_min":117,"x_max":532,"o":"m 144 -35 q 123 -15 129 -35 q 117 32 117 6 q 122 101 117 65 q 132 156 128 138 q 178 287 146 213 q 250 437 210 361 q 329 578 290 513 q 396 683 368 643 q 367 669 390 682 q 315 642 344 657 q 257 615 285 628 q 215 599 229 603 q 207 597 211 597 q 197 603 197 597 q 193 611 196 610 q 217 630 193 613 q 275 672 240 647 q 347 722 310 697 q 411 763 383 746 q 447 779 439 779 q 475 773 454 779 q 514 757 496 767 q 529 738 532 747 q 529 733 529 736 q 526 729 529 731 q 474 652 504 699 q 411 554 443 606 q 350 453 379 503 q 301 365 321 404 q 190 119 221 213 q 160 -24 160 25 q 144 -35 160 -35 z "},"2":{"ha":510,"x_min":-61,"x_max":614,"o":"m -28 -31 q -51 -6 -40 -28 q -60 24 -61 15 q 17 63 -21 39 q 92 115 54 86 q 190 196 133 147 q 304 303 246 244 q 413 427 363 363 q 493 556 463 492 q 524 676 524 619 q 508 719 524 708 q 474 731 493 731 q 392 706 431 731 q 322 648 353 682 q 272 581 290 614 q 251 528 254 547 q 224 558 236 531 q 215 613 213 586 q 290 694 240 658 q 397 749 339 729 q 504 769 454 769 q 583 746 553 769 q 614 663 614 722 q 580 538 614 603 q 490 408 546 472 q 369 283 435 343 q 240 174 304 224 q 125 90 175 125 l 58 43 q 126 62 83 51 q 217 81 168 72 q 308 89 265 89 q 372 81 346 89 q 413 57 396 72 q 426 11 431 42 q 417 -9 424 1 q 403 -19 410 -19 q 394 -8 399 -15 q 375 4 390 -1 q 341 11 361 10 q 297 13 321 13 q 203 8 254 13 q 104 -5 151 3 q 23 -19 57 -12 q -19 -29 -11 -26 q -25 -30 -24 -29 q -28 -31 -26 -31 z "},"3":{"ha":565,"x_min":18,"x_max":665,"o":"m 190 -28 q 66 9 114 -28 q 18 121 18 46 q 54 222 18 176 q 158 271 90 267 q 113 210 136 249 q 89 124 89 172 q 117 34 89 61 q 197 7 144 7 q 280 31 236 7 q 363 94 324 56 q 426 180 401 133 q 450 271 450 226 q 434 333 450 308 q 374 357 418 357 q 325 351 357 357 q 256 325 293 344 q 227 334 239 317 q 215 368 215 351 q 224 388 215 383 q 302 410 256 396 q 397 447 349 425 q 489 500 446 469 q 558 569 532 531 q 585 656 585 608 q 569 708 585 686 q 506 731 553 731 q 425 706 464 731 q 355 648 386 682 q 306 581 324 614 q 285 528 288 547 q 257 558 268 531 q 249 613 246 586 q 322 694 274 658 q 423 749 369 729 q 515 769 476 769 q 590 760 556 769 q 644 727 624 751 q 665 657 665 703 q 631 551 665 599 q 545 471 596 504 q 446 420 494 438 q 369 403 397 403 q 474 380 438 403 q 524 325 510 357 q 538 263 538 293 q 489 113 538 179 q 361 10 440 47 q 190 -28 282 -28 z "},"4":{"ha":594,"x_min":68,"x_max":711,"o":"m 354 -51 q 335 -33 340 -51 q 329 11 329 -15 q 334 78 329 43 q 343 129 339 113 q 367 203 351 165 q 400 281 382 242 q 292 268 349 281 q 186 242 235 256 q 113 219 138 228 q 95 235 106 218 q 76 272 85 251 q 69 300 68 292 q 113 367 76 326 q 204 458 149 408 q 324 558 260 507 q 450 652 388 608 q 563 727 513 696 q 639 768 613 758 q 650 771 644 771 q 677 753 663 771 q 701 716 692 736 q 707 689 711 696 q 681 635 700 671 q 638 556 663 600 q 589 468 614 513 q 543 388 564 424 q 511 331 522 351 q 578 303 553 324 q 604 264 604 282 q 558 273 593 269 q 483 278 524 276 q 394 77 419 156 q 369 -42 369 -1 q 354 -51 369 -51 m 122 297 q 254 328 188 315 q 389 342 321 342 l 429 342 q 444 371 429 342 q 483 446 460 400 q 534 542 507 492 q 585 638 561 593 q 624 710 610 683 q 562 663 597 689 q 490 610 526 636 q 426 562 454 583 q 388 531 399 540 q 301 461 340 493 q 219 392 261 429 q 122 297 178 354 z "},"5":{"ha":574,"x_min":17,"x_max":733,"o":"m 189 -33 q 66 6 115 -33 q 17 121 17 44 q 31 185 17 153 q 69 239 44 217 q 122 261 93 261 q 147 257 135 261 q 113 224 129 250 q 88 169 97 199 q 79 118 79 139 q 109 35 79 65 q 189 4 139 4 q 292 36 242 4 q 381 117 342 68 q 444 221 421 167 q 467 319 467 275 q 443 405 467 379 q 378 431 419 431 q 330 415 360 431 q 269 372 300 400 q 214 304 238 343 q 183 324 194 304 q 172 371 172 344 q 181 414 172 396 q 194 439 181 414 q 230 503 208 464 q 274 584 251 542 q 315 661 297 626 q 272 669 294 661 q 249 713 249 678 q 343 732 289 725 q 453 742 397 739 q 554 745 510 744 q 617 746 599 746 q 695 738 671 746 q 726 716 719 731 q 733 678 733 701 q 680 683 717 681 q 599 686 643 686 q 559 685 579 686 q 519 683 539 685 q 447 670 483 681 q 392 642 411 660 l 269 446 q 325 461 286 454 q 392 468 364 468 q 514 435 469 468 q 558 317 558 403 q 526 191 558 253 q 441 78 494 129 q 322 -3 388 28 q 189 -33 257 -33 z "},"6":{"ha":550,"x_min":83,"x_max":629,"o":"m 254 -31 q 156 -1 193 -31 q 101 75 118 28 q 83 175 83 122 q 108 324 83 244 q 175 482 132 404 q 274 624 218 560 q 395 726 331 688 q 528 764 460 764 q 602 731 575 764 q 629 649 629 697 q 616 588 629 621 q 587 524 603 556 q 563 469 571 493 q 533 486 544 469 q 522 521 522 503 q 538 583 522 558 q 569 633 553 608 q 585 689 585 657 q 577 709 585 693 q 540 725 569 725 q 441 689 492 725 q 345 599 390 653 q 265 488 300 544 q 213 389 231 431 q 288 443 240 418 q 374 468 335 468 q 497 417 458 468 q 535 294 535 365 q 515 183 535 240 q 458 78 494 126 q 369 -1 421 29 q 254 -31 318 -31 m 244 -1 q 330 29 292 -1 q 395 108 368 60 q 437 212 422 157 q 451 314 451 267 q 435 396 451 363 q 382 429 418 429 q 297 404 335 429 q 231 342 260 379 q 176 235 196 294 q 157 124 157 176 q 178 35 157 71 q 244 -1 199 -1 z "},"7":{"ha":465,"x_min":85,"x_max":656,"o":"m 124 -46 q 94 -22 103 -37 q 85 11 85 -7 q 98 71 85 39 q 128 133 111 103 q 157 183 144 163 q 230 291 186 232 q 325 411 274 350 q 427 528 376 472 q 520 628 478 585 q 589 694 563 671 q 557 691 581 694 q 502 683 533 688 q 442 672 471 678 q 393 663 413 667 q 333 651 361 656 q 282 646 306 646 q 224 660 246 646 q 203 710 203 675 q 269 717 226 710 q 365 731 313 724 q 468 745 418 739 q 553 751 518 751 q 628 728 600 751 q 651 658 656 704 l 651 650 q 588 588 631 631 q 496 490 546 544 q 400 378 446 435 q 319 273 365 333 q 228 151 272 213 q 156 36 185 89 q 124 -46 126 -17 z "},"8":{"ha":518,"x_min":25,"x_max":704,"o":"m 176 -36 q 69 -5 113 -36 q 25 97 25 26 q 51 203 25 151 q 116 299 76 254 q 196 381 156 344 q 265 442 236 418 q 241 499 249 469 q 233 557 233 528 q 263 664 233 614 q 345 745 292 714 q 474 776 399 776 q 530 765 500 776 q 583 728 560 753 q 610 665 606 704 q 668 665 640 665 q 704 649 696 665 q 526 542 611 600 q 357 414 440 483 q 397 358 374 394 q 438 281 421 322 q 456 200 456 239 q 415 74 456 126 q 310 -8 374 21 q 176 -36 246 -36 m 328 483 l 454 574 q 502 604 478 589 q 540 629 526 619 q 538 676 540 651 q 522 717 536 700 q 474 735 508 735 q 388 710 425 735 q 331 645 351 685 q 311 560 311 606 q 328 483 311 521 m 179 3 q 270 27 225 3 q 345 92 315 51 q 375 183 375 133 q 359 258 375 221 q 323 328 343 296 q 292 379 303 360 q 208 303 254 349 q 130 203 163 258 q 97 83 97 147 q 121 21 97 39 q 179 3 144 3 z "},"9":{"ha":579,"x_min":36,"x_max":617,"o":"m 147 -21 q 70 6 104 -21 q 36 93 36 33 q 61 160 36 129 q 125 192 86 192 q 153 188 139 192 q 115 148 131 181 q 100 82 100 115 q 112 36 100 56 q 151 17 124 17 q 240 44 196 17 q 322 112 283 71 q 388 193 360 153 q 449 297 419 243 q 499 403 479 351 q 453 350 482 381 q 385 296 425 319 q 292 272 346 272 q 189 321 221 272 q 157 436 157 369 q 180 552 157 493 q 244 660 203 611 q 341 740 286 710 q 460 769 396 769 q 584 715 551 769 q 617 567 617 660 q 598 443 617 511 q 544 305 579 375 q 461 171 510 235 q 319 34 400 89 q 147 -21 239 -21 m 300 311 q 386 336 346 311 q 457 399 426 361 q 523 517 499 451 q 547 638 547 582 q 528 713 547 683 q 468 743 510 743 q 376 709 418 743 q 303 622 335 675 q 255 512 272 569 q 238 407 238 454 q 253 338 238 365 q 300 311 268 311 z "},"\r":{"ha":236,"x_min":0,"x_max":0,"o":""}," ":{"ha":236,"x_min":0,"x_max":0,"o":""}," ":{"ha":236,"x_min":0,"x_max":0,"o":""},"A":{"ha":625,"x_min":-1,"x_max":724,"o":"m 61 -12 q 19 15 29 -6 q 8 58 8 35 q 28 122 8 89 q 63 171 47 154 q 15 190 32 172 q -1 219 -1 207 q 7 229 -1 229 q 19 225 14 229 q 88 213 47 213 q 142 287 104 238 q 231 398 181 336 q 338 522 282 460 q 449 638 394 585 q 551 724 504 692 q 626 757 597 757 q 676 740 654 757 q 710 707 697 724 q 724 690 724 690 q 664 580 697 653 q 601 418 631 507 q 550 244 571 329 q 588 226 571 244 q 606 189 606 208 q 585 199 606 189 q 540 206 564 208 q 530 159 536 190 q 518 92 524 128 q 513 28 513 57 q 513 10 513 18 q 515 -4 514 3 q 472 19 485 -11 q 458 93 458 50 q 476 207 458 156 q 262 185 342 201 q 150 156 182 168 q 97 69 122 117 q 61 -12 72 21 m 189 217 q 294 233 235 225 q 406 246 353 240 q 488 250 458 251 q 507 317 493 269 q 542 429 521 365 q 594 564 564 493 q 664 700 625 635 q 650 707 660 707 q 592 678 629 707 q 509 604 556 650 q 413 503 463 558 q 319 392 364 447 q 240 290 274 336 q 189 217 206 244 z "},"Æ":{"ha":872,"x_min":13,"x_max":1072,"o":"m 75 -12 q 33 15 43 -6 q 22 58 22 35 q 42 122 22 89 q 76 171 61 154 q 29 190 46 172 q 13 219 13 207 q 21 229 13 229 q 33 225 28 229 q 101 213 61 213 q 163 286 118 238 q 267 396 207 335 q 395 519 328 457 q 527 634 463 582 q 644 718 592 686 q 726 750 697 750 q 747 745 738 749 q 767 736 757 742 q 856 744 811 742 q 939 747 901 746 q 996 747 976 747 q 1060 731 1049 747 q 1072 688 1072 715 q 1037 692 1061 690 q 983 693 1013 693 q 937 692 961 693 q 893 689 913 692 q 840 679 864 686 q 800 658 815 672 q 771 620 790 649 q 728 554 751 592 q 683 478 706 517 q 644 407 661 439 q 622 358 628 375 q 683 370 644 363 q 768 378 721 378 q 833 339 833 378 q 829 321 833 332 l 603 321 q 592 294 601 318 q 569 233 582 269 q 547 158 557 196 q 538 93 538 121 q 563 67 538 67 q 658 78 608 67 q 760 90 707 90 q 825 83 796 90 q 854 43 854 76 q 835 44 849 44 q 769 38 808 44 q 689 24 731 32 q 613 10 647 17 q 563 4 579 4 q 498 19 522 4 q 463 53 474 33 q 453 90 453 74 q 458 139 453 117 q 475 192 464 161 q 271 176 346 186 q 164 156 196 167 q 111 69 136 117 q 75 -12 86 21 m 203 217 q 303 232 247 225 q 410 244 358 239 q 493 250 463 250 q 608 474 544 361 q 753 685 671 586 q 733 692 747 692 q 663 665 707 692 q 564 593 618 638 q 453 495 510 549 q 345 388 396 442 q 257 290 294 335 q 203 217 219 244 z "},"Ǽ":{"ha":872,"x_min":13,"x_max":1072,"o":"m 75 -12 q 33 15 43 -6 q 22 58 22 35 q 42 122 22 89 q 76 171 61 154 q 29 190 46 172 q 13 219 13 207 q 21 229 13 229 q 33 225 28 229 q 101 213 61 213 q 163 286 118 238 q 267 396 207 335 q 395 519 328 457 q 527 634 463 582 q 644 718 592 686 q 726 750 697 750 q 747 745 738 749 q 767 736 757 742 q 856 744 811 742 q 939 747 901 746 q 996 747 976 747 q 1060 731 1049 747 q 1072 688 1072 715 q 1037 692 1061 690 q 983 693 1013 693 q 937 692 961 693 q 893 689 913 692 q 840 679 864 686 q 800 658 815 672 q 771 620 790 649 q 728 554 751 592 q 683 478 706 517 q 644 407 661 439 q 622 358 628 375 q 683 370 644 363 q 768 378 721 378 q 833 339 833 378 q 829 321 833 332 l 603 321 q 592 294 601 318 q 569 233 582 269 q 547 158 557 196 q 538 93 538 121 q 563 67 538 67 q 658 78 608 67 q 760 90 707 90 q 825 83 796 90 q 854 43 854 76 q 835 44 849 44 q 769 38 808 44 q 689 24 731 32 q 613 10 647 17 q 563 4 579 4 q 498 19 522 4 q 463 53 474 33 q 453 90 453 74 q 458 139 453 117 q 475 192 464 161 q 271 176 346 186 q 164 156 196 167 q 111 69 136 117 q 75 -12 86 21 m 203 217 q 303 232 247 225 q 410 244 358 239 q 493 250 463 250 q 608 474 544 361 q 753 685 671 586 q 733 692 747 692 q 663 665 707 692 q 564 593 618 638 q 453 495 510 549 q 345 388 396 442 q 257 290 294 335 q 203 217 219 244 m 846 804 q 838 810 842 803 q 842 824 833 817 q 901 880 868 847 q 947 926 933 913 q 962 940 953 933 q 979 946 971 946 q 1009 938 1000 946 q 1018 924 1018 929 q 999 906 1018 921 q 958 874 981 890 q 922 850 935 858 q 897 833 914 844 q 865 814 881 822 q 846 804 850 806 z "},"Á":{"ha":625,"x_min":-1,"x_max":811,"o":"m 61 -12 q 19 15 29 -6 q 8 58 8 35 q 28 122 8 89 q 63 171 47 154 q 15 190 32 172 q -1 219 -1 207 q 7 229 -1 229 q 19 225 14 229 q 88 213 47 213 q 142 287 104 238 q 231 398 181 336 q 338 522 282 460 q 449 638 394 585 q 551 724 504 692 q 626 757 597 757 q 676 740 654 757 q 710 707 697 724 q 724 690 724 690 q 664 580 697 653 q 601 418 631 507 q 550 244 571 329 q 588 226 571 244 q 606 189 606 208 q 585 199 606 189 q 540 206 564 208 q 530 159 536 190 q 518 92 524 128 q 513 28 513 57 q 513 10 513 18 q 515 -4 514 3 q 472 19 485 -11 q 458 93 458 50 q 476 207 458 156 q 262 185 342 201 q 150 156 182 168 q 97 69 122 117 q 61 -12 72 21 m 189 217 q 294 233 235 225 q 406 246 353 240 q 488 250 458 251 q 507 317 493 269 q 542 429 521 365 q 594 564 564 493 q 664 700 625 635 q 650 707 660 707 q 592 678 629 707 q 509 604 556 650 q 413 503 463 558 q 319 392 364 447 q 240 290 274 336 q 189 217 206 244 m 639 814 q 631 819 635 813 q 635 833 626 826 q 694 890 661 857 q 740 936 726 922 q 755 949 746 943 q 772 956 764 956 q 802 947 793 956 q 811 933 811 939 q 792 915 811 931 q 751 884 774 900 q 715 860 728 868 q 690 843 707 854 q 658 824 674 832 q 639 814 643 815 z "},"Ă":{"ha":625,"x_min":-1,"x_max":857,"o":"m 61 -12 q 19 15 29 -6 q 8 58 8 35 q 28 122 8 89 q 63 171 47 154 q 15 190 32 172 q -1 219 -1 207 q 7 229 -1 229 q 19 225 14 229 q 88 213 47 213 q 142 287 104 238 q 231 398 181 336 q 338 522 282 460 q 449 638 394 585 q 551 724 504 692 q 626 757 597 757 q 676 740 654 757 q 710 707 697 724 q 724 690 724 690 q 664 580 697 653 q 601 418 631 507 q 550 244 571 329 q 588 226 571 244 q 606 189 606 208 q 585 199 606 189 q 540 206 564 208 q 530 159 536 190 q 518 92 524 128 q 513 28 513 57 q 513 10 513 18 q 515 -4 514 3 q 472 19 485 -11 q 458 93 458 50 q 476 207 458 156 q 262 185 342 201 q 150 156 182 168 q 97 69 122 117 q 61 -12 72 21 m 189 217 q 294 233 235 225 q 406 246 353 240 q 488 250 458 251 q 507 317 493 269 q 542 429 521 365 q 594 564 564 493 q 664 700 625 635 q 650 707 660 707 q 592 678 629 707 q 509 604 556 650 q 413 503 463 558 q 319 392 364 447 q 240 290 274 336 q 189 217 206 244 m 668 815 q 594 840 621 815 q 567 894 567 864 q 590 946 567 946 q 600 933 600 946 q 622 885 600 903 q 676 868 643 868 q 727 872 699 868 q 783 888 756 875 q 825 931 810 901 q 835 945 832 942 q 844 949 839 949 q 853 938 857 949 q 781 843 831 871 q 668 815 732 815 z "},"Ắ":{"ha":625,"x_min":-1,"x_max":857,"o":"m 61 -12 q 19 15 29 -6 q 8 58 8 35 q 28 122 8 89 q 63 171 47 154 q 15 190 32 172 q -1 219 -1 207 q 7 229 -1 229 q 19 225 14 229 q 88 213 47 213 q 142 287 104 238 q 231 398 181 336 q 338 522 282 460 q 449 638 394 585 q 551 724 504 692 q 626 757 597 757 q 676 740 654 757 q 710 707 697 724 q 724 690 724 690 q 664 580 697 653 q 601 418 631 507 q 550 244 571 329 q 588 226 571 244 q 606 189 606 208 q 585 199 606 189 q 540 206 564 208 q 530 159 536 190 q 518 92 524 128 q 513 28 513 57 q 513 10 513 18 q 515 -4 514 3 q 472 19 485 -11 q 458 93 458 50 q 476 207 458 156 q 262 185 342 201 q 150 156 182 168 q 97 69 122 117 q 61 -12 72 21 m 189 217 q 294 233 235 225 q 406 246 353 240 q 488 250 458 251 q 507 317 493 269 q 542 429 521 365 q 594 564 564 493 q 664 700 625 635 q 650 707 660 707 q 592 678 629 707 q 509 604 556 650 q 413 503 463 558 q 319 392 364 447 q 240 290 274 336 q 189 217 206 244 m 668 815 q 594 840 621 815 q 567 894 567 864 q 590 946 567 946 q 600 933 600 946 q 622 885 600 903 q 676 868 643 868 q 727 872 699 868 q 783 888 756 875 q 825 931 810 901 q 835 945 832 942 q 844 949 839 949 q 853 938 857 949 q 781 843 831 871 q 668 815 732 815 m 676 971 q 668 976 672 969 q 672 990 664 983 q 731 1047 699 1014 q 778 1093 764 1079 q 792 1106 783 1100 q 810 1113 801 1113 q 840 1104 831 1113 q 849 1090 849 1096 q 830 1072 849 1088 q 788 1041 811 1057 q 753 1017 765 1025 q 728 1000 744 1011 q 696 981 711 989 q 676 971 681 972 z "},"Ặ":{"ha":625,"x_min":-1,"x_max":857,"o":"m 61 -12 q 19 15 29 -6 q 8 58 8 35 q 28 122 8 89 q 63 171 47 154 q 15 190 32 172 q -1 219 -1 207 q 7 229 -1 229 q 19 225 14 229 q 88 213 47 213 q 142 287 104 238 q 231 398 181 336 q 338 522 282 460 q 449 638 394 585 q 551 724 504 692 q 626 757 597 757 q 676 740 654 757 q 710 707 697 724 q 724 690 724 690 q 664 580 697 653 q 601 418 631 507 q 550 244 571 329 q 588 226 571 244 q 606 189 606 208 q 585 199 606 189 q 540 206 564 208 q 530 159 536 190 q 518 92 524 128 q 513 28 513 57 q 513 10 513 18 q 515 -4 514 3 q 472 19 485 -11 q 458 93 458 50 q 476 207 458 156 q 262 185 342 201 q 150 156 182 168 q 97 69 122 117 q 61 -12 72 21 m 189 217 q 294 233 235 225 q 406 246 353 240 q 488 250 458 251 q 507 317 493 269 q 542 429 521 365 q 594 564 564 493 q 664 700 625 635 q 650 707 660 707 q 592 678 629 707 q 509 604 556 650 q 413 503 463 558 q 319 392 364 447 q 240 290 274 336 q 189 217 206 244 m 221 -172 q 199 -166 207 -172 q 188 -151 192 -160 q 185 -140 185 -147 q 196 -117 185 -125 q 233 -92 213 -101 q 242 -90 235 -92 q 258 -87 250 -87 q 268 -99 274 -87 q 258 -126 261 -108 q 247 -158 254 -144 q 221 -172 240 -172 m 668 815 q 594 840 621 815 q 567 894 567 864 q 590 946 567 946 q 600 933 600 946 q 622 885 600 903 q 676 868 643 868 q 727 872 699 868 q 783 888 756 875 q 825 931 810 901 q 835 945 832 942 q 844 949 839 949 q 853 938 857 949 q 781 843 831 871 q 668 815 732 815 z "},"Ằ":{"ha":625,"x_min":-1,"x_max":857,"o":"m 61 -12 q 19 15 29 -6 q 8 58 8 35 q 28 122 8 89 q 63 171 47 154 q 15 190 32 172 q -1 219 -1 207 q 7 229 -1 229 q 19 225 14 229 q 88 213 47 213 q 142 287 104 238 q 231 398 181 336 q 338 522 282 460 q 449 638 394 585 q 551 724 504 692 q 626 757 597 757 q 676 740 654 757 q 710 707 697 724 q 724 690 724 690 q 664 580 697 653 q 601 418 631 507 q 550 244 571 329 q 588 226 571 244 q 606 189 606 208 q 585 199 606 189 q 540 206 564 208 q 530 159 536 190 q 518 92 524 128 q 513 28 513 57 q 513 10 513 18 q 515 -4 514 3 q 472 19 485 -11 q 458 93 458 50 q 476 207 458 156 q 262 185 342 201 q 150 156 182 168 q 97 69 122 117 q 61 -12 72 21 m 189 217 q 294 233 235 225 q 406 246 353 240 q 488 250 458 251 q 507 317 493 269 q 542 429 521 365 q 594 564 564 493 q 664 700 625 635 q 650 707 660 707 q 592 678 629 707 q 509 604 556 650 q 413 503 463 558 q 319 392 364 447 q 240 290 274 336 q 189 217 206 244 m 668 815 q 594 840 621 815 q 567 894 567 864 q 590 946 567 946 q 600 933 600 946 q 622 885 600 903 q 676 868 643 868 q 727 872 699 868 q 783 888 756 875 q 825 931 810 901 q 835 945 832 942 q 844 949 839 949 q 853 938 857 949 q 781 843 831 871 q 668 815 732 815 m 729 967 q 711 977 726 968 q 679 997 696 986 q 654 1013 663 1007 q 619 1037 642 1021 q 577 1068 596 1053 q 557 1086 558 1083 q 567 1099 557 1092 q 594 1108 576 1107 l 597 1108 q 615 1102 606 1108 q 629 1089 624 1096 q 657 1063 639 1081 q 697 1024 675 1044 q 735 986 718 1003 q 740 976 740 982 q 736 969 740 972 q 729 967 732 965 z "},"Ẳ":{"ha":625,"x_min":-1,"x_max":857,"o":"m 61 -12 q 19 15 29 -6 q 8 58 8 35 q 28 122 8 89 q 63 171 47 154 q 15 190 32 172 q -1 219 -1 207 q 7 229 -1 229 q 19 225 14 229 q 88 213 47 213 q 142 287 104 238 q 231 398 181 336 q 338 522 282 460 q 449 638 394 585 q 551 724 504 692 q 626 757 597 757 q 676 740 654 757 q 710 707 697 724 q 724 690 724 690 q 664 580 697 653 q 601 418 631 507 q 550 244 571 329 q 588 226 571 244 q 606 189 606 208 q 585 199 606 189 q 540 206 564 208 q 530 159 536 190 q 518 92 524 128 q 513 28 513 57 q 513 10 513 18 q 515 -4 514 3 q 472 19 485 -11 q 458 93 458 50 q 476 207 458 156 q 262 185 342 201 q 150 156 182 168 q 97 69 122 117 q 61 -12 72 21 m 189 217 q 294 233 235 225 q 406 246 353 240 q 488 250 458 251 q 507 317 493 269 q 542 429 521 365 q 594 564 564 493 q 664 700 625 635 q 650 707 660 707 q 592 678 629 707 q 509 604 556 650 q 413 503 463 558 q 319 392 364 447 q 240 290 274 336 q 189 217 206 244 m 668 815 q 594 840 621 815 q 567 894 567 864 q 590 946 567 946 q 600 933 600 946 q 622 885 600 903 q 676 868 643 868 q 727 872 699 868 q 783 888 756 875 q 825 931 810 901 q 835 945 832 942 q 844 949 839 949 q 853 938 857 949 q 781 843 831 871 q 668 815 732 815 m 746 978 q 727 970 736 971 q 725 979 718 969 q 755 1019 744 1007 q 774 1050 765 1032 q 779 1066 778 1058 q 781 1079 781 1074 q 767 1106 781 1099 q 735 1114 754 1114 q 681 1100 704 1114 q 667 1096 675 1096 q 660 1101 660 1096 q 672 1119 660 1108 q 712 1144 690 1135 q 763 1153 733 1153 q 816 1138 800 1153 q 832 1099 832 1122 q 817 1046 832 1074 q 780 1002 799 1015 q 746 978 761 989 z "},"Ẵ":{"ha":625,"x_min":-1,"x_max":869,"o":"m 61 -12 q 19 15 29 -6 q 8 58 8 35 q 28 122 8 89 q 63 171 47 154 q 15 190 32 172 q -1 219 -1 207 q 7 229 -1 229 q 19 225 14 229 q 88 213 47 213 q 142 287 104 238 q 231 398 181 336 q 338 522 282 460 q 449 638 394 585 q 551 724 504 692 q 626 757 597 757 q 676 740 654 757 q 710 707 697 724 q 724 690 724 690 q 664 580 697 653 q 601 418 631 507 q 550 244 571 329 q 588 226 571 244 q 606 189 606 208 q 585 199 606 189 q 540 206 564 208 q 530 159 536 190 q 518 92 524 128 q 513 28 513 57 q 513 10 513 18 q 515 -4 514 3 q 472 19 485 -11 q 458 93 458 50 q 476 207 458 156 q 262 185 342 201 q 150 156 182 168 q 97 69 122 117 q 61 -12 72 21 m 189 217 q 294 233 235 225 q 406 246 353 240 q 488 250 458 251 q 507 317 493 269 q 542 429 521 365 q 594 564 564 493 q 664 700 625 635 q 650 707 660 707 q 592 678 629 707 q 509 604 556 650 q 413 503 463 558 q 319 392 364 447 q 240 290 274 336 q 189 217 206 244 m 668 815 q 594 840 621 815 q 567 894 567 864 q 590 946 567 946 q 600 933 600 946 q 622 885 600 903 q 676 868 643 868 q 727 872 699 868 q 783 888 756 875 q 825 931 810 901 q 835 945 832 942 q 844 949 839 949 q 853 938 857 949 q 781 843 831 871 q 668 815 732 815 m 785 969 q 734 981 754 969 q 697 1004 714 993 q 656 1015 679 1015 q 617 998 632 1015 q 593 971 601 981 q 583 974 583 967 q 597 1013 583 993 q 632 1045 611 1032 q 675 1058 653 1058 q 724 1047 701 1058 q 769 1025 747 1036 q 813 1014 790 1014 q 838 1028 828 1014 q 858 1060 847 1042 q 866 1058 863 1060 q 869 1044 869 1056 q 854 1007 869 1024 q 819 980 839 990 q 785 969 800 969 z "},"Ǎ":{"ha":625,"x_min":-1,"x_max":854,"o":"m 847 943 q 854 936 854 943 q 847 924 854 929 q 787 881 817 900 q 729 844 757 861 q 697 825 714 835 q 669 815 679 815 q 647 824 661 815 q 626 839 633 833 q 584 876 611 853 q 535 924 557 900 q 532 932 532 926 q 536 941 532 938 q 543 943 540 944 q 569 933 549 942 q 611 911 589 924 q 643 892 628 901 q 679 868 658 882 q 719 889 697 879 q 758 907 742 899 q 788 921 768 913 q 825 936 807 929 q 846 943 843 943 l 847 943 m 61 -12 q 19 15 29 -6 q 8 58 8 35 q 28 122 8 89 q 63 171 47 154 q 15 190 32 172 q -1 219 -1 207 q 7 229 -1 229 q 19 225 14 229 q 88 213 47 213 q 142 287 104 238 q 231 398 181 336 q 338 522 282 460 q 449 638 394 585 q 551 724 504 692 q 626 757 597 757 q 676 740 654 757 q 710 707 697 724 q 724 690 724 690 q 664 580 697 653 q 601 418 631 507 q 550 244 571 329 q 588 226 571 244 q 606 189 606 208 q 585 199 606 189 q 540 206 564 208 q 530 159 536 190 q 518 92 524 128 q 513 28 513 57 q 513 10 513 18 q 515 -4 514 3 q 472 19 485 -11 q 458 93 458 50 q 476 207 458 156 q 262 185 342 201 q 150 156 182 168 q 97 69 122 117 q 61 -12 72 21 m 189 217 q 294 233 235 225 q 406 246 353 240 q 488 250 458 251 q 507 317 493 269 q 542 429 521 365 q 594 564 564 493 q 664 700 625 635 q 650 707 660 707 q 592 678 629 707 q 509 604 556 650 q 413 503 463 558 q 319 392 364 447 q 240 290 274 336 q 189 217 206 244 z "},"Â":{"ha":625,"x_min":-1,"x_max":836,"o":"m 61 -12 q 19 15 29 -6 q 8 58 8 35 q 28 122 8 89 q 63 171 47 154 q 15 190 32 172 q -1 219 -1 207 q 7 229 -1 229 q 19 225 14 229 q 88 213 47 213 q 142 287 104 238 q 231 398 181 336 q 338 522 282 460 q 449 638 394 585 q 551 724 504 692 q 626 757 597 757 q 676 740 654 757 q 710 707 697 724 q 724 690 724 690 q 664 580 697 653 q 601 418 631 507 q 550 244 571 329 q 588 226 571 244 q 606 189 606 208 q 585 199 606 189 q 540 206 564 208 q 530 159 536 190 q 518 92 524 128 q 513 28 513 57 q 513 10 513 18 q 515 -4 514 3 q 472 19 485 -11 q 458 93 458 50 q 476 207 458 156 q 262 185 342 201 q 150 156 182 168 q 97 69 122 117 q 61 -12 72 21 m 189 217 q 294 233 235 225 q 406 246 353 240 q 488 250 458 251 q 507 317 493 269 q 542 429 521 365 q 594 564 564 493 q 664 700 625 635 q 650 707 660 707 q 592 678 629 707 q 509 604 556 650 q 413 503 463 558 q 319 392 364 447 q 240 290 274 336 q 189 217 206 244 m 521 808 q 514 815 514 808 q 521 828 514 822 q 581 871 551 851 q 639 907 611 890 q 672 926 654 917 q 699 936 689 936 q 722 928 707 936 q 742 913 736 919 q 784 875 757 899 q 833 828 811 851 q 836 819 836 825 q 832 810 836 814 q 825 808 828 807 q 799 819 819 810 q 757 840 779 828 q 725 860 740 850 q 689 883 710 869 q 649 863 671 874 q 610 844 626 853 q 581 832 600 840 q 544 817 561 824 q 522 808 526 810 l 521 808 z "},"Ấ":{"ha":625,"x_min":-1,"x_max":975,"o":"m 61 -12 q 19 15 29 -6 q 8 58 8 35 q 28 122 8 89 q 63 171 47 154 q 15 190 32 172 q -1 219 -1 207 q 7 229 -1 229 q 19 225 14 229 q 88 213 47 213 q 142 287 104 238 q 231 398 181 336 q 338 522 282 460 q 449 638 394 585 q 551 724 504 692 q 626 757 597 757 q 676 740 654 757 q 710 707 697 724 q 724 690 724 690 q 664 580 697 653 q 601 418 631 507 q 550 244 571 329 q 588 226 571 244 q 606 189 606 208 q 585 199 606 189 q 540 206 564 208 q 530 159 536 190 q 518 92 524 128 q 513 28 513 57 q 513 10 513 18 q 515 -4 514 3 q 472 19 485 -11 q 458 93 458 50 q 476 207 458 156 q 262 185 342 201 q 150 156 182 168 q 97 69 122 117 q 61 -12 72 21 m 189 217 q 294 233 235 225 q 406 246 353 240 q 488 250 458 251 q 507 317 493 269 q 542 429 521 365 q 594 564 564 493 q 664 700 625 635 q 650 707 660 707 q 592 678 629 707 q 509 604 556 650 q 413 503 463 558 q 319 392 364 447 q 240 290 274 336 q 189 217 206 244 m 521 808 q 514 815 514 808 q 521 828 514 822 q 581 871 551 851 q 639 907 611 890 q 672 926 654 917 q 699 936 689 936 q 722 928 707 936 q 742 913 736 919 q 784 875 757 899 q 833 828 811 851 q 836 819 836 825 q 832 810 836 814 q 825 808 828 807 q 799 819 819 810 q 757 840 779 828 q 725 860 740 850 q 689 883 710 869 q 649 863 671 874 q 610 844 626 853 q 581 832 600 840 q 544 817 561 824 q 522 808 526 810 l 521 808 m 803 942 q 794 947 799 940 q 799 961 790 954 q 858 1017 825 985 q 904 1064 890 1050 q 919 1077 910 1071 q 936 1083 928 1083 q 966 1075 957 1083 q 975 1061 975 1067 q 956 1043 975 1058 q 915 1012 938 1028 q 879 988 892 996 q 854 971 871 982 q 822 951 838 960 q 803 942 807 943 z "},"Ậ":{"ha":625,"x_min":-1,"x_max":836,"o":"m 61 -12 q 19 15 29 -6 q 8 58 8 35 q 28 122 8 89 q 63 171 47 154 q 15 190 32 172 q -1 219 -1 207 q 7 229 -1 229 q 19 225 14 229 q 88 213 47 213 q 142 287 104 238 q 231 398 181 336 q 338 522 282 460 q 449 638 394 585 q 551 724 504 692 q 626 757 597 757 q 676 740 654 757 q 710 707 697 724 q 724 690 724 690 q 664 580 697 653 q 601 418 631 507 q 550 244 571 329 q 588 226 571 244 q 606 189 606 208 q 585 199 606 189 q 540 206 564 208 q 530 159 536 190 q 518 92 524 128 q 513 28 513 57 q 513 10 513 18 q 515 -4 514 3 q 472 19 485 -11 q 458 93 458 50 q 476 207 458 156 q 262 185 342 201 q 150 156 182 168 q 97 69 122 117 q 61 -12 72 21 m 189 217 q 294 233 235 225 q 406 246 353 240 q 488 250 458 251 q 507 317 493 269 q 542 429 521 365 q 594 564 564 493 q 664 700 625 635 q 650 707 660 707 q 592 678 629 707 q 509 604 556 650 q 413 503 463 558 q 319 392 364 447 q 240 290 274 336 q 189 217 206 244 m 221 -172 q 199 -166 207 -172 q 188 -151 192 -160 q 185 -140 185 -147 q 196 -117 185 -125 q 233 -92 213 -101 q 242 -90 235 -92 q 258 -87 250 -87 q 268 -99 274 -87 q 258 -126 261 -108 q 247 -158 254 -144 q 221 -172 240 -172 m 521 808 q 514 815 514 808 q 521 828 514 822 q 581 871 551 851 q 639 907 611 890 q 672 926 654 917 q 699 936 689 936 q 722 928 707 936 q 742 913 736 919 q 784 875 757 899 q 833 828 811 851 q 836 819 836 825 q 832 810 836 814 q 825 808 828 807 q 799 819 819 810 q 757 840 779 828 q 725 860 740 850 q 689 883 710 869 q 649 863 671 874 q 610 844 626 853 q 581 832 600 840 q 544 817 561 824 q 522 808 526 810 l 521 808 z "},"Ầ":{"ha":625,"x_min":-1,"x_max":867,"o":"m 61 -12 q 19 15 29 -6 q 8 58 8 35 q 28 122 8 89 q 63 171 47 154 q 15 190 32 172 q -1 219 -1 207 q 7 229 -1 229 q 19 225 14 229 q 88 213 47 213 q 142 287 104 238 q 231 398 181 336 q 338 522 282 460 q 449 638 394 585 q 551 724 504 692 q 626 757 597 757 q 676 740 654 757 q 710 707 697 724 q 724 690 724 690 q 664 580 697 653 q 601 418 631 507 q 550 244 571 329 q 588 226 571 244 q 606 189 606 208 q 585 199 606 189 q 540 206 564 208 q 530 159 536 190 q 518 92 524 128 q 513 28 513 57 q 513 10 513 18 q 515 -4 514 3 q 472 19 485 -11 q 458 93 458 50 q 476 207 458 156 q 262 185 342 201 q 150 156 182 168 q 97 69 122 117 q 61 -12 72 21 m 189 217 q 294 233 235 225 q 406 246 353 240 q 488 250 458 251 q 507 317 493 269 q 542 429 521 365 q 594 564 564 493 q 664 700 625 635 q 650 707 660 707 q 592 678 629 707 q 509 604 556 650 q 413 503 463 558 q 319 392 364 447 q 240 290 274 336 q 189 217 206 244 m 521 808 q 514 815 514 808 q 521 828 514 822 q 581 871 551 851 q 639 907 611 890 q 672 926 654 917 q 699 936 689 936 q 722 928 707 936 q 742 913 736 919 q 784 875 757 899 q 833 828 811 851 q 836 819 836 825 q 832 810 836 814 q 825 808 828 807 q 799 819 819 810 q 757 840 779 828 q 725 860 740 850 q 689 883 710 869 q 649 863 671 874 q 610 844 626 853 q 581 832 600 840 q 544 817 561 824 q 522 808 526 810 l 521 808 m 856 938 q 838 948 853 939 q 806 967 822 957 q 781 983 789 978 q 745 1008 768 992 q 703 1039 722 1024 q 683 1057 685 1054 q 693 1070 683 1063 q 721 1079 703 1078 l 724 1079 q 741 1073 732 1079 q 756 1060 750 1067 q 783 1033 765 1051 q 823 994 801 1015 q 861 957 844 974 q 867 947 867 953 q 863 940 867 943 q 856 938 858 936 z "},"Ẩ":{"ha":625,"x_min":-1,"x_max":951,"o":"m 61 -12 q 19 15 29 -6 q 8 58 8 35 q 28 122 8 89 q 63 171 47 154 q 15 190 32 172 q -1 219 -1 207 q 7 229 -1 229 q 19 225 14 229 q 88 213 47 213 q 142 287 104 238 q 231 398 181 336 q 338 522 282 460 q 449 638 394 585 q 551 724 504 692 q 626 757 597 757 q 676 740 654 757 q 710 707 697 724 q 724 690 724 690 q 664 580 697 653 q 601 418 631 507 q 550 244 571 329 q 588 226 571 244 q 606 189 606 208 q 585 199 606 189 q 540 206 564 208 q 530 159 536 190 q 518 92 524 128 q 513 28 513 57 q 513 10 513 18 q 515 -4 514 3 q 472 19 485 -11 q 458 93 458 50 q 476 207 458 156 q 262 185 342 201 q 150 156 182 168 q 97 69 122 117 q 61 -12 72 21 m 189 217 q 294 233 235 225 q 406 246 353 240 q 488 250 458 251 q 507 317 493 269 q 542 429 521 365 q 594 564 564 493 q 664 700 625 635 q 650 707 660 707 q 592 678 629 707 q 509 604 556 650 q 413 503 463 558 q 319 392 364 447 q 240 290 274 336 q 189 217 206 244 m 521 808 q 514 815 514 808 q 521 828 514 822 q 581 871 551 851 q 639 907 611 890 q 672 926 654 917 q 699 936 689 936 q 722 928 707 936 q 742 913 736 919 q 784 875 757 899 q 833 828 811 851 q 836 819 836 825 q 832 810 836 814 q 825 808 828 807 q 799 819 819 810 q 757 840 779 828 q 725 860 740 850 q 689 883 710 869 q 649 863 671 874 q 610 844 626 853 q 581 832 600 840 q 544 817 561 824 q 522 808 526 810 l 521 808 m 865 903 q 847 895 856 896 q 844 904 838 894 q 874 944 864 932 q 893 975 885 957 q 899 991 897 983 q 900 1004 900 999 q 887 1031 900 1024 q 854 1039 874 1039 q 800 1025 824 1039 q 786 1021 794 1021 q 779 1026 779 1021 q 792 1044 779 1033 q 831 1069 810 1060 q 882 1078 853 1078 q 935 1063 919 1078 q 951 1024 951 1047 q 936 971 951 999 q 899 927 918 940 q 865 903 881 914 z "},"Ẫ":{"ha":625,"x_min":-1,"x_max":882,"o":"m 61 -12 q 19 15 29 -6 q 8 58 8 35 q 28 122 8 89 q 63 171 47 154 q 15 190 32 172 q -1 219 -1 207 q 7 229 -1 229 q 19 225 14 229 q 88 213 47 213 q 142 287 104 238 q 231 398 181 336 q 338 522 282 460 q 449 638 394 585 q 551 724 504 692 q 626 757 597 757 q 676 740 654 757 q 710 707 697 724 q 724 690 724 690 q 664 580 697 653 q 601 418 631 507 q 550 244 571 329 q 588 226 571 244 q 606 189 606 208 q 585 199 606 189 q 540 206 564 208 q 530 159 536 190 q 518 92 524 128 q 513 28 513 57 q 513 10 513 18 q 515 -4 514 3 q 472 19 485 -11 q 458 93 458 50 q 476 207 458 156 q 262 185 342 201 q 150 156 182 168 q 97 69 122 117 q 61 -12 72 21 m 189 217 q 294 233 235 225 q 406 246 353 240 q 488 250 458 251 q 507 317 493 269 q 542 429 521 365 q 594 564 564 493 q 664 700 625 635 q 650 707 660 707 q 592 678 629 707 q 509 604 556 650 q 413 503 463 558 q 319 392 364 447 q 240 290 274 336 q 189 217 206 244 m 521 808 q 514 815 514 808 q 521 828 514 822 q 581 871 551 851 q 639 907 611 890 q 672 926 654 917 q 699 936 689 936 q 722 928 707 936 q 742 913 736 919 q 784 875 757 899 q 833 828 811 851 q 836 819 836 825 q 832 810 836 814 q 825 808 828 807 q 799 819 819 810 q 757 840 779 828 q 725 860 740 850 q 689 883 710 869 q 649 863 671 874 q 610 844 626 853 q 581 832 600 840 q 544 817 561 824 q 522 808 526 810 l 521 808 m 797 978 q 747 990 767 978 q 709 1013 726 1001 q 668 1024 692 1024 q 629 1006 644 1024 q 606 979 614 989 q 596 982 596 975 q 610 1021 596 1001 q 644 1053 624 1040 q 688 1067 665 1067 q 737 1056 714 1067 q 781 1033 760 1044 q 825 1022 803 1022 q 850 1036 840 1022 q 871 1068 860 1050 q 878 1066 875 1068 q 882 1053 882 1064 q 867 1015 882 1032 q 832 988 851 999 q 797 978 813 978 z "},"Ȁ":{"ha":625,"x_min":-1,"x_max":724,"o":"m 61 -12 q 19 15 29 -6 q 8 58 8 35 q 28 122 8 89 q 63 171 47 154 q 15 190 32 172 q -1 219 -1 207 q 7 229 -1 229 q 19 225 14 229 q 88 213 47 213 q 142 287 104 238 q 231 398 181 336 q 338 522 282 460 q 449 638 394 585 q 551 724 504 692 q 626 757 597 757 q 676 740 654 757 q 710 707 697 724 q 724 690 724 690 q 664 580 697 653 q 601 418 631 507 q 550 244 571 329 q 588 226 571 244 q 606 189 606 208 q 585 199 606 189 q 540 206 564 208 q 530 159 536 190 q 518 92 524 128 q 513 28 513 57 q 513 10 513 18 q 515 -4 514 3 q 472 19 485 -11 q 458 93 458 50 q 476 207 458 156 q 262 185 342 201 q 150 156 182 168 q 97 69 122 117 q 61 -12 72 21 m 189 217 q 294 233 235 225 q 406 246 353 240 q 488 250 458 251 q 507 317 493 269 q 542 429 521 365 q 594 564 564 493 q 664 700 625 635 q 650 707 660 707 q 592 678 629 707 q 509 604 556 650 q 413 503 463 558 q 319 392 364 447 q 240 290 274 336 q 189 217 206 244 m 689 808 q 674 824 686 811 q 649 851 661 836 q 631 875 636 867 q 603 908 621 886 q 572 951 586 931 q 558 974 558 971 q 585 986 561 986 q 600 983 589 986 q 617 973 610 982 q 629 954 624 964 q 660 897 639 938 q 700 825 682 857 q 701 817 701 822 q 697 809 701 811 q 689 808 692 807 m 589 815 q 573 828 586 817 q 546 854 560 840 q 525 876 532 868 q 496 908 515 888 q 460 947 476 928 q 444 968 444 965 q 457 979 446 974 q 486 982 468 985 q 503 972 496 981 q 517 956 511 964 q 553 901 528 940 q 599 833 578 863 q 601 825 601 831 q 597 817 601 819 q 589 815 593 814 z "},"Ä":{"ha":625,"x_min":-1,"x_max":815,"o":"m 61 -12 q 19 15 29 -6 q 8 58 8 35 q 28 122 8 89 q 63 171 47 154 q 15 190 32 172 q -1 219 -1 207 q 7 229 -1 229 q 19 225 14 229 q 88 213 47 213 q 142 287 104 238 q 231 398 181 336 q 338 522 282 460 q 449 638 394 585 q 551 724 504 692 q 626 757 597 757 q 676 740 654 757 q 710 707 697 724 q 724 690 724 690 q 664 580 697 653 q 601 418 631 507 q 550 244 571 329 q 588 226 571 244 q 606 189 606 208 q 585 199 606 189 q 540 206 564 208 q 530 159 536 190 q 518 92 524 128 q 513 28 513 57 q 513 10 513 18 q 515 -4 514 3 q 472 19 485 -11 q 458 93 458 50 q 476 207 458 156 q 262 185 342 201 q 150 156 182 168 q 97 69 122 117 q 61 -12 72 21 m 189 217 q 294 233 235 225 q 406 246 353 240 q 488 250 458 251 q 507 317 493 269 q 542 429 521 365 q 594 564 564 493 q 664 700 625 635 q 650 707 660 707 q 592 678 629 707 q 509 604 556 650 q 413 503 463 558 q 319 392 364 447 q 240 290 274 336 q 189 217 206 244 m 757 813 q 733 820 742 813 q 719 838 725 828 q 717 850 717 842 q 721 865 717 857 q 729 875 725 872 q 771 903 750 893 q 799 908 776 908 q 810 896 815 908 q 797 865 801 885 q 785 828 793 844 q 757 813 778 813 m 603 813 q 579 820 588 813 q 565 838 571 828 q 563 850 563 842 q 567 865 563 857 q 575 875 571 872 q 617 903 596 893 q 644 908 622 908 q 656 896 661 908 q 643 865 647 885 q 631 828 639 844 q 603 813 624 813 z "},"Ạ":{"ha":625,"x_min":-1,"x_max":724,"o":"m 61 -12 q 19 15 29 -6 q 8 58 8 35 q 28 122 8 89 q 63 171 47 154 q 15 190 32 172 q -1 219 -1 207 q 7 229 -1 229 q 19 225 14 229 q 88 213 47 213 q 142 287 104 238 q 231 398 181 336 q 338 522 282 460 q 449 638 394 585 q 551 724 504 692 q 626 757 597 757 q 676 740 654 757 q 710 707 697 724 q 724 690 724 690 q 664 580 697 653 q 601 418 631 507 q 550 244 571 329 q 588 226 571 244 q 606 189 606 208 q 585 199 606 189 q 540 206 564 208 q 530 159 536 190 q 518 92 524 128 q 513 28 513 57 q 513 10 513 18 q 515 -4 514 3 q 472 19 485 -11 q 458 93 458 50 q 476 207 458 156 q 262 185 342 201 q 150 156 182 168 q 97 69 122 117 q 61 -12 72 21 m 189 217 q 294 233 235 225 q 406 246 353 240 q 488 250 458 251 q 507 317 493 269 q 542 429 521 365 q 594 564 564 493 q 664 700 625 635 q 650 707 660 707 q 592 678 629 707 q 509 604 556 650 q 413 503 463 558 q 319 392 364 447 q 240 290 274 336 q 189 217 206 244 m 221 -172 q 199 -166 207 -172 q 188 -151 192 -160 q 185 -140 185 -147 q 196 -117 185 -125 q 233 -92 213 -101 q 242 -90 235 -92 q 258 -87 250 -87 q 268 -99 274 -87 q 258 -126 261 -108 q 247 -158 254 -144 q 221 -172 240 -172 z "},"À":{"ha":625,"x_min":-1,"x_max":724,"o":"m 61 -12 q 19 15 29 -6 q 8 58 8 35 q 28 122 8 89 q 63 171 47 154 q 15 190 32 172 q -1 219 -1 207 q 7 229 -1 229 q 19 225 14 229 q 88 213 47 213 q 142 287 104 238 q 231 398 181 336 q 338 522 282 460 q 449 638 394 585 q 551 724 504 692 q 626 757 597 757 q 676 740 654 757 q 710 707 697 724 q 724 690 724 690 q 664 580 697 653 q 601 418 631 507 q 550 244 571 329 q 588 226 571 244 q 606 189 606 208 q 585 199 606 189 q 540 206 564 208 q 530 159 536 190 q 518 92 524 128 q 513 28 513 57 q 513 10 513 18 q 515 -4 514 3 q 472 19 485 -11 q 458 93 458 50 q 476 207 458 156 q 262 185 342 201 q 150 156 182 168 q 97 69 122 117 q 61 -12 72 21 m 189 217 q 294 233 235 225 q 406 246 353 240 q 488 250 458 251 q 507 317 493 269 q 542 429 521 365 q 594 564 564 493 q 664 700 625 635 q 650 707 660 707 q 592 678 629 707 q 509 604 556 650 q 413 503 463 558 q 319 392 364 447 q 240 290 274 336 q 189 217 206 244 m 692 810 q 674 820 689 811 q 642 840 658 829 q 617 856 625 850 q 581 880 604 864 q 540 911 558 896 q 519 929 521 926 q 529 942 519 935 q 557 951 539 950 l 560 951 q 577 945 568 951 q 592 932 586 939 q 619 906 601 924 q 659 867 638 888 q 697 829 681 846 q 703 819 703 825 q 699 812 703 815 q 692 810 694 808 z "},"Ả":{"ha":625,"x_min":-1,"x_max":794,"o":"m 61 -12 q 19 15 29 -6 q 8 58 8 35 q 28 122 8 89 q 63 171 47 154 q 15 190 32 172 q -1 219 -1 207 q 7 229 -1 229 q 19 225 14 229 q 88 213 47 213 q 142 287 104 238 q 231 398 181 336 q 338 522 282 460 q 449 638 394 585 q 551 724 504 692 q 626 757 597 757 q 676 740 654 757 q 710 707 697 724 q 724 690 724 690 q 664 580 697 653 q 601 418 631 507 q 550 244 571 329 q 588 226 571 244 q 606 189 606 208 q 585 199 606 189 q 540 206 564 208 q 530 159 536 190 q 518 92 524 128 q 513 28 513 57 q 513 10 513 18 q 515 -4 514 3 q 472 19 485 -11 q 458 93 458 50 q 476 207 458 156 q 262 185 342 201 q 150 156 182 168 q 97 69 122 117 q 61 -12 72 21 m 189 217 q 294 233 235 225 q 406 246 353 240 q 488 250 458 251 q 507 317 493 269 q 542 429 521 365 q 594 564 564 493 q 664 700 625 635 q 650 707 660 707 q 592 678 629 707 q 509 604 556 650 q 413 503 463 558 q 319 392 364 447 q 240 290 274 336 q 189 217 206 244 m 708 856 q 690 848 699 849 q 688 857 681 847 q 717 897 707 885 q 736 928 728 910 q 742 944 740 936 q 743 957 743 951 q 730 984 743 976 q 697 992 717 992 q 643 978 667 992 q 629 974 638 974 q 622 979 622 974 q 635 997 622 986 q 674 1022 653 1013 q 725 1031 696 1031 q 778 1015 763 1031 q 794 976 794 1000 q 779 924 794 951 q 742 880 761 893 q 708 856 724 867 z "},"Ȃ":{"ha":625,"x_min":-1,"x_max":821,"o":"m 61 -12 q 19 15 29 -6 q 8 58 8 35 q 28 122 8 89 q 63 171 47 154 q 15 190 32 172 q -1 219 -1 207 q 7 229 -1 229 q 19 225 14 229 q 88 213 47 213 q 142 287 104 238 q 231 398 181 336 q 338 522 282 460 q 449 638 394 585 q 551 724 504 692 q 626 757 597 757 q 676 740 654 757 q 710 707 697 724 q 724 690 724 690 q 664 580 697 653 q 601 418 631 507 q 550 244 571 329 q 588 226 571 244 q 606 189 606 208 q 585 199 606 189 q 540 206 564 208 q 530 159 536 190 q 518 92 524 128 q 513 28 513 57 q 513 10 513 18 q 515 -4 514 3 q 472 19 485 -11 q 458 93 458 50 q 476 207 458 156 q 262 185 342 201 q 150 156 182 168 q 97 69 122 117 q 61 -12 72 21 m 189 217 q 294 233 235 225 q 406 246 353 240 q 488 250 458 251 q 507 317 493 269 q 542 429 521 365 q 594 564 564 493 q 664 700 625 635 q 650 707 660 707 q 592 678 629 707 q 509 604 556 650 q 413 503 463 558 q 319 392 364 447 q 240 290 274 336 q 189 217 206 244 m 792 815 q 785 817 789 815 q 782 828 781 819 q 765 876 785 856 q 710 896 746 896 q 634 880 678 896 q 571 836 590 864 q 560 822 564 825 q 550 819 556 819 q 543 831 539 819 q 613 915 565 883 q 722 947 661 947 q 794 925 768 947 q 821 874 821 903 q 812 831 821 847 q 792 815 803 815 z "},"Ā":{"ha":625,"x_min":-1,"x_max":790,"o":"m 61 -12 q 19 15 29 -6 q 8 58 8 35 q 28 122 8 89 q 63 171 47 154 q 15 190 32 172 q -1 219 -1 207 q 7 229 -1 229 q 19 225 14 229 q 88 213 47 213 q 142 287 104 238 q 231 398 181 336 q 338 522 282 460 q 449 638 394 585 q 551 724 504 692 q 626 757 597 757 q 676 740 654 757 q 710 707 697 724 q 724 690 724 690 q 664 580 697 653 q 601 418 631 507 q 550 244 571 329 q 588 226 571 244 q 606 189 606 208 q 585 199 606 189 q 540 206 564 208 q 530 159 536 190 q 518 92 524 128 q 513 28 513 57 q 513 10 513 18 q 515 -4 514 3 q 472 19 485 -11 q 458 93 458 50 q 476 207 458 156 q 262 185 342 201 q 150 156 182 168 q 97 69 122 117 q 61 -12 72 21 m 189 217 q 294 233 235 225 q 406 246 353 240 q 488 250 458 251 q 507 317 493 269 q 542 429 521 365 q 594 564 564 493 q 664 700 625 635 q 650 707 660 707 q 592 678 629 707 q 509 604 556 650 q 413 503 463 558 q 319 392 364 447 q 240 290 274 336 q 189 217 206 244 m 790 825 q 763 831 782 829 q 717 832 744 832 q 635 829 674 832 q 572 826 596 826 q 543 846 544 826 q 542 882 542 865 q 571 878 553 879 q 610 876 589 876 q 692 879 653 876 q 761 882 731 882 q 788 863 785 882 q 790 825 790 843 z "},"Ą":{"ha":625,"x_min":-1,"x_max":724,"o":"m 61 -12 q 19 15 29 -6 q 8 58 8 35 q 28 122 8 89 q 63 171 47 154 q 15 190 32 172 q -1 219 -1 207 q 7 229 -1 229 q 19 225 14 229 q 88 213 47 213 q 142 287 104 238 q 231 398 181 336 q 338 522 282 460 q 449 638 394 585 q 551 724 504 692 q 626 757 597 757 q 676 740 654 757 q 710 707 697 724 q 724 690 724 690 q 664 580 697 653 q 601 418 631 507 q 550 244 571 329 q 588 226 571 244 q 606 189 606 208 q 585 199 606 189 q 540 206 564 208 q 530 159 536 190 q 518 92 524 128 q 513 28 513 57 q 513 10 513 18 q 515 -4 514 3 q 472 19 485 -11 q 458 93 458 50 q 476 207 458 156 q 262 185 342 201 q 150 156 182 168 q 97 69 122 117 q 61 -12 72 21 m 189 217 q 294 233 235 225 q 406 246 353 240 q 488 250 458 251 q 507 317 493 269 q 542 429 521 365 q 594 564 564 493 q 664 700 625 635 q 650 707 660 707 q 592 678 629 707 q 509 604 556 650 q 413 503 463 558 q 319 392 364 447 q 240 290 274 336 q 189 217 206 244 m 454 -239 q 394 -218 415 -239 q 374 -171 374 -197 q 393 -100 374 -137 q 438 -31 413 -62 q 478 13 463 0 q 501 21 486 21 q 513 17 508 21 q 510 4 517 13 q 460 -67 485 -26 q 436 -157 436 -107 q 448 -179 436 -171 q 475 -187 460 -187 q 535 -171 503 -187 q 596 -132 567 -154 q 643 -93 625 -110 q 647 -108 647 -99 q 642 -130 647 -118 q 632 -146 636 -142 q 547 -210 596 -181 q 454 -239 499 -239 z "},"Å":{"ha":625,"x_min":-1,"x_max":819,"o":"m 61 -12 q 19 15 29 -6 q 8 58 8 35 q 28 122 8 89 q 63 171 47 154 q 15 190 32 172 q -1 219 -1 207 q 7 229 -1 229 q 19 225 14 229 q 88 213 47 213 q 142 287 104 238 q 231 398 181 336 q 338 522 282 460 q 449 638 394 585 q 551 724 504 692 q 626 757 597 757 q 676 740 654 757 q 710 707 697 724 q 724 690 724 690 q 664 580 697 653 q 601 418 631 507 q 550 244 571 329 q 588 226 571 244 q 606 189 606 208 q 585 199 606 189 q 540 206 564 208 q 530 159 536 190 q 518 92 524 128 q 513 28 513 57 q 513 10 513 18 q 515 -4 514 3 q 472 19 485 -11 q 458 93 458 50 q 476 207 458 156 q 262 185 342 201 q 150 156 182 168 q 97 69 122 117 q 61 -12 72 21 m 189 217 q 294 233 235 225 q 406 246 353 240 q 488 250 458 251 q 507 317 493 269 q 542 429 521 365 q 594 564 564 493 q 664 700 625 635 q 650 707 660 707 q 592 678 629 707 q 509 604 556 650 q 413 503 463 558 q 319 392 364 447 q 240 290 274 336 q 189 217 206 244 m 692 808 q 625 832 649 808 q 601 886 601 856 q 638 960 601 926 q 728 993 674 993 q 796 971 772 993 q 819 918 819 949 q 784 843 819 878 q 692 808 749 808 m 693 832 q 731 852 713 832 q 760 899 750 872 q 763 910 763 906 q 763 921 763 915 q 753 953 763 940 q 729 967 743 967 q 682 940 706 967 q 658 878 658 913 q 669 845 658 858 q 693 832 679 832 z "},"Ǻ":{"ha":625,"x_min":-1,"x_max":886,"o":"m 61 -12 q 19 15 29 -6 q 8 58 8 35 q 28 122 8 89 q 63 171 47 154 q 15 190 32 172 q -1 219 -1 207 q 7 229 -1 229 q 19 225 14 229 q 88 213 47 213 q 142 287 104 238 q 231 398 181 336 q 338 522 282 460 q 449 638 394 585 q 551 724 504 692 q 626 757 597 757 q 676 740 654 757 q 710 707 697 724 q 724 690 724 690 q 664 580 697 653 q 601 418 631 507 q 550 244 571 329 q 588 226 571 244 q 606 189 606 208 q 585 199 606 189 q 540 206 564 208 q 530 159 536 190 q 518 92 524 128 q 513 28 513 57 q 513 10 513 18 q 515 -4 514 3 q 472 19 485 -11 q 458 93 458 50 q 476 207 458 156 q 262 185 342 201 q 150 156 182 168 q 97 69 122 117 q 61 -12 72 21 m 189 217 q 294 233 235 225 q 406 246 353 240 q 488 250 458 251 q 507 317 493 269 q 542 429 521 365 q 594 564 564 493 q 664 700 625 635 q 650 707 660 707 q 592 678 629 707 q 509 604 556 650 q 413 503 463 558 q 319 392 364 447 q 240 290 274 336 q 189 217 206 244 m 692 808 q 625 832 649 808 q 601 886 601 856 q 638 960 601 926 q 728 993 674 993 q 796 971 772 993 q 819 918 819 949 q 784 843 819 878 q 692 808 749 808 m 693 832 q 731 852 713 832 q 760 899 750 872 q 763 910 763 906 q 763 921 763 915 q 753 953 763 940 q 729 967 743 967 q 682 940 706 967 q 658 878 658 913 q 669 845 658 858 q 693 832 679 832 m 714 1042 q 706 1047 710 1040 q 710 1061 701 1054 q 769 1117 736 1085 q 815 1164 801 1150 q 830 1177 821 1171 q 847 1183 839 1183 q 877 1175 868 1183 q 886 1161 886 1167 q 867 1143 886 1158 q 826 1112 849 1128 q 790 1088 803 1096 q 765 1071 782 1082 q 733 1051 749 1060 q 714 1042 718 1043 z "},"Ã":{"ha":625,"x_min":-1,"x_max":832,"o":"m 61 -12 q 19 15 29 -6 q 8 58 8 35 q 28 122 8 89 q 63 171 47 154 q 15 190 32 172 q -1 219 -1 207 q 7 229 -1 229 q 19 225 14 229 q 88 213 47 213 q 142 287 104 238 q 231 398 181 336 q 338 522 282 460 q 449 638 394 585 q 551 724 504 692 q 626 757 597 757 q 676 740 654 757 q 710 707 697 724 q 724 690 724 690 q 664 580 697 653 q 601 418 631 507 q 550 244 571 329 q 588 226 571 244 q 606 189 606 208 q 585 199 606 189 q 540 206 564 208 q 530 159 536 190 q 518 92 524 128 q 513 28 513 57 q 513 10 513 18 q 515 -4 514 3 q 472 19 485 -11 q 458 93 458 50 q 476 207 458 156 q 262 185 342 201 q 150 156 182 168 q 97 69 122 117 q 61 -12 72 21 m 189 217 q 294 233 235 225 q 406 246 353 240 q 488 250 458 251 q 507 317 493 269 q 542 429 521 365 q 594 564 564 493 q 664 700 625 635 q 650 707 660 707 q 592 678 629 707 q 509 604 556 650 q 413 503 463 558 q 319 392 364 447 q 240 290 274 336 q 189 217 206 244 m 747 813 q 697 824 717 813 q 659 847 676 836 q 618 858 642 858 q 579 841 594 858 q 556 814 564 824 q 546 817 546 810 q 560 856 546 836 q 594 888 574 875 q 638 901 615 901 q 687 890 664 901 q 731 868 710 879 q 775 857 753 857 q 800 871 790 857 q 821 903 810 885 q 828 901 825 903 q 832 888 832 899 q 817 850 832 867 q 782 823 801 833 q 747 813 763 813 z "},"B":{"ha":661,"x_min":38,"x_max":817,"o":"m 181 -28 q 115 -22 149 -28 q 60 3 82 -17 q 38 67 38 24 q 60 148 38 96 q 119 260 83 200 q 193 378 156 321 q 260 474 231 435 q 319 563 293 518 q 351 642 346 607 q 324 638 350 644 q 265 632 297 632 q 235 638 243 632 q 228 654 228 644 q 231 669 228 661 q 238 686 233 676 q 370 709 299 692 q 513 742 442 726 q 646 758 585 758 q 778 716 739 758 q 817 615 817 674 q 783 520 817 564 q 697 442 750 476 q 585 382 644 407 q 471 343 525 357 q 383 328 417 329 q 488 313 439 328 q 569 269 538 299 q 601 193 601 240 q 574 110 601 146 q 502 47 546 74 q 407 4 458 21 q 308 -20 356 -12 q 226 -28 260 -28 l 181 -28 m 264 331 q 375 353 310 333 q 510 403 440 372 q 641 471 581 433 q 740 550 701 508 q 778 632 778 592 q 653 689 778 689 q 521 674 589 689 q 388 649 453 660 q 396 613 396 635 q 380 542 396 582 q 342 462 364 503 q 298 386 319 421 q 264 331 276 351 m 219 3 q 320 22 267 3 q 420 71 374 40 q 497 135 467 101 q 526 200 526 169 q 493 266 526 244 q 412 294 460 288 q 321 301 364 301 q 276 301 296 301 q 244 299 256 300 q 190 215 224 263 q 131 122 157 168 q 104 40 104 76 q 126 14 104 25 q 219 3 147 3 z "},"C":{"ha":663,"x_min":81,"x_max":742,"o":"m 292 -28 q 169 0 215 -28 q 101 76 122 28 q 81 183 81 124 q 108 337 81 257 q 185 490 136 417 q 297 623 233 564 q 433 717 360 682 q 581 751 506 751 q 703 714 664 751 q 742 624 742 676 q 733 571 742 599 q 710 508 724 540 q 685 449 696 475 q 669 413 674 424 q 639 425 647 413 q 631 458 631 438 q 640 514 631 482 q 663 576 650 546 q 676 640 676 608 q 658 694 676 672 q 600 717 640 717 q 461 678 526 717 q 342 577 396 640 q 250 439 289 514 q 190 290 211 364 q 168 156 168 215 q 197 47 168 89 q 301 4 225 4 q 472 77 393 4 q 596 264 551 150 q 613 222 613 254 q 581 122 613 168 q 498 43 549 76 q 392 -9 447 10 q 292 -28 338 -28 z "},"Ć":{"ha":663,"x_min":81,"x_max":778,"o":"m 292 -28 q 169 0 215 -28 q 101 76 122 28 q 81 183 81 124 q 108 337 81 257 q 185 490 136 417 q 297 623 233 564 q 433 717 360 682 q 581 751 506 751 q 703 714 664 751 q 742 624 742 676 q 733 571 742 599 q 710 508 724 540 q 685 449 696 475 q 669 413 674 424 q 639 425 647 413 q 631 458 631 438 q 640 514 631 482 q 663 576 650 546 q 676 640 676 608 q 658 694 676 672 q 600 717 640 717 q 461 678 526 717 q 342 577 396 640 q 250 439 289 514 q 190 290 211 364 q 168 156 168 215 q 197 47 168 89 q 301 4 225 4 q 472 77 393 4 q 596 264 551 150 q 613 222 613 254 q 581 122 613 168 q 498 43 549 76 q 392 -9 447 10 q 292 -28 338 -28 m 606 808 q 597 814 601 807 q 601 828 593 821 q 660 884 628 851 q 707 931 693 917 q 722 944 713 938 q 739 950 731 950 q 769 942 760 950 q 778 928 778 933 q 759 910 778 925 q 717 878 740 894 q 682 854 694 863 q 657 838 674 849 q 625 818 640 826 q 606 808 610 810 z "},"Č":{"ha":663,"x_min":81,"x_max":821,"o":"m 814 938 q 821 931 821 938 q 814 918 821 924 q 753 875 783 894 q 696 839 724 856 q 663 819 681 829 q 636 810 646 810 q 614 819 628 810 q 593 833 600 828 q 551 871 578 847 q 501 918 524 894 q 499 926 499 921 q 503 935 499 932 q 510 938 507 939 q 535 927 515 936 q 578 906 556 918 q 610 886 594 896 q 646 863 625 876 q 686 883 664 874 q 725 901 708 893 q 754 915 735 907 q 792 931 774 924 q 813 938 810 938 l 814 938 m 292 -28 q 169 0 215 -28 q 101 76 122 28 q 81 183 81 124 q 108 337 81 257 q 185 490 136 417 q 297 623 233 564 q 433 717 360 682 q 581 751 506 751 q 703 714 664 751 q 742 624 742 676 q 733 571 742 599 q 710 508 724 540 q 685 449 696 475 q 669 413 674 424 q 639 425 647 413 q 631 458 631 438 q 640 514 631 482 q 663 576 650 546 q 676 640 676 608 q 658 694 676 672 q 600 717 640 717 q 461 678 526 717 q 342 577 396 640 q 250 439 289 514 q 190 290 211 364 q 168 156 168 215 q 197 47 168 89 q 301 4 225 4 q 472 77 393 4 q 596 264 551 150 q 613 222 613 254 q 581 122 613 168 q 498 43 549 76 q 392 -9 447 10 q 292 -28 338 -28 z "},"Ç":{"ha":663,"x_min":63,"x_max":742,"o":"m 292 -28 q 169 0 215 -28 q 101 76 122 28 q 81 183 81 124 q 108 337 81 257 q 185 490 136 417 q 297 623 233 564 q 433 717 360 682 q 581 751 506 751 q 703 714 664 751 q 742 624 742 676 q 733 571 742 599 q 710 508 724 540 q 685 449 696 475 q 669 413 674 424 q 639 425 647 413 q 631 458 631 438 q 640 514 631 482 q 663 576 650 546 q 676 640 676 608 q 658 694 676 672 q 600 717 640 717 q 461 678 526 717 q 342 577 396 640 q 250 439 289 514 q 190 290 211 364 q 168 156 168 215 q 197 47 168 89 q 301 4 225 4 q 472 77 393 4 q 596 264 551 150 q 613 222 613 254 q 581 122 613 168 q 498 43 549 76 q 392 -9 447 10 q 292 -28 338 -28 m 117 -293 q 81 -285 96 -293 q 63 -260 65 -278 q 83 -262 71 -261 q 110 -264 96 -264 q 165 -251 138 -264 q 201 -199 193 -239 q 197 -164 206 -178 q 177 -135 188 -150 q 167 -94 167 -119 q 201 -31 167 -50 q 278 -11 235 -11 q 290 -19 290 -11 q 242 -35 260 -25 q 224 -75 224 -46 q 232 -108 224 -94 q 248 -136 240 -122 q 256 -172 256 -150 q 233 -237 256 -210 q 178 -278 210 -264 q 117 -293 146 -293 z "},"Ĉ":{"ha":663,"x_min":81,"x_max":803,"o":"m 292 -28 q 169 0 215 -28 q 101 76 122 28 q 81 183 81 124 q 108 337 81 257 q 185 490 136 417 q 297 623 233 564 q 433 717 360 682 q 581 751 506 751 q 703 714 664 751 q 742 624 742 676 q 733 571 742 599 q 710 508 724 540 q 685 449 696 475 q 669 413 674 424 q 639 425 647 413 q 631 458 631 438 q 640 514 631 482 q 663 576 650 546 q 676 640 676 608 q 658 694 676 672 q 600 717 640 717 q 461 678 526 717 q 342 577 396 640 q 250 439 289 514 q 190 290 211 364 q 168 156 168 215 q 197 47 168 89 q 301 4 225 4 q 472 77 393 4 q 596 264 551 150 q 613 222 613 254 q 581 122 613 168 q 498 43 549 76 q 392 -9 447 10 q 292 -28 338 -28 m 488 803 q 481 810 481 803 q 488 822 481 817 q 548 865 518 846 q 606 901 578 885 q 638 921 621 911 q 665 931 656 931 q 688 922 674 931 q 708 907 703 914 q 751 869 724 893 q 800 822 778 846 q 803 814 803 819 q 799 805 803 808 q 792 803 794 801 q 766 813 786 804 q 724 835 746 822 q 692 854 707 844 q 656 878 676 864 q 615 858 638 868 q 576 839 593 847 q 547 826 567 835 q 510 811 528 818 q 489 803 493 804 l 488 803 z "},"Ċ":{"ha":663,"x_min":81,"x_max":742,"o":"m 292 -28 q 169 0 215 -28 q 101 76 122 28 q 81 183 81 124 q 108 337 81 257 q 185 490 136 417 q 297 623 233 564 q 433 717 360 682 q 581 751 506 751 q 703 714 664 751 q 742 624 742 676 q 733 571 742 599 q 710 508 724 540 q 685 449 696 475 q 669 413 674 424 q 639 425 647 413 q 631 458 631 438 q 640 514 631 482 q 663 576 650 546 q 676 640 676 608 q 658 694 676 672 q 600 717 640 717 q 461 678 526 717 q 342 577 396 640 q 250 439 289 514 q 190 290 211 364 q 168 156 168 215 q 197 47 168 89 q 301 4 225 4 q 472 77 393 4 q 596 264 551 150 q 613 222 613 254 q 581 122 613 168 q 498 43 549 76 q 392 -9 447 10 q 292 -28 338 -28 m 651 808 q 628 816 636 808 q 614 833 619 824 q 611 846 611 838 q 615 860 611 853 q 624 871 619 868 q 665 899 644 889 q 693 904 671 904 q 704 892 710 904 q 692 860 696 881 q 680 824 688 840 q 651 808 672 808 z "},"D":{"ha":693,"x_min":15,"x_max":793,"o":"m 151 -35 q 99 -27 121 -35 q 65 -1 76 -19 q 31 14 47 -1 q 15 65 15 29 q 59 192 15 125 q 163 358 103 258 q 201 416 176 382 q 251 489 225 450 q 297 566 276 528 q 324 633 317 604 q 292 628 310 632 q 261 624 275 625 q 251 622 256 622 q 243 622 247 622 q 208 632 217 622 q 200 654 200 642 q 200 674 200 667 q 307 690 249 678 q 456 725 382 704 q 610 746 531 746 q 744 710 696 746 q 793 590 793 674 q 763 447 793 524 q 681 296 732 371 q 564 157 629 221 q 428 51 499 93 q 340 8 389 28 q 242 -23 292 -11 q 151 -35 193 -35 m 153 4 q 301 38 231 4 q 432 126 371 72 q 540 242 493 181 q 601 326 568 276 q 665 428 635 375 q 716 531 696 482 q 736 615 736 581 q 721 665 736 647 q 665 683 706 683 q 584 676 636 683 q 475 660 532 669 q 374 643 418 651 q 381 618 381 632 q 362 546 381 589 q 316 457 343 503 q 263 371 289 411 q 222 307 238 331 q 152 194 188 256 q 96 72 117 133 q 90 42 90 57 q 104 14 90 24 q 153 4 118 4 z "},"Ǆ":{"ha":1158,"x_min":15,"x_max":1321,"o":"m 1314 901 q 1321 894 1321 901 q 1314 882 1321 888 q 1253 839 1283 858 q 1196 803 1224 819 q 1163 783 1181 793 q 1136 774 1146 774 q 1114 783 1128 774 q 1093 797 1100 792 q 1051 835 1078 811 q 1001 882 1024 858 q 999 890 999 885 q 1003 899 999 896 q 1010 901 1007 903 q 1035 891 1015 900 q 1078 869 1056 882 q 1110 850 1094 860 q 1146 826 1125 840 q 1186 847 1164 838 q 1225 865 1208 857 q 1254 879 1235 871 q 1292 894 1274 888 q 1313 901 1310 901 l 1314 901 m 151 -35 q 99 -27 121 -35 q 65 -1 76 -19 q 31 14 47 -1 q 15 65 15 29 q 59 192 15 125 q 163 358 103 258 q 201 416 176 382 q 251 489 225 450 q 297 566 276 528 q 324 633 317 604 q 292 628 310 632 q 261 624 275 625 q 251 622 256 622 q 243 622 247 622 q 208 632 217 622 q 200 654 200 642 q 200 674 200 667 q 307 690 249 678 q 456 725 382 704 q 610 746 531 746 q 744 710 696 746 q 793 590 793 674 q 763 447 793 524 q 681 296 732 371 q 564 157 629 221 q 428 51 499 93 q 340 8 389 28 q 242 -23 292 -11 q 151 -35 193 -35 m 153 4 q 301 38 231 4 q 432 126 371 72 q 540 242 493 181 q 601 326 568 276 q 665 428 635 375 q 716 531 696 482 q 736 615 736 581 q 721 665 736 647 q 665 683 706 683 q 584 676 636 683 q 475 660 532 669 q 374 643 418 651 q 381 618 381 632 q 362 546 381 589 q 316 457 343 503 q 263 371 289 411 q 222 307 238 331 q 152 194 188 256 q 96 72 117 133 q 90 42 90 57 q 104 14 90 24 q 153 4 118 4 m 760 -15 q 705 16 725 -15 q 685 82 685 47 q 710 144 685 108 q 775 219 735 179 q 861 300 815 260 q 949 376 907 340 q 1058 479 1000 424 q 1170 590 1117 535 q 1257 689 1224 644 q 1105 662 1164 679 q 1003 644 1046 644 q 928 669 954 644 q 908 710 903 694 q 947 702 922 704 q 997 700 971 700 q 1037 701 1017 700 q 1075 706 1057 703 q 1167 722 1118 713 q 1264 731 1217 731 q 1303 713 1288 731 q 1318 667 1318 694 q 1297 618 1318 644 q 1246 567 1275 592 q 1196 521 1217 542 q 1106 435 1157 483 q 1001 335 1056 386 q 899 236 947 283 q 818 153 851 189 q 775 100 785 117 q 761 61 761 76 q 774 40 761 46 q 803 33 786 33 q 818 34 810 33 q 833 36 826 35 q 897 49 857 40 q 976 64 938 57 q 1032 71 1014 71 q 1108 56 1085 71 q 1132 -1 1132 40 q 1082 7 1115 3 q 1019 8 1049 11 q 926 -1 975 4 q 834 -11 878 -7 q 760 -15 790 -15 z "},"Ď":{"ha":693,"x_min":15,"x_max":799,"o":"m 792 932 q 799 925 799 932 q 792 913 799 918 q 731 869 761 889 q 674 833 701 850 q 641 814 658 824 q 614 804 624 804 q 592 813 606 804 q 571 828 578 822 q 528 865 556 842 q 479 913 501 889 q 476 921 476 915 q 481 930 476 926 q 488 932 485 933 q 513 922 493 931 q 556 900 533 913 q 588 881 572 890 q 624 857 603 871 q 664 878 642 868 q 703 896 686 888 q 732 910 713 901 q 769 925 751 918 q 790 932 788 932 l 792 932 m 151 -35 q 99 -27 121 -35 q 65 -1 76 -19 q 31 14 47 -1 q 15 65 15 29 q 59 192 15 125 q 163 358 103 258 q 201 416 176 382 q 251 489 225 450 q 297 566 276 528 q 324 633 317 604 q 292 628 310 632 q 261 624 275 625 q 251 622 256 622 q 243 622 247 622 q 208 632 217 622 q 200 654 200 642 q 200 674 200 667 q 307 690 249 678 q 456 725 382 704 q 610 746 531 746 q 744 710 696 746 q 793 590 793 674 q 763 447 793 524 q 681 296 732 371 q 564 157 629 221 q 428 51 499 93 q 340 8 389 28 q 242 -23 292 -11 q 151 -35 193 -35 m 153 4 q 301 38 231 4 q 432 126 371 72 q 540 242 493 181 q 601 326 568 276 q 665 428 635 375 q 716 531 696 482 q 736 615 736 581 q 721 665 736 647 q 665 683 706 683 q 584 676 636 683 q 475 660 532 669 q 374 643 418 651 q 381 618 381 632 q 362 546 381 589 q 316 457 343 503 q 263 371 289 411 q 222 307 238 331 q 152 194 188 256 q 96 72 117 133 q 90 42 90 57 q 104 14 90 24 q 153 4 118 4 z "},"Đ":{"ha":693,"x_min":15,"x_max":793,"o":"m 151 -35 q 99 -27 121 -35 q 65 -1 76 -19 q 31 14 47 -1 q 15 65 15 29 q 59 192 15 125 q 163 358 103 258 q 201 416 176 382 q 251 489 225 450 q 297 566 276 528 q 324 633 317 604 q 292 628 310 632 q 261 624 275 625 q 251 622 256 622 q 243 622 247 622 q 208 632 217 622 q 200 654 200 642 q 200 674 200 667 q 307 690 249 678 q 456 725 382 704 q 610 746 531 746 q 744 710 696 746 q 793 590 793 674 q 763 447 793 524 q 681 296 732 371 q 564 157 629 221 q 428 51 499 93 q 340 8 389 28 q 242 -23 292 -11 q 151 -35 193 -35 m 153 4 q 301 38 231 4 q 432 126 371 72 q 540 242 493 181 q 601 326 568 276 q 665 428 635 375 q 716 531 696 482 q 736 615 736 581 q 721 665 736 647 q 665 683 706 683 q 584 676 636 683 q 475 660 532 669 q 374 643 418 651 q 381 618 381 632 q 362 546 381 589 q 316 457 343 503 q 263 371 289 411 q 222 307 238 331 q 152 194 188 256 q 96 72 117 133 q 90 42 90 57 q 104 14 90 24 q 153 4 118 4 m 481 581 q 453 586 472 585 q 411 588 435 588 q 319 585 368 588 q 246 582 269 582 q 217 601 218 582 q 215 638 215 621 q 244 633 226 635 q 283 632 263 632 q 374 635 326 632 q 451 638 421 638 q 478 618 475 638 q 481 581 481 599 z "},"Δ":{"ha":685,"x_min":93,"x_max":619,"o":"m 121 -12 q 101 3 110 -12 q 93 28 93 18 q 113 63 93 29 q 163 150 132 97 q 227 261 193 203 q 292 372 261 319 q 342 458 322 425 q 364 492 363 492 q 382 516 368 503 q 406 529 396 529 q 418 524 413 529 l 618 75 l 619 65 q 600 19 618 39 q 563 -12 582 -1 l 121 -12 m 154 49 l 539 49 l 375 425 l 154 49 z "},"ǅ":{"ha":1143,"x_min":15,"x_max":1235,"o":"m 151 -35 q 99 -27 121 -35 q 65 -1 76 -19 q 31 14 47 -1 q 15 65 15 29 q 59 192 15 125 q 163 358 103 258 q 201 416 176 382 q 251 489 225 450 q 297 566 276 528 q 324 633 317 604 q 292 628 310 632 q 261 624 275 625 q 251 622 256 622 q 243 622 247 622 q 208 632 217 622 q 200 654 200 642 q 200 674 200 667 q 307 690 249 678 q 456 725 382 704 q 610 746 531 746 q 744 710 696 746 q 793 590 793 674 q 763 447 793 524 q 681 296 732 371 q 564 157 629 221 q 428 51 499 93 q 340 8 389 28 q 242 -23 292 -11 q 151 -35 193 -35 m 153 4 q 301 38 231 4 q 432 126 371 72 q 540 242 493 181 q 601 326 568 276 q 665 428 635 375 q 716 531 696 482 q 736 615 736 581 q 721 665 736 647 q 665 683 706 683 q 584 676 636 683 q 475 660 532 669 q 374 643 418 651 q 381 618 381 632 q 362 546 381 589 q 316 457 343 503 q 263 371 289 411 q 222 307 238 331 q 152 194 188 256 q 96 72 117 133 q 90 42 90 57 q 104 14 90 24 q 153 4 118 4 m 718 -26 q 708 -12 708 -26 q 729 29 708 1 q 782 92 750 57 q 850 165 814 128 q 917 231 886 201 q 967 279 949 261 q 1034 347 1000 311 q 1097 413 1068 383 q 1070 414 1090 413 q 1026 415 1050 415 q 1004 415 1015 415 q 983 413 993 415 q 899 375 933 404 q 835 306 864 346 q 779 225 807 267 q 715 147 751 183 q 704 142 710 142 q 696 148 699 142 q 699 160 693 154 q 764 257 735 203 q 822 361 793 311 q 888 442 851 411 q 976 468 925 472 q 1043 463 1013 465 q 1100 461 1074 461 q 1154 463 1129 461 q 1200 467 1179 465 q 1088 360 1144 415 q 990 265 1031 306 q 904 181 951 226 q 826 99 857 135 q 833 100 829 100 q 840 100 838 100 q 901 82 876 100 q 933 63 913 76 q 983 50 953 50 q 1019 56 1000 50 q 1060 79 1038 63 q 1085 98 1068 85 q 1119 127 1101 111 q 1149 156 1138 143 q 1176 185 1164 171 q 1200 214 1189 199 q 1207 218 1203 218 q 1215 207 1215 218 q 1208 193 1215 200 q 1179 156 1194 175 q 1147 119 1164 138 q 1119 91 1142 113 q 1069 45 1097 69 q 1015 4 1040 21 q 981 -15 997 -10 q 950 -19 964 -19 q 892 -1 915 -19 q 850 22 869 18 q 838 24 844 24 q 825 25 832 25 q 740 -12 774 25 q 718 -26 726 -26 m 1063 533 q 1045 540 1054 533 q 1031 551 1036 546 q 992 598 1019 565 q 943 654 964 631 q 940 663 940 657 q 944 672 940 668 q 951 675 949 675 q 969 665 956 674 q 997 645 982 656 q 1018 629 1011 635 q 1043 610 1028 622 q 1072 585 1058 597 q 1112 610 1092 597 q 1142 629 1132 622 q 1170 645 1151 635 q 1206 665 1189 656 q 1226 675 1224 674 q 1235 667 1235 675 q 1228 654 1235 661 q 1183 618 1208 639 q 1137 579 1158 597 q 1104 551 1115 561 q 1063 533 1085 533 z "},"E":{"ha":501,"x_min":47,"x_max":700,"o":"m 157 4 q 92 19 117 4 q 58 53 68 33 q 47 90 47 74 q 86 244 47 160 q 178 408 125 328 q 265 531 221 475 q 344 626 310 588 q 389 674 378 664 q 354 683 371 674 q 338 704 338 692 q 349 718 338 711 q 392 729 361 725 q 483 738 438 736 q 567 741 529 740 q 625 742 606 742 q 689 725 678 742 q 700 681 700 708 q 663 685 689 683 q 607 686 638 686 q 563 686 585 686 q 521 683 540 686 q 469 674 493 681 q 429 653 444 667 q 399 615 419 643 q 353 551 378 588 q 303 476 328 514 q 261 406 279 438 q 238 358 243 375 q 298 370 260 363 q 383 378 336 378 q 449 339 449 378 q 444 321 449 332 l 218 321 q 206 299 219 324 q 176 238 193 275 q 145 161 158 200 q 132 93 132 122 q 158 67 132 67 q 252 78 203 67 q 354 90 301 90 q 420 83 392 90 q 450 43 449 76 q 441 44 446 44 q 431 44 436 44 q 365 38 404 44 q 284 24 325 32 q 208 10 243 17 q 157 4 174 4 z "},"É":{"ha":501,"x_min":47,"x_max":700,"o":"m 157 4 q 92 19 117 4 q 58 53 68 33 q 47 90 47 74 q 86 244 47 160 q 178 408 125 328 q 265 531 221 475 q 344 626 310 588 q 389 674 378 664 q 354 683 371 674 q 338 704 338 692 q 349 718 338 711 q 392 729 361 725 q 483 738 438 736 q 567 741 529 740 q 625 742 606 742 q 689 725 678 742 q 700 681 700 708 q 663 685 689 683 q 607 686 638 686 q 563 686 585 686 q 521 683 540 686 q 469 674 493 681 q 429 653 444 667 q 399 615 419 643 q 353 551 378 588 q 303 476 328 514 q 261 406 279 438 q 238 358 243 375 q 298 370 260 363 q 383 378 336 378 q 449 339 449 378 q 444 321 449 332 l 218 321 q 206 299 219 324 q 176 238 193 275 q 145 161 158 200 q 132 93 132 122 q 158 67 132 67 q 252 78 203 67 q 354 90 301 90 q 420 83 392 90 q 450 43 449 76 q 441 44 446 44 q 431 44 436 44 q 365 38 404 44 q 284 24 325 32 q 208 10 243 17 q 157 4 174 4 m 508 799 q 500 804 504 797 q 504 818 496 811 q 563 874 531 842 q 610 921 596 907 q 624 934 615 928 q 642 940 633 940 q 672 932 663 940 q 681 918 681 924 q 662 900 681 915 q 620 869 643 885 q 585 844 597 853 q 560 828 576 839 q 528 808 543 817 q 508 799 513 800 z "},"Ĕ":{"ha":501,"x_min":47,"x_max":726,"o":"m 157 4 q 92 19 117 4 q 58 53 68 33 q 47 90 47 74 q 86 244 47 160 q 178 408 125 328 q 265 531 221 475 q 344 626 310 588 q 389 674 378 664 q 354 683 371 674 q 338 704 338 692 q 349 718 338 711 q 392 729 361 725 q 483 738 438 736 q 567 741 529 740 q 625 742 606 742 q 689 725 678 742 q 700 681 700 708 q 663 685 689 683 q 607 686 638 686 q 563 686 585 686 q 521 683 540 686 q 469 674 493 681 q 429 653 444 667 q 399 615 419 643 q 353 551 378 588 q 303 476 328 514 q 261 406 279 438 q 238 358 243 375 q 298 370 260 363 q 383 378 336 378 q 449 339 449 378 q 444 321 449 332 l 218 321 q 206 299 219 324 q 176 238 193 275 q 145 161 158 200 q 132 93 132 122 q 158 67 132 67 q 252 78 203 67 q 354 90 301 90 q 420 83 392 90 q 450 43 449 76 q 441 44 446 44 q 431 44 436 44 q 365 38 404 44 q 284 24 325 32 q 208 10 243 17 q 157 4 174 4 m 538 800 q 463 824 490 800 q 436 879 436 849 q 460 931 436 931 q 469 918 469 931 q 491 870 469 888 q 546 853 513 853 q 597 856 568 853 q 652 873 625 860 q 694 915 679 886 q 705 930 701 926 q 714 933 708 933 q 722 922 726 933 q 651 828 700 856 q 538 800 601 800 z "},"Ě":{"ha":501,"x_min":47,"x_max":724,"o":"m 717 928 q 724 921 724 928 q 717 908 724 914 q 656 865 686 885 q 599 829 626 846 q 566 810 583 819 q 539 800 549 800 q 517 809 531 800 q 496 824 503 818 q 453 861 481 838 q 404 908 426 885 q 401 917 401 911 q 406 926 401 922 q 413 928 410 929 q 438 917 418 926 q 481 896 458 908 q 513 876 497 886 q 549 853 528 867 q 589 874 567 864 q 628 892 611 883 q 657 906 638 897 q 694 921 676 914 q 715 928 713 928 l 717 928 m 157 4 q 92 19 117 4 q 58 53 68 33 q 47 90 47 74 q 86 244 47 160 q 178 408 125 328 q 265 531 221 475 q 344 626 310 588 q 389 674 378 664 q 354 683 371 674 q 338 704 338 692 q 349 718 338 711 q 392 729 361 725 q 483 738 438 736 q 567 741 529 740 q 625 742 606 742 q 689 725 678 742 q 700 681 700 708 q 663 685 689 683 q 607 686 638 686 q 563 686 585 686 q 521 683 540 686 q 469 674 493 681 q 429 653 444 667 q 399 615 419 643 q 353 551 378 588 q 303 476 328 514 q 261 406 279 438 q 238 358 243 375 q 298 370 260 363 q 383 378 336 378 q 449 339 449 378 q 444 321 449 332 l 218 321 q 206 299 219 324 q 176 238 193 275 q 145 161 158 200 q 132 93 132 122 q 158 67 132 67 q 252 78 203 67 q 354 90 301 90 q 420 83 392 90 q 450 43 449 76 q 441 44 446 44 q 431 44 436 44 q 365 38 404 44 q 284 24 325 32 q 208 10 243 17 q 157 4 174 4 z "},"Ê":{"ha":501,"x_min":47,"x_max":706,"o":"m 157 4 q 92 19 117 4 q 58 53 68 33 q 47 90 47 74 q 86 244 47 160 q 178 408 125 328 q 265 531 221 475 q 344 626 310 588 q 389 674 378 664 q 354 683 371 674 q 338 704 338 692 q 349 718 338 711 q 392 729 361 725 q 483 738 438 736 q 567 741 529 740 q 625 742 606 742 q 689 725 678 742 q 700 681 700 708 q 663 685 689 683 q 607 686 638 686 q 563 686 585 686 q 521 683 540 686 q 469 674 493 681 q 429 653 444 667 q 399 615 419 643 q 353 551 378 588 q 303 476 328 514 q 261 406 279 438 q 238 358 243 375 q 298 370 260 363 q 383 378 336 378 q 449 339 449 378 q 444 321 449 332 l 218 321 q 206 299 219 324 q 176 238 193 275 q 145 161 158 200 q 132 93 132 122 q 158 67 132 67 q 252 78 203 67 q 354 90 301 90 q 420 83 392 90 q 450 43 449 76 q 441 44 446 44 q 431 44 436 44 q 365 38 404 44 q 284 24 325 32 q 208 10 243 17 q 157 4 174 4 m 390 793 q 383 800 383 793 q 390 813 383 807 q 451 856 421 836 q 508 892 481 875 q 541 911 524 901 q 568 921 558 921 q 591 913 576 921 q 611 897 606 904 q 653 860 626 883 q 703 813 681 836 q 706 804 706 810 q 701 795 706 799 q 694 793 697 792 q 669 803 689 794 q 626 825 649 813 q 594 844 610 835 q 558 868 579 854 q 518 848 540 858 q 479 829 496 838 q 450 817 469 825 q 413 801 431 808 q 392 793 396 794 l 390 793 z "},"Ế":{"ha":501,"x_min":47,"x_max":844,"o":"m 157 4 q 92 19 117 4 q 58 53 68 33 q 47 90 47 74 q 86 244 47 160 q 178 408 125 328 q 265 531 221 475 q 344 626 310 588 q 389 674 378 664 q 354 683 371 674 q 338 704 338 692 q 349 718 338 711 q 392 729 361 725 q 483 738 438 736 q 567 741 529 740 q 625 742 606 742 q 689 725 678 742 q 700 681 700 708 q 663 685 689 683 q 607 686 638 686 q 563 686 585 686 q 521 683 540 686 q 469 674 493 681 q 429 653 444 667 q 399 615 419 643 q 353 551 378 588 q 303 476 328 514 q 261 406 279 438 q 238 358 243 375 q 298 370 260 363 q 383 378 336 378 q 449 339 449 378 q 444 321 449 332 l 218 321 q 206 299 219 324 q 176 238 193 275 q 145 161 158 200 q 132 93 132 122 q 158 67 132 67 q 252 78 203 67 q 354 90 301 90 q 420 83 392 90 q 450 43 449 76 q 441 44 446 44 q 431 44 436 44 q 365 38 404 44 q 284 24 325 32 q 208 10 243 17 q 157 4 174 4 m 390 793 q 383 800 383 793 q 390 813 383 807 q 451 856 421 836 q 508 892 481 875 q 541 911 524 901 q 568 921 558 921 q 591 913 576 921 q 611 897 606 904 q 653 860 626 883 q 703 813 681 836 q 706 804 706 810 q 701 795 706 799 q 694 793 697 792 q 669 803 689 794 q 626 825 649 813 q 594 844 610 835 q 558 868 579 854 q 518 848 540 858 q 479 829 496 838 q 450 817 469 825 q 413 801 431 808 q 392 793 396 794 l 390 793 m 672 926 q 664 932 668 925 q 668 946 660 939 q 727 1002 694 969 q 774 1049 760 1035 q 788 1062 779 1056 q 806 1068 797 1068 q 835 1060 826 1068 q 844 1046 844 1051 q 826 1028 844 1043 q 784 997 807 1013 q 749 972 761 981 q 724 956 740 967 q 692 936 707 944 q 672 926 676 928 z "},"Ệ":{"ha":501,"x_min":47,"x_max":706,"o":"m 157 4 q 92 19 117 4 q 58 53 68 33 q 47 90 47 74 q 86 244 47 160 q 178 408 125 328 q 265 531 221 475 q 344 626 310 588 q 389 674 378 664 q 354 683 371 674 q 338 704 338 692 q 349 718 338 711 q 392 729 361 725 q 483 738 438 736 q 567 741 529 740 q 625 742 606 742 q 689 725 678 742 q 700 681 700 708 q 663 685 689 683 q 607 686 638 686 q 563 686 585 686 q 521 683 540 686 q 469 674 493 681 q 429 653 444 667 q 399 615 419 643 q 353 551 378 588 q 303 476 328 514 q 261 406 279 438 q 238 358 243 375 q 298 370 260 363 q 383 378 336 378 q 449 339 449 378 q 444 321 449 332 l 218 321 q 206 299 219 324 q 176 238 193 275 q 145 161 158 200 q 132 93 132 122 q 158 67 132 67 q 252 78 203 67 q 354 90 301 90 q 420 83 392 90 q 450 43 449 76 q 441 44 446 44 q 431 44 436 44 q 365 38 404 44 q 284 24 325 32 q 208 10 243 17 q 157 4 174 4 m 200 -146 q 178 -140 186 -146 q 167 -125 171 -133 q 164 -114 164 -121 q 175 -90 164 -99 q 213 -65 192 -75 q 222 -63 214 -65 q 238 -61 229 -61 q 247 -72 253 -61 q 237 -100 240 -82 q 226 -132 233 -118 q 200 -146 219 -146 m 390 793 q 383 800 383 793 q 390 813 383 807 q 451 856 421 836 q 508 892 481 875 q 541 911 524 901 q 568 921 558 921 q 591 913 576 921 q 611 897 606 904 q 653 860 626 883 q 703 813 681 836 q 706 804 706 810 q 701 795 706 799 q 694 793 697 792 q 669 803 689 794 q 626 825 649 813 q 594 844 610 835 q 558 868 579 854 q 518 848 540 858 q 479 829 496 838 q 450 817 469 825 q 413 801 431 808 q 392 793 396 794 l 390 793 z "},"Ề":{"ha":501,"x_min":47,"x_max":736,"o":"m 157 4 q 92 19 117 4 q 58 53 68 33 q 47 90 47 74 q 86 244 47 160 q 178 408 125 328 q 265 531 221 475 q 344 626 310 588 q 389 674 378 664 q 354 683 371 674 q 338 704 338 692 q 349 718 338 711 q 392 729 361 725 q 483 738 438 736 q 567 741 529 740 q 625 742 606 742 q 689 725 678 742 q 700 681 700 708 q 663 685 689 683 q 607 686 638 686 q 563 686 585 686 q 521 683 540 686 q 469 674 493 681 q 429 653 444 667 q 399 615 419 643 q 353 551 378 588 q 303 476 328 514 q 261 406 279 438 q 238 358 243 375 q 298 370 260 363 q 383 378 336 378 q 449 339 449 378 q 444 321 449 332 l 218 321 q 206 299 219 324 q 176 238 193 275 q 145 161 158 200 q 132 93 132 122 q 158 67 132 67 q 252 78 203 67 q 354 90 301 90 q 420 83 392 90 q 450 43 449 76 q 441 44 446 44 q 431 44 436 44 q 365 38 404 44 q 284 24 325 32 q 208 10 243 17 q 157 4 174 4 m 390 793 q 383 800 383 793 q 390 813 383 807 q 451 856 421 836 q 508 892 481 875 q 541 911 524 901 q 568 921 558 921 q 591 913 576 921 q 611 897 606 904 q 653 860 626 883 q 703 813 681 836 q 706 804 706 810 q 701 795 706 799 q 694 793 697 792 q 669 803 689 794 q 626 825 649 813 q 594 844 610 835 q 558 868 579 854 q 518 848 540 858 q 479 829 496 838 q 450 817 469 825 q 413 801 431 808 q 392 793 396 794 l 390 793 m 725 922 q 707 933 722 924 q 675 952 692 942 q 650 968 658 963 q 615 992 638 976 q 573 1024 592 1008 q 553 1042 554 1039 q 563 1055 553 1047 q 590 1064 572 1063 l 593 1064 q 610 1058 601 1064 q 625 1044 619 1051 q 653 1018 635 1036 q 692 979 671 1000 q 731 942 714 958 q 736 932 736 938 q 732 924 736 928 q 725 922 728 921 z "},"Ể":{"ha":501,"x_min":47,"x_max":821,"o":"m 157 4 q 92 19 117 4 q 58 53 68 33 q 47 90 47 74 q 86 244 47 160 q 178 408 125 328 q 265 531 221 475 q 344 626 310 588 q 389 674 378 664 q 354 683 371 674 q 338 704 338 692 q 349 718 338 711 q 392 729 361 725 q 483 738 438 736 q 567 741 529 740 q 625 742 606 742 q 689 725 678 742 q 700 681 700 708 q 663 685 689 683 q 607 686 638 686 q 563 686 585 686 q 521 683 540 686 q 469 674 493 681 q 429 653 444 667 q 399 615 419 643 q 353 551 378 588 q 303 476 328 514 q 261 406 279 438 q 238 358 243 375 q 298 370 260 363 q 383 378 336 378 q 449 339 449 378 q 444 321 449 332 l 218 321 q 206 299 219 324 q 176 238 193 275 q 145 161 158 200 q 132 93 132 122 q 158 67 132 67 q 252 78 203 67 q 354 90 301 90 q 420 83 392 90 q 450 43 449 76 q 441 44 446 44 q 431 44 436 44 q 365 38 404 44 q 284 24 325 32 q 208 10 243 17 q 157 4 174 4 m 390 793 q 383 800 383 793 q 390 813 383 807 q 451 856 421 836 q 508 892 481 875 q 541 911 524 901 q 568 921 558 921 q 591 913 576 921 q 611 897 606 904 q 653 860 626 883 q 703 813 681 836 q 706 804 706 810 q 701 795 706 799 q 694 793 697 792 q 669 803 689 794 q 626 825 649 813 q 594 844 610 835 q 558 868 579 854 q 518 848 540 858 q 479 829 496 838 q 450 817 469 825 q 413 801 431 808 q 392 793 396 794 l 390 793 m 735 888 q 716 880 725 881 q 714 889 707 879 q 744 929 733 917 q 763 960 754 942 q 768 976 767 968 q 769 989 769 983 q 756 1016 769 1008 q 724 1024 743 1024 q 669 1010 693 1024 q 656 1006 664 1006 q 649 1011 649 1006 q 661 1029 649 1018 q 701 1053 679 1044 q 751 1063 722 1063 q 805 1047 789 1063 q 821 1008 821 1032 q 806 956 821 983 q 769 912 788 925 q 735 888 750 899 z "},"Ễ":{"ha":501,"x_min":47,"x_max":751,"o":"m 157 4 q 92 19 117 4 q 58 53 68 33 q 47 90 47 74 q 86 244 47 160 q 178 408 125 328 q 265 531 221 475 q 344 626 310 588 q 389 674 378 664 q 354 683 371 674 q 338 704 338 692 q 349 718 338 711 q 392 729 361 725 q 483 738 438 736 q 567 741 529 740 q 625 742 606 742 q 689 725 678 742 q 700 681 700 708 q 663 685 689 683 q 607 686 638 686 q 563 686 585 686 q 521 683 540 686 q 469 674 493 681 q 429 653 444 667 q 399 615 419 643 q 353 551 378 588 q 303 476 328 514 q 261 406 279 438 q 238 358 243 375 q 298 370 260 363 q 383 378 336 378 q 449 339 449 378 q 444 321 449 332 l 218 321 q 206 299 219 324 q 176 238 193 275 q 145 161 158 200 q 132 93 132 122 q 158 67 132 67 q 252 78 203 67 q 354 90 301 90 q 420 83 392 90 q 450 43 449 76 q 441 44 446 44 q 431 44 436 44 q 365 38 404 44 q 284 24 325 32 q 208 10 243 17 q 157 4 174 4 m 390 793 q 383 800 383 793 q 390 813 383 807 q 451 856 421 836 q 508 892 481 875 q 541 911 524 901 q 568 921 558 921 q 591 913 576 921 q 611 897 606 904 q 653 860 626 883 q 703 813 681 836 q 706 804 706 810 q 701 795 706 799 q 694 793 697 792 q 669 803 689 794 q 626 825 649 813 q 594 844 610 835 q 558 868 579 854 q 518 848 540 858 q 479 829 496 838 q 450 817 469 825 q 413 801 431 808 q 392 793 396 794 l 390 793 m 667 963 q 616 974 636 963 q 578 997 596 986 q 538 1008 561 1008 q 499 991 514 1008 q 475 964 483 974 q 465 967 465 960 q 479 1006 465 986 q 514 1038 493 1025 q 557 1051 535 1051 q 606 1040 583 1051 q 651 1018 629 1029 q 694 1007 672 1007 q 719 1021 710 1007 q 740 1053 729 1035 q 748 1051 744 1053 q 751 1038 751 1049 q 736 1000 751 1017 q 701 973 721 983 q 667 963 682 963 z "},"Ȅ":{"ha":501,"x_min":47,"x_max":700,"o":"m 157 4 q 92 19 117 4 q 58 53 68 33 q 47 90 47 74 q 86 244 47 160 q 178 408 125 328 q 265 531 221 475 q 344 626 310 588 q 389 674 378 664 q 354 683 371 674 q 338 704 338 692 q 349 718 338 711 q 392 729 361 725 q 483 738 438 736 q 567 741 529 740 q 625 742 606 742 q 689 725 678 742 q 700 681 700 708 q 663 685 689 683 q 607 686 638 686 q 563 686 585 686 q 521 683 540 686 q 469 674 493 681 q 429 653 444 667 q 399 615 419 643 q 353 551 378 588 q 303 476 328 514 q 261 406 279 438 q 238 358 243 375 q 298 370 260 363 q 383 378 336 378 q 449 339 449 378 q 444 321 449 332 l 218 321 q 206 299 219 324 q 176 238 193 275 q 145 161 158 200 q 132 93 132 122 q 158 67 132 67 q 252 78 203 67 q 354 90 301 90 q 420 83 392 90 q 450 43 449 76 q 441 44 446 44 q 431 44 436 44 q 365 38 404 44 q 284 24 325 32 q 208 10 243 17 q 157 4 174 4 m 558 793 q 543 808 556 796 q 518 836 531 821 q 500 860 506 851 q 473 893 490 871 q 442 935 456 915 q 428 958 428 956 q 454 971 431 971 q 469 968 458 971 q 486 958 479 967 q 499 939 493 949 q 530 882 508 922 q 569 810 551 842 q 571 801 571 807 q 566 794 571 796 q 558 793 561 792 m 458 800 q 442 813 456 801 q 415 839 429 825 q 394 861 401 853 q 365 892 385 872 q 330 931 346 913 q 314 953 314 950 q 326 964 315 958 q 356 967 338 969 q 373 957 365 965 q 386 940 381 949 q 422 886 397 925 q 468 818 447 847 q 471 810 471 815 q 467 801 471 804 q 458 800 463 799 z "},"Ë":{"ha":501,"x_min":47,"x_max":700,"o":"m 157 4 q 92 19 117 4 q 58 53 68 33 q 47 90 47 74 q 86 244 47 160 q 178 408 125 328 q 265 531 221 475 q 344 626 310 588 q 389 674 378 664 q 354 683 371 674 q 338 704 338 692 q 349 718 338 711 q 392 729 361 725 q 483 738 438 736 q 567 741 529 740 q 625 742 606 742 q 689 725 678 742 q 700 681 700 708 q 663 685 689 683 q 607 686 638 686 q 563 686 585 686 q 521 683 540 686 q 469 674 493 681 q 429 653 444 667 q 399 615 419 643 q 353 551 378 588 q 303 476 328 514 q 261 406 279 438 q 238 358 243 375 q 298 370 260 363 q 383 378 336 378 q 449 339 449 378 q 444 321 449 332 l 218 321 q 206 299 219 324 q 176 238 193 275 q 145 161 158 200 q 132 93 132 122 q 158 67 132 67 q 252 78 203 67 q 354 90 301 90 q 420 83 392 90 q 450 43 449 76 q 441 44 446 44 q 431 44 436 44 q 365 38 404 44 q 284 24 325 32 q 208 10 243 17 q 157 4 174 4 m 626 797 q 603 805 611 797 q 589 822 594 813 q 586 835 586 826 q 590 849 586 842 q 599 860 594 857 q 640 888 619 878 q 668 893 646 893 q 679 881 685 893 q 667 849 671 869 q 655 813 663 829 q 626 797 647 797 m 472 797 q 449 805 457 797 q 435 822 440 813 q 432 835 432 826 q 436 849 432 842 q 444 860 440 857 q 486 888 465 878 q 514 893 492 893 q 525 881 531 893 q 513 849 517 869 q 501 813 508 829 q 472 797 493 797 z "},"Ė":{"ha":501,"x_min":47,"x_max":700,"o":"m 157 4 q 92 19 117 4 q 58 53 68 33 q 47 90 47 74 q 86 244 47 160 q 178 408 125 328 q 265 531 221 475 q 344 626 310 588 q 389 674 378 664 q 354 683 371 674 q 338 704 338 692 q 349 718 338 711 q 392 729 361 725 q 483 738 438 736 q 567 741 529 740 q 625 742 606 742 q 689 725 678 742 q 700 681 700 708 q 663 685 689 683 q 607 686 638 686 q 563 686 585 686 q 521 683 540 686 q 469 674 493 681 q 429 653 444 667 q 399 615 419 643 q 353 551 378 588 q 303 476 328 514 q 261 406 279 438 q 238 358 243 375 q 298 370 260 363 q 383 378 336 378 q 449 339 449 378 q 444 321 449 332 l 218 321 q 206 299 219 324 q 176 238 193 275 q 145 161 158 200 q 132 93 132 122 q 158 67 132 67 q 252 78 203 67 q 354 90 301 90 q 420 83 392 90 q 450 43 449 76 q 441 44 446 44 q 431 44 436 44 q 365 38 404 44 q 284 24 325 32 q 208 10 243 17 q 157 4 174 4 m 554 799 q 531 806 539 799 q 517 824 522 814 q 514 836 514 828 q 518 851 514 843 q 526 861 522 858 q 568 889 547 879 q 596 894 574 894 q 607 882 613 894 q 594 851 599 871 q 583 815 590 831 q 554 799 575 799 z "},"Ẹ":{"ha":501,"x_min":47,"x_max":700,"o":"m 157 4 q 92 19 117 4 q 58 53 68 33 q 47 90 47 74 q 86 244 47 160 q 178 408 125 328 q 265 531 221 475 q 344 626 310 588 q 389 674 378 664 q 354 683 371 674 q 338 704 338 692 q 349 718 338 711 q 392 729 361 725 q 483 738 438 736 q 567 741 529 740 q 625 742 606 742 q 689 725 678 742 q 700 681 700 708 q 663 685 689 683 q 607 686 638 686 q 563 686 585 686 q 521 683 540 686 q 469 674 493 681 q 429 653 444 667 q 399 615 419 643 q 353 551 378 588 q 303 476 328 514 q 261 406 279 438 q 238 358 243 375 q 298 370 260 363 q 383 378 336 378 q 449 339 449 378 q 444 321 449 332 l 218 321 q 206 299 219 324 q 176 238 193 275 q 145 161 158 200 q 132 93 132 122 q 158 67 132 67 q 252 78 203 67 q 354 90 301 90 q 420 83 392 90 q 450 43 449 76 q 441 44 446 44 q 431 44 436 44 q 365 38 404 44 q 284 24 325 32 q 208 10 243 17 q 157 4 174 4 m 200 -146 q 178 -140 186 -146 q 167 -125 171 -133 q 164 -114 164 -121 q 175 -90 164 -99 q 213 -65 192 -75 q 222 -63 214 -65 q 238 -61 229 -61 q 247 -72 253 -61 q 237 -100 240 -82 q 226 -132 233 -118 q 200 -146 219 -146 z "},"È":{"ha":501,"x_min":47,"x_max":700,"o":"m 157 4 q 92 19 117 4 q 58 53 68 33 q 47 90 47 74 q 86 244 47 160 q 178 408 125 328 q 265 531 221 475 q 344 626 310 588 q 389 674 378 664 q 354 683 371 674 q 338 704 338 692 q 349 718 338 711 q 392 729 361 725 q 483 738 438 736 q 567 741 529 740 q 625 742 606 742 q 689 725 678 742 q 700 681 700 708 q 663 685 689 683 q 607 686 638 686 q 563 686 585 686 q 521 683 540 686 q 469 674 493 681 q 429 653 444 667 q 399 615 419 643 q 353 551 378 588 q 303 476 328 514 q 261 406 279 438 q 238 358 243 375 q 298 370 260 363 q 383 378 336 378 q 449 339 449 378 q 444 321 449 332 l 218 321 q 206 299 219 324 q 176 238 193 275 q 145 161 158 200 q 132 93 132 122 q 158 67 132 67 q 252 78 203 67 q 354 90 301 90 q 420 83 392 90 q 450 43 449 76 q 441 44 446 44 q 431 44 436 44 q 365 38 404 44 q 284 24 325 32 q 208 10 243 17 q 157 4 174 4 m 561 794 q 543 805 558 796 q 511 824 528 814 q 486 840 494 835 q 451 865 474 849 q 409 896 428 881 q 389 914 390 911 q 399 927 389 919 q 426 936 408 935 l 429 936 q 447 930 438 936 q 461 917 456 924 q 489 890 471 908 q 528 851 507 872 q 567 814 550 831 q 572 804 572 810 q 568 797 572 800 q 561 794 564 793 z "},"Ẻ":{"ha":501,"x_min":47,"x_max":700,"o":"m 157 4 q 92 19 117 4 q 58 53 68 33 q 47 90 47 74 q 86 244 47 160 q 178 408 125 328 q 265 531 221 475 q 344 626 310 588 q 389 674 378 664 q 354 683 371 674 q 338 704 338 692 q 349 718 338 711 q 392 729 361 725 q 483 738 438 736 q 567 741 529 740 q 625 742 606 742 q 689 725 678 742 q 700 681 700 708 q 663 685 689 683 q 607 686 638 686 q 563 686 585 686 q 521 683 540 686 q 469 674 493 681 q 429 653 444 667 q 399 615 419 643 q 353 551 378 588 q 303 476 328 514 q 261 406 279 438 q 238 358 243 375 q 298 370 260 363 q 383 378 336 378 q 449 339 449 378 q 444 321 449 332 l 218 321 q 206 299 219 324 q 176 238 193 275 q 145 161 158 200 q 132 93 132 122 q 158 67 132 67 q 252 78 203 67 q 354 90 301 90 q 420 83 392 90 q 450 43 449 76 q 441 44 446 44 q 431 44 436 44 q 365 38 404 44 q 284 24 325 32 q 208 10 243 17 q 157 4 174 4 m 578 840 q 559 833 568 833 q 557 842 550 832 q 587 882 576 869 q 606 913 597 894 q 611 928 610 921 q 613 942 613 936 q 599 969 613 961 q 567 976 586 976 q 513 963 536 976 q 499 958 507 958 q 492 964 492 958 q 504 982 492 971 q 544 1006 522 997 q 594 1015 565 1015 q 648 1000 632 1015 q 664 961 664 985 q 649 908 664 936 q 612 865 631 878 q 578 840 593 851 z "},"Ȇ":{"ha":501,"x_min":47,"x_max":700,"o":"m 157 4 q 92 19 117 4 q 58 53 68 33 q 47 90 47 74 q 86 244 47 160 q 178 408 125 328 q 265 531 221 475 q 344 626 310 588 q 389 674 378 664 q 354 683 371 674 q 338 704 338 692 q 349 718 338 711 q 392 729 361 725 q 483 738 438 736 q 567 741 529 740 q 625 742 606 742 q 689 725 678 742 q 700 681 700 708 q 663 685 689 683 q 607 686 638 686 q 563 686 585 686 q 521 683 540 686 q 469 674 493 681 q 429 653 444 667 q 399 615 419 643 q 353 551 378 588 q 303 476 328 514 q 261 406 279 438 q 238 358 243 375 q 298 370 260 363 q 383 378 336 378 q 449 339 449 378 q 444 321 449 332 l 218 321 q 206 299 219 324 q 176 238 193 275 q 145 161 158 200 q 132 93 132 122 q 158 67 132 67 q 252 78 203 67 q 354 90 301 90 q 420 83 392 90 q 450 43 449 76 q 441 44 446 44 q 431 44 436 44 q 365 38 404 44 q 284 24 325 32 q 208 10 243 17 q 157 4 174 4 m 661 800 q 654 802 658 800 q 651 813 650 804 q 635 860 654 840 q 579 881 615 881 q 503 865 547 881 q 440 821 460 849 q 429 807 433 810 q 419 804 425 804 q 413 815 408 804 q 483 900 435 868 q 592 932 531 932 q 664 910 638 932 q 690 858 690 888 q 681 816 690 832 q 661 800 672 800 z "},"Ē":{"ha":501,"x_min":47,"x_max":700,"o":"m 157 4 q 92 19 117 4 q 58 53 68 33 q 47 90 47 74 q 86 244 47 160 q 178 408 125 328 q 265 531 221 475 q 344 626 310 588 q 389 674 378 664 q 354 683 371 674 q 338 704 338 692 q 349 718 338 711 q 392 729 361 725 q 483 738 438 736 q 567 741 529 740 q 625 742 606 742 q 689 725 678 742 q 700 681 700 708 q 663 685 689 683 q 607 686 638 686 q 563 686 585 686 q 521 683 540 686 q 469 674 493 681 q 429 653 444 667 q 399 615 419 643 q 353 551 378 588 q 303 476 328 514 q 261 406 279 438 q 238 358 243 375 q 298 370 260 363 q 383 378 336 378 q 449 339 449 378 q 444 321 449 332 l 218 321 q 206 299 219 324 q 176 238 193 275 q 145 161 158 200 q 132 93 132 122 q 158 67 132 67 q 252 78 203 67 q 354 90 301 90 q 420 83 392 90 q 450 43 449 76 q 441 44 446 44 q 431 44 436 44 q 365 38 404 44 q 284 24 325 32 q 208 10 243 17 q 157 4 174 4 m 660 810 q 633 815 651 814 q 586 817 614 817 q 504 814 543 817 q 442 811 465 811 q 413 831 414 811 q 411 867 411 850 q 440 863 422 864 q 479 861 458 861 q 561 864 522 861 q 631 867 600 867 q 657 847 654 867 q 660 810 660 828 z "},"Ŋ":{"ha":597,"x_min":-17,"x_max":725,"o":"m 57 -319 q 7 -288 31 -319 q -12 -219 -17 -257 q -3 -188 -11 -207 q 20 -156 4 -169 q 60 -144 36 -142 q 40 -185 49 -162 q 28 -222 31 -207 q 26 -237 26 -226 q 36 -275 26 -256 q 71 -294 46 -294 q 154 -244 114 -294 q 236 -119 194 -193 l 299 6 q 289 78 289 31 q 301 211 289 136 q 324 344 311 271 q 351 490 338 418 q 372 615 364 563 q 350 563 369 601 q 304 476 331 524 q 254 388 278 429 q 218 326 231 346 q 164 235 193 286 q 108 134 135 185 q 64 43 82 83 q 43 -17 46 3 q 7 49 7 3 q 21 118 7 81 q 54 192 35 156 q 90 256 74 229 q 196 426 143 342 q 290 592 249 511 q 347 743 331 672 q 360 746 356 746 q 410 721 385 746 q 440 672 435 696 q 436 590 444 639 q 415 484 428 542 q 392 368 403 426 q 377 276 386 329 q 361 168 368 222 q 353 69 354 114 q 378 149 360 107 q 428 250 397 192 q 506 392 460 308 q 617 596 553 476 q 661 690 643 647 q 682 751 679 732 q 715 721 704 740 q 725 661 725 701 q 709 594 725 632 q 672 522 693 557 q 635 460 650 486 q 586 372 617 429 q 517 242 556 315 q 435 89 479 169 q 343 -71 390 8 q 298 -145 324 -103 q 238 -227 272 -187 q 158 -293 203 -267 q 57 -319 114 -319 z "},"Ę":{"ha":501,"x_min":47,"x_max":700,"o":"m 157 4 q 92 19 117 4 q 58 53 68 33 q 47 90 47 74 q 86 244 47 160 q 178 408 125 328 q 265 531 221 475 q 344 626 310 588 q 389 674 378 664 q 354 683 371 674 q 338 704 338 692 q 349 718 338 711 q 392 729 361 725 q 483 738 438 736 q 567 741 529 740 q 625 742 606 742 q 689 725 678 742 q 700 681 700 708 q 663 685 689 683 q 607 686 638 686 q 563 686 585 686 q 521 683 540 686 q 469 674 493 681 q 429 653 444 667 q 399 615 419 643 q 353 551 378 588 q 303 476 328 514 q 261 406 279 438 q 238 358 243 375 q 298 370 260 363 q 383 378 336 378 q 449 339 449 378 q 444 321 449 332 l 218 321 q 206 299 219 324 q 176 238 193 275 q 145 161 158 200 q 132 93 132 122 q 158 67 132 67 q 252 78 203 67 q 354 90 301 90 q 420 83 392 90 q 450 43 449 76 q 441 44 446 44 q 431 44 436 44 q 365 38 404 44 q 284 24 325 32 q 208 10 243 17 q 157 4 174 4 m 357 -200 q 297 -179 318 -200 q 276 -132 276 -158 q 296 -61 276 -99 q 340 8 315 -24 q 381 51 365 39 q 404 60 389 60 q 415 56 411 60 q 413 43 419 51 q 363 -28 388 13 q 339 -118 339 -68 q 351 -140 339 -132 q 378 -149 363 -149 q 438 -132 406 -149 q 499 -93 469 -115 q 546 -54 528 -71 q 550 -69 550 -60 q 544 -91 550 -79 q 535 -107 539 -103 q 450 -171 499 -142 q 357 -200 401 -200 z "},"Ð":{"ha":693,"x_min":15,"x_max":793,"o":"m 151 -35 q 99 -27 121 -35 q 65 -1 76 -19 q 31 14 47 -1 q 15 65 15 29 q 59 192 15 125 q 163 358 103 258 q 201 416 176 382 q 251 489 225 450 q 297 566 276 528 q 324 633 317 604 q 292 628 310 632 q 261 624 275 625 q 251 622 256 622 q 243 622 247 622 q 208 632 217 622 q 200 654 200 642 q 200 674 200 667 q 307 690 249 678 q 456 725 382 704 q 610 746 531 746 q 744 710 696 746 q 793 590 793 674 q 763 447 793 524 q 681 296 732 371 q 564 157 629 221 q 428 51 499 93 q 340 8 389 28 q 242 -23 292 -11 q 151 -35 193 -35 m 153 4 q 301 38 231 4 q 432 126 371 72 q 540 242 493 181 q 601 326 568 276 q 665 428 635 375 q 716 531 696 482 q 736 615 736 581 q 721 665 736 647 q 665 683 706 683 q 584 676 636 683 q 475 660 532 669 q 374 643 418 651 q 381 618 381 632 q 362 546 381 589 q 316 457 343 503 q 263 371 289 411 q 222 307 238 331 q 152 194 188 256 q 96 72 117 133 q 90 42 90 57 q 104 14 90 24 q 153 4 118 4 m 481 581 q 453 586 472 585 q 411 588 435 588 q 319 585 368 588 q 246 582 269 582 q 217 601 218 582 q 215 638 215 621 q 244 633 226 635 q 283 632 263 632 q 374 635 326 632 q 451 638 421 638 q 478 618 475 638 q 481 581 481 599 z "},"Ẽ":{"ha":501,"x_min":47,"x_max":701,"o":"m 157 4 q 92 19 117 4 q 58 53 68 33 q 47 90 47 74 q 86 244 47 160 q 178 408 125 328 q 265 531 221 475 q 344 626 310 588 q 389 674 378 664 q 354 683 371 674 q 338 704 338 692 q 349 718 338 711 q 392 729 361 725 q 483 738 438 736 q 567 741 529 740 q 625 742 606 742 q 689 725 678 742 q 700 681 700 708 q 663 685 689 683 q 607 686 638 686 q 563 686 585 686 q 521 683 540 686 q 469 674 493 681 q 429 653 444 667 q 399 615 419 643 q 353 551 378 588 q 303 476 328 514 q 261 406 279 438 q 238 358 243 375 q 298 370 260 363 q 383 378 336 378 q 449 339 449 378 q 444 321 449 332 l 218 321 q 206 299 219 324 q 176 238 193 275 q 145 161 158 200 q 132 93 132 122 q 158 67 132 67 q 252 78 203 67 q 354 90 301 90 q 420 83 392 90 q 450 43 449 76 q 441 44 446 44 q 431 44 436 44 q 365 38 404 44 q 284 24 325 32 q 208 10 243 17 q 157 4 174 4 m 617 797 q 566 809 586 797 q 528 832 546 821 q 488 843 511 843 q 449 826 464 843 q 425 799 433 808 q 415 801 415 794 q 429 840 415 821 q 464 873 443 860 q 507 886 485 886 q 556 875 533 886 q 601 853 579 864 q 644 842 622 842 q 669 856 660 842 q 690 888 679 869 q 698 885 694 888 q 701 872 701 883 q 686 835 701 851 q 651 808 671 818 q 617 797 632 797 z "},"F":{"ha":508,"x_min":47,"x_max":744,"o":"m 118 -17 q 47 65 47 -17 q 69 178 47 117 q 127 305 92 239 q 203 433 163 371 q 283 545 244 494 q 350 631 321 596 q 389 674 379 665 q 322 680 342 674 q 303 694 303 686 q 327 715 303 707 q 390 728 351 722 q 500 738 443 735 q 603 741 557 740 q 669 742 650 742 q 733 725 722 742 q 744 681 744 708 q 708 685 735 683 q 651 686 682 686 q 607 686 629 686 q 565 683 585 686 q 490 673 524 681 q 422 638 456 665 q 344 544 388 610 q 294 469 319 507 q 251 399 269 431 q 225 351 232 368 q 299 362 249 356 q 397 368 350 368 q 471 359 442 368 q 489 326 500 350 q 438 325 478 326 q 349 322 397 324 q 261 317 301 319 q 210 311 221 314 q 185 258 203 297 q 153 165 168 219 q 131 78 140 125 q 118 -17 121 32 z "},"G":{"ha":706,"x_min":81,"x_max":743,"o":"m 292 -28 q 169 0 215 -28 q 101 76 122 28 q 81 183 81 124 q 108 337 81 257 q 185 490 136 417 q 297 623 233 564 q 433 717 360 682 q 581 751 506 751 q 703 714 664 751 q 742 624 742 676 q 733 571 742 599 q 710 508 724 540 q 685 449 696 475 q 669 413 674 424 q 639 425 647 413 q 631 458 631 438 q 640 514 631 482 q 663 576 650 546 q 679 646 679 613 q 662 698 679 678 q 607 718 644 718 q 467 679 533 718 q 347 577 401 640 q 252 439 292 514 q 190 290 213 364 q 168 156 168 215 q 195 46 168 89 q 299 3 222 3 q 413 36 360 3 q 514 129 467 69 q 547 185 533 153 q 561 244 560 218 q 511 240 538 242 q 458 238 485 238 q 403 241 429 238 q 358 253 376 244 q 333 286 335 264 q 345 285 333 286 q 375 285 357 285 q 403 285 388 285 q 435 288 418 286 q 495 295 460 290 q 566 306 531 300 q 627 315 601 311 q 658 318 653 318 q 743 265 735 318 q 717 269 731 269 q 673 264 697 269 q 613 251 649 258 q 615 240 615 246 q 615 228 615 235 q 583 121 615 168 q 499 40 550 74 q 393 -10 449 7 q 292 -28 338 -28 z "},"Ğ":{"ha":706,"x_min":81,"x_max":785,"o":"m 292 -28 q 169 0 215 -28 q 101 76 122 28 q 81 183 81 124 q 108 337 81 257 q 185 490 136 417 q 297 623 233 564 q 433 717 360 682 q 581 751 506 751 q 703 714 664 751 q 742 624 742 676 q 733 571 742 599 q 710 508 724 540 q 685 449 696 475 q 669 413 674 424 q 639 425 647 413 q 631 458 631 438 q 640 514 631 482 q 663 576 650 546 q 679 646 679 613 q 662 698 679 678 q 607 718 644 718 q 467 679 533 718 q 347 577 401 640 q 252 439 292 514 q 190 290 213 364 q 168 156 168 215 q 195 46 168 89 q 299 3 222 3 q 413 36 360 3 q 514 129 467 69 q 547 185 533 153 q 561 244 560 218 q 511 240 538 242 q 458 238 485 238 q 403 241 429 238 q 358 253 376 244 q 333 286 335 264 q 345 285 333 286 q 375 285 357 285 q 403 285 388 285 q 435 288 418 286 q 495 295 460 290 q 566 306 531 300 q 627 315 601 311 q 658 318 653 318 q 743 265 735 318 q 717 269 731 269 q 673 264 697 269 q 613 251 649 258 q 615 240 615 246 q 615 228 615 235 q 583 121 615 168 q 499 40 550 74 q 393 -10 449 7 q 292 -28 338 -28 m 596 810 q 522 834 549 810 q 494 889 494 858 q 518 940 494 940 q 528 928 528 940 q 549 880 528 897 q 604 863 571 863 q 655 866 626 863 q 710 883 683 869 q 753 925 738 896 q 763 940 760 936 q 772 943 767 943 q 781 932 785 943 q 709 838 758 865 q 596 810 660 810 z "},"Ǧ":{"ha":706,"x_min":81,"x_max":782,"o":"m 775 938 q 782 931 782 938 q 775 918 782 924 q 715 875 744 894 q 657 839 685 856 q 624 819 642 829 q 597 810 607 810 q 575 819 589 810 q 554 833 561 828 q 512 871 539 847 q 463 918 485 894 q 460 926 460 921 q 464 935 460 932 q 471 938 468 939 q 497 927 476 936 q 539 906 517 918 q 571 886 556 896 q 607 863 586 876 q 647 883 625 874 q 686 901 669 893 q 715 915 696 907 q 753 931 735 924 q 774 938 771 938 l 775 938 m 292 -28 q 169 0 215 -28 q 101 76 122 28 q 81 183 81 124 q 108 337 81 257 q 185 490 136 417 q 297 623 233 564 q 433 717 360 682 q 581 751 506 751 q 703 714 664 751 q 742 624 742 676 q 733 571 742 599 q 710 508 724 540 q 685 449 696 475 q 669 413 674 424 q 639 425 647 413 q 631 458 631 438 q 640 514 631 482 q 663 576 650 546 q 679 646 679 613 q 662 698 679 678 q 607 718 644 718 q 467 679 533 718 q 347 577 401 640 q 252 439 292 514 q 190 290 213 364 q 168 156 168 215 q 195 46 168 89 q 299 3 222 3 q 413 36 360 3 q 514 129 467 69 q 547 185 533 153 q 561 244 560 218 q 511 240 538 242 q 458 238 485 238 q 403 241 429 238 q 358 253 376 244 q 333 286 335 264 q 345 285 333 286 q 375 285 357 285 q 403 285 388 285 q 435 288 418 286 q 495 295 460 290 q 566 306 531 300 q 627 315 601 311 q 658 318 653 318 q 743 265 735 318 q 717 269 731 269 q 673 264 697 269 q 613 251 649 258 q 615 240 615 246 q 615 228 615 235 q 583 121 615 168 q 499 40 550 74 q 393 -10 449 7 q 292 -28 338 -28 z "},"Ĝ":{"ha":706,"x_min":81,"x_max":764,"o":"m 292 -28 q 169 0 215 -28 q 101 76 122 28 q 81 183 81 124 q 108 337 81 257 q 185 490 136 417 q 297 623 233 564 q 433 717 360 682 q 581 751 506 751 q 703 714 664 751 q 742 624 742 676 q 733 571 742 599 q 710 508 724 540 q 685 449 696 475 q 669 413 674 424 q 639 425 647 413 q 631 458 631 438 q 640 514 631 482 q 663 576 650 546 q 679 646 679 613 q 662 698 679 678 q 607 718 644 718 q 467 679 533 718 q 347 577 401 640 q 252 439 292 514 q 190 290 213 364 q 168 156 168 215 q 195 46 168 89 q 299 3 222 3 q 413 36 360 3 q 514 129 467 69 q 547 185 533 153 q 561 244 560 218 q 511 240 538 242 q 458 238 485 238 q 403 241 429 238 q 358 253 376 244 q 333 286 335 264 q 345 285 333 286 q 375 285 357 285 q 403 285 388 285 q 435 288 418 286 q 495 295 460 290 q 566 306 531 300 q 627 315 601 311 q 658 318 653 318 q 743 265 735 318 q 717 269 731 269 q 673 264 697 269 q 613 251 649 258 q 615 240 615 246 q 615 228 615 235 q 583 121 615 168 q 499 40 550 74 q 393 -10 449 7 q 292 -28 338 -28 m 449 803 q 442 810 442 803 q 449 822 442 817 q 509 865 479 846 q 567 901 539 885 q 599 921 582 911 q 626 931 617 931 q 649 922 635 931 q 669 907 664 914 q 712 869 685 893 q 761 822 739 846 q 764 814 764 819 q 760 805 764 808 q 753 803 756 801 q 727 813 747 804 q 685 835 707 822 q 653 854 668 844 q 617 878 638 864 q 576 858 599 868 q 538 839 554 847 q 508 826 528 835 q 472 811 489 818 q 450 803 454 804 l 449 803 z "},"Ģ":{"ha":706,"x_min":81,"x_max":743,"o":"m 292 -28 q 169 0 215 -28 q 101 76 122 28 q 81 183 81 124 q 108 337 81 257 q 185 490 136 417 q 297 623 233 564 q 433 717 360 682 q 581 751 506 751 q 703 714 664 751 q 742 624 742 676 q 733 571 742 599 q 710 508 724 540 q 685 449 696 475 q 669 413 674 424 q 639 425 647 413 q 631 458 631 438 q 640 514 631 482 q 663 576 650 546 q 679 646 679 613 q 662 698 679 678 q 607 718 644 718 q 467 679 533 718 q 347 577 401 640 q 252 439 292 514 q 190 290 213 364 q 168 156 168 215 q 195 46 168 89 q 299 3 222 3 q 413 36 360 3 q 514 129 467 69 q 547 185 533 153 q 561 244 560 218 q 511 240 538 242 q 458 238 485 238 q 403 241 429 238 q 358 253 376 244 q 333 286 335 264 q 345 285 333 286 q 375 285 357 285 q 403 285 388 285 q 435 288 418 286 q 495 295 460 290 q 566 306 531 300 q 627 315 601 311 q 658 318 653 318 q 743 265 735 318 q 717 269 731 269 q 673 264 697 269 q 613 251 649 258 q 615 240 615 246 q 615 228 615 235 q 583 121 615 168 q 499 40 550 74 q 393 -10 449 7 q 292 -28 338 -28 m 113 -322 q 108 -315 101 -322 l 151 -265 q 197 -209 175 -237 q 231 -150 218 -181 q 233 -138 232 -144 q 233 -126 233 -132 q 231 -112 233 -115 q 228 -106 228 -108 q 232 -103 228 -103 q 256 -112 243 -103 q 279 -160 279 -128 q 256 -221 279 -194 q 199 -266 232 -247 q 136 -301 167 -285 q 130 -307 132 -303 q 125 -314 128 -311 q 113 -322 119 -322 z "},"Ġ":{"ha":706,"x_min":81,"x_max":743,"o":"m 292 -28 q 169 0 215 -28 q 101 76 122 28 q 81 183 81 124 q 108 337 81 257 q 185 490 136 417 q 297 623 233 564 q 433 717 360 682 q 581 751 506 751 q 703 714 664 751 q 742 624 742 676 q 733 571 742 599 q 710 508 724 540 q 685 449 696 475 q 669 413 674 424 q 639 425 647 413 q 631 458 631 438 q 640 514 631 482 q 663 576 650 546 q 679 646 679 613 q 662 698 679 678 q 607 718 644 718 q 467 679 533 718 q 347 577 401 640 q 252 439 292 514 q 190 290 213 364 q 168 156 168 215 q 195 46 168 89 q 299 3 222 3 q 413 36 360 3 q 514 129 467 69 q 547 185 533 153 q 561 244 560 218 q 511 240 538 242 q 458 238 485 238 q 403 241 429 238 q 358 253 376 244 q 333 286 335 264 q 345 285 333 286 q 375 285 357 285 q 403 285 388 285 q 435 288 418 286 q 495 295 460 290 q 566 306 531 300 q 627 315 601 311 q 658 318 653 318 q 743 265 735 318 q 717 269 731 269 q 673 264 697 269 q 613 251 649 258 q 615 240 615 246 q 615 228 615 235 q 583 121 615 168 q 499 40 550 74 q 393 -10 449 7 q 292 -28 338 -28 m 613 808 q 589 816 597 808 q 575 833 581 824 q 572 846 572 838 q 576 860 572 853 q 585 871 581 868 q 626 899 606 889 q 654 904 632 904 q 665 892 671 904 q 653 860 657 881 q 641 824 649 840 q 613 808 633 808 z "},"ẞ":{"ha":568,"x_min":-7,"x_max":735,"o":"m 8 24 q 46 95 21 46 q 105 212 71 144 q 179 356 139 279 q 263 508 219 432 q 350 651 307 585 q 399 708 367 678 q 485 760 432 738 q 617 782 539 782 q 705 756 675 782 q 735 692 735 731 q 676 573 735 638 q 499 468 617 508 q 454 453 472 460 q 433 432 436 446 q 433 426 433 429 q 435 421 432 424 q 480 390 454 410 q 526 335 506 369 q 546 249 546 301 q 546 230 546 239 q 543 210 546 221 q 501 105 536 160 q 410 13 467 50 q 276 -25 353 -25 q 185 1 213 -25 q 157 65 157 26 q 157 76 157 71 q 158 88 157 82 q 178 130 163 114 q 208 146 194 146 q 225 138 219 146 q 228 125 228 135 q 207 63 228 99 q 228 23 210 46 q 276 0 246 0 q 357 32 319 0 q 422 113 394 64 q 457 217 449 163 q 461 263 461 242 q 443 351 461 318 q 408 403 425 383 q 393 436 390 422 q 395 448 394 443 q 404 457 396 453 q 501 521 464 493 q 565 573 539 549 q 615 624 590 597 q 652 673 642 651 q 663 708 663 694 q 643 742 663 732 q 601 753 624 753 q 476 703 533 753 q 381 592 418 654 q 303 453 344 531 q 221 294 263 376 q 143 136 179 213 q 82 1 107 60 q 47 -89 57 -58 q 32 -104 43 -104 q 6 -83 19 -104 q -7 -32 -7 -62 q -3 -4 -7 -18 q 8 24 0 10 z "},"H":{"ha":613,"x_min":22,"x_max":751,"o":"m 64 -17 q 33 14 43 -6 q 22 74 22 33 q 37 134 22 104 q 71 192 51 164 q 106 246 90 221 q 64 279 75 254 q 56 314 53 304 q 92 307 68 310 q 142 303 115 304 q 238 461 190 382 q 321 615 285 540 q 372 754 357 690 q 404 739 396 754 q 413 704 413 724 q 413 672 414 685 q 391 604 411 650 q 342 504 371 558 q 284 401 313 450 q 239 326 256 353 l 224 303 q 310 307 263 304 q 405 313 358 310 q 488 318 451 317 q 580 470 535 393 q 660 620 625 547 q 710 754 696 693 q 742 739 733 754 q 751 704 750 724 q 750 672 751 685 q 730 604 750 650 q 681 504 710 558 q 623 401 651 450 q 576 326 594 353 l 571 318 q 613 294 603 313 q 622 258 622 276 q 594 269 617 265 q 544 274 571 272 q 506 208 526 243 q 468 138 486 172 q 424 45 442 88 q 403 -17 406 3 q 370 14 381 -6 q 360 74 360 33 q 376 135 360 103 q 413 199 392 168 q 450 256 435 231 q 461 274 456 265 q 306 263 376 269 q 192 250 236 256 q 161 194 176 224 q 131 138 146 165 q 86 45 104 88 q 64 -17 68 3 z "},"Ħ":{"ha":597,"x_min":1,"x_max":731,"o":"m 43 -17 q 12 14 22 -6 q 1 74 1 33 q 16 134 1 104 q 50 192 31 164 q 85 246 69 221 q 43 279 54 254 q 35 314 32 304 q 71 307 47 310 q 121 303 94 304 q 180 400 150 351 q 238 497 210 449 l 215 497 q 161 503 175 497 q 148 518 147 510 q 149 533 149 526 q 196 531 168 532 q 254 529 224 529 q 313 647 288 590 q 351 754 339 704 q 383 739 375 754 q 392 704 392 724 q 392 672 393 685 q 374 614 390 653 q 333 529 357 575 q 467 531 399 529 q 594 533 536 532 q 652 649 626 593 q 689 754 678 706 q 721 739 713 754 q 730 704 729 724 q 729 672 731 685 q 713 616 728 654 q 674 533 697 578 q 721 520 717 532 q 725 497 725 508 q 698 499 715 499 q 657 500 681 500 q 601 401 631 449 q 556 326 572 353 l 550 318 q 592 294 582 313 q 601 258 601 276 q 573 269 596 265 q 524 274 550 272 q 485 208 506 243 q 447 138 465 172 q 403 45 421 88 q 382 -17 385 3 q 349 14 360 -6 q 339 74 339 33 q 355 135 339 103 q 392 199 371 168 q 429 256 414 231 l 440 274 q 285 263 356 269 q 171 250 215 256 q 140 194 156 224 q 110 138 125 165 q 65 45 83 88 q 43 -17 47 3 m 203 303 q 290 307 242 304 q 384 313 338 310 q 467 318 431 317 q 522 408 494 363 q 576 500 550 454 q 446 499 514 500 q 318 497 378 499 q 263 399 290 446 q 218 326 235 353 l 203 303 z "},"Ĥ":{"ha":613,"x_min":22,"x_max":751,"o":"m 64 -17 q 33 14 43 -6 q 22 74 22 33 q 37 134 22 104 q 71 192 51 164 q 106 246 90 221 q 64 279 75 254 q 56 314 53 304 q 92 307 68 310 q 142 303 115 304 q 238 461 190 382 q 321 615 285 540 q 372 754 357 690 q 404 739 396 754 q 413 704 413 724 q 413 672 414 685 q 391 604 411 650 q 342 504 371 558 q 284 401 313 450 q 239 326 256 353 l 224 303 q 310 307 263 304 q 405 313 358 310 q 488 318 451 317 q 580 470 535 393 q 660 620 625 547 q 710 754 696 693 q 742 739 733 754 q 751 704 750 724 q 750 672 751 685 q 730 604 750 650 q 681 504 710 558 q 623 401 651 450 q 576 326 594 353 l 571 318 q 613 294 603 313 q 622 258 622 276 q 594 269 617 265 q 544 274 571 272 q 506 208 526 243 q 468 138 486 172 q 424 45 442 88 q 403 -17 406 3 q 370 14 381 -6 q 360 74 360 33 q 376 135 360 103 q 413 199 392 168 q 450 256 435 231 q 461 274 456 265 q 306 263 376 269 q 192 250 236 256 q 161 194 176 224 q 131 138 146 165 q 86 45 104 88 q 64 -17 68 3 m 407 813 q 400 819 400 813 q 407 832 400 826 q 467 875 438 856 q 525 911 497 894 q 558 931 540 921 q 585 940 575 940 q 608 932 593 940 q 628 917 622 924 q 670 879 643 903 q 719 832 697 856 q 722 824 722 829 q 718 815 722 818 q 711 813 714 811 q 685 823 706 814 q 643 844 665 832 q 611 864 626 854 q 575 888 596 874 q 535 867 557 878 q 496 849 513 857 q 467 836 486 844 q 430 821 447 828 q 408 813 413 814 l 407 813 z "},"I":{"ha":263,"x_min":11,"x_max":404,"o":"m 54 -17 q 22 14 33 -6 q 11 74 11 33 q 27 135 11 103 q 65 199 43 168 q 101 256 86 231 q 208 430 154 342 q 303 601 261 518 q 363 754 346 685 q 394 739 386 754 q 403 704 403 724 q 403 672 404 685 q 381 604 401 650 q 332 504 361 558 q 274 401 303 450 q 229 326 246 353 q 174 237 203 288 q 121 138 146 186 q 76 45 94 88 q 54 -17 57 3 z "},"Ĳ":{"ha":726,"x_min":11,"x_max":840,"o":"m 54 -17 q 22 14 33 -6 q 11 74 11 33 q 27 135 11 103 q 65 199 43 168 q 101 256 86 231 q 208 430 154 342 q 303 601 261 518 q 363 754 346 685 q 394 739 386 754 q 403 704 403 724 q 403 672 404 685 q 381 604 401 650 q 332 504 361 558 q 274 401 303 450 q 229 326 246 353 q 174 237 203 288 q 121 138 146 186 q 76 45 94 88 q 54 -17 57 3 m 372 -17 q 283 20 322 -17 q 243 122 243 57 q 250 178 243 144 q 278 238 257 211 q 343 264 300 264 q 314 191 325 231 q 303 125 303 151 q 310 75 303 103 q 334 28 317 47 q 382 8 351 8 q 481 53 435 8 q 569 172 526 97 q 653 340 611 247 q 686 419 668 372 q 724 520 704 467 q 761 625 743 574 q 792 716 779 676 q 808 774 804 756 q 834 726 828 753 q 840 669 840 700 q 813 543 840 618 q 738 346 786 468 q 683 224 715 288 q 608 106 651 160 q 506 17 564 51 q 372 -17 449 -17 z "},"Í":{"ha":263,"x_min":11,"x_max":542,"o":"m 54 -17 q 22 14 33 -6 q 11 74 11 33 q 27 135 11 103 q 65 199 43 168 q 101 256 86 231 q 208 430 154 342 q 303 601 261 518 q 363 754 346 685 q 394 739 386 754 q 403 704 403 724 q 403 672 404 685 q 381 604 401 650 q 332 504 361 558 q 274 401 303 450 q 229 326 246 353 q 174 237 203 288 q 121 138 146 186 q 76 45 94 88 q 54 -17 57 3 m 369 811 q 361 817 365 810 q 365 831 357 824 q 424 887 392 854 q 471 933 457 919 q 485 947 476 940 q 503 953 494 953 q 533 944 524 953 q 542 931 542 936 q 523 913 542 928 q 481 881 504 897 q 446 857 458 865 q 421 840 438 851 q 389 821 404 829 q 369 811 374 813 z "},"Ĭ":{"ha":263,"x_min":11,"x_max":588,"o":"m 54 -17 q 22 14 33 -6 q 11 74 11 33 q 27 135 11 103 q 65 199 43 168 q 101 256 86 231 q 208 430 154 342 q 303 601 261 518 q 363 754 346 685 q 394 739 386 754 q 403 704 403 724 q 403 672 404 685 q 381 604 401 650 q 332 504 361 558 q 274 401 303 450 q 229 326 246 353 q 174 237 203 288 q 121 138 146 186 q 76 45 94 88 q 54 -17 57 3 m 399 813 q 324 837 351 813 q 297 892 297 861 q 321 943 297 943 q 331 931 331 943 q 352 883 331 900 q 407 865 374 865 q 458 869 429 865 q 513 885 486 872 q 556 928 540 899 q 566 942 563 939 q 575 946 569 946 q 583 935 588 946 q 512 840 561 868 q 399 813 463 813 z "},"Ǐ":{"ha":263,"x_min":11,"x_max":585,"o":"m 578 940 q 585 933 585 940 q 578 921 585 926 q 517 878 547 897 q 460 842 488 858 q 427 822 444 832 q 400 813 410 813 q 378 822 392 813 q 357 836 364 831 q 315 874 342 850 q 265 921 288 897 q 263 929 263 924 q 267 938 263 935 q 274 940 271 942 q 299 930 279 939 q 342 908 319 921 q 374 889 358 899 q 410 865 389 879 q 450 886 428 876 q 489 904 472 896 q 518 918 499 910 q 556 933 538 926 q 576 940 574 940 l 578 940 m 54 -17 q 22 14 33 -6 q 11 74 11 33 q 27 135 11 103 q 65 199 43 168 q 101 256 86 231 q 208 430 154 342 q 303 601 261 518 q 363 754 346 685 q 394 739 386 754 q 403 704 403 724 q 403 672 404 685 q 381 604 401 650 q 332 504 361 558 q 274 401 303 450 q 229 326 246 353 q 174 237 203 288 q 121 138 146 186 q 76 45 94 88 q 54 -17 57 3 z "},"Î":{"ha":263,"x_min":11,"x_max":567,"o":"m 54 -17 q 22 14 33 -6 q 11 74 11 33 q 27 135 11 103 q 65 199 43 168 q 101 256 86 231 q 208 430 154 342 q 303 601 261 518 q 363 754 346 685 q 394 739 386 754 q 403 704 403 724 q 403 672 404 685 q 381 604 401 650 q 332 504 361 558 q 274 401 303 450 q 229 326 246 353 q 174 237 203 288 q 121 138 146 186 q 76 45 94 88 q 54 -17 57 3 m 251 806 q 244 813 244 806 q 251 825 244 819 q 312 868 282 849 q 369 904 342 888 q 402 924 385 914 q 429 933 419 933 q 452 925 438 933 q 472 910 467 917 q 515 872 488 896 q 564 825 542 849 q 567 817 567 822 q 563 808 567 811 q 556 806 558 804 q 530 816 550 807 q 488 838 510 825 q 456 857 471 847 q 419 881 440 867 q 379 860 401 871 q 340 842 357 850 q 311 829 331 838 q 274 814 292 821 q 253 806 257 807 l 251 806 z "},"Ȉ":{"ha":263,"x_min":11,"x_max":432,"o":"m 54 -17 q 22 14 33 -6 q 11 74 11 33 q 27 135 11 103 q 65 199 43 168 q 101 256 86 231 q 208 430 154 342 q 303 601 261 518 q 363 754 346 685 q 394 739 386 754 q 403 704 403 724 q 403 672 404 685 q 381 604 401 650 q 332 504 361 558 q 274 401 303 450 q 229 326 246 353 q 174 237 203 288 q 121 138 146 186 q 76 45 94 88 q 54 -17 57 3 m 419 806 q 404 821 417 808 q 379 849 392 833 q 361 872 367 864 q 334 906 351 883 q 303 948 317 928 q 289 971 289 968 q 315 983 292 983 q 331 981 319 983 q 347 970 340 979 q 360 951 354 961 q 391 894 369 935 q 431 822 413 854 q 432 814 432 819 q 427 806 432 808 q 419 806 422 804 m 319 813 q 303 826 317 814 q 276 851 290 838 q 256 874 263 865 q 226 905 246 885 q 191 944 207 925 q 175 965 175 963 q 188 976 176 971 q 217 979 199 982 q 234 969 226 978 q 247 953 242 961 q 283 899 258 938 q 329 831 308 860 q 332 822 332 828 q 328 814 332 817 q 319 813 324 811 z "},"Ï":{"ha":263,"x_min":11,"x_max":546,"o":"m 54 -17 q 22 14 33 -6 q 11 74 11 33 q 27 135 11 103 q 65 199 43 168 q 101 256 86 231 q 208 430 154 342 q 303 601 261 518 q 363 754 346 685 q 394 739 386 754 q 403 704 403 724 q 403 672 404 685 q 381 604 401 650 q 332 504 361 558 q 274 401 303 450 q 229 326 246 353 q 174 237 203 288 q 121 138 146 186 q 76 45 94 88 q 54 -17 57 3 m 488 810 q 464 817 472 810 q 450 835 456 825 q 447 847 447 839 q 451 862 447 854 q 460 872 456 869 q 501 900 481 890 q 529 906 507 906 q 540 893 546 906 q 528 862 532 882 q 516 826 524 842 q 488 810 508 810 m 333 810 q 310 817 318 810 q 296 835 301 825 q 293 847 293 839 q 297 862 293 854 q 306 872 301 869 q 347 900 326 890 q 375 906 353 906 q 386 893 392 906 q 374 862 378 882 q 362 826 369 842 q 333 810 354 810 z "},"İ":{"ha":263,"x_min":11,"x_max":474,"o":"m 54 -17 q 22 14 33 -6 q 11 74 11 33 q 27 135 11 103 q 65 199 43 168 q 101 256 86 231 q 208 430 154 342 q 303 601 261 518 q 363 754 346 685 q 394 739 386 754 q 403 704 403 724 q 403 672 404 685 q 381 604 401 650 q 332 504 361 558 q 274 401 303 450 q 229 326 246 353 q 174 237 203 288 q 121 138 146 186 q 76 45 94 88 q 54 -17 57 3 m 415 811 q 392 819 400 811 q 378 836 383 826 q 375 849 375 840 q 379 863 375 856 q 388 874 383 871 q 429 901 408 892 q 457 907 435 907 q 468 894 474 907 q 456 863 460 883 q 444 827 451 843 q 415 811 436 811 z "},"Ị":{"ha":263,"x_min":-61,"x_max":404,"o":"m 54 -17 q 22 14 33 -6 q 11 74 11 33 q 27 135 11 103 q 65 199 43 168 q 101 256 86 231 q 208 430 154 342 q 303 601 261 518 q 363 754 346 685 q 394 739 386 754 q 403 704 403 724 q 403 672 404 685 q 381 604 401 650 q 332 504 361 558 q 274 401 303 450 q 229 326 246 353 q 174 237 203 288 q 121 138 146 186 q 76 45 94 88 q 54 -17 57 3 m -25 -172 q -47 -166 -39 -172 q -58 -151 -54 -160 q -61 -140 -61 -147 q -50 -117 -61 -125 q -12 -92 -33 -101 q -3 -90 -11 -92 q 13 -87 4 -87 q 22 -99 28 -87 q 12 -126 15 -108 q 1 -158 8 -144 q -25 -172 -6 -172 z "},"Ì":{"ha":263,"x_min":11,"x_max":433,"o":"m 54 -17 q 22 14 33 -6 q 11 74 11 33 q 27 135 11 103 q 65 199 43 168 q 101 256 86 231 q 208 430 154 342 q 303 601 261 518 q 363 754 346 685 q 394 739 386 754 q 403 704 403 724 q 403 672 404 685 q 381 604 401 650 q 332 504 361 558 q 274 401 303 450 q 229 326 246 353 q 174 237 203 288 q 121 138 146 186 q 76 45 94 88 q 54 -17 57 3 m 422 807 q 404 817 419 808 q 372 837 389 826 q 347 853 356 847 q 312 877 335 861 q 270 908 289 893 q 250 926 251 924 q 260 940 250 932 q 288 949 269 947 l 290 949 q 308 942 299 949 q 322 929 317 936 q 350 903 332 921 q 390 864 368 885 q 428 826 411 843 q 433 817 433 822 q 429 809 433 813 q 422 807 425 806 z "},"Ỉ":{"ha":263,"x_min":11,"x_max":525,"o":"m 54 -17 q 22 14 33 -6 q 11 74 11 33 q 27 135 11 103 q 65 199 43 168 q 101 256 86 231 q 208 430 154 342 q 303 601 261 518 q 363 754 346 685 q 394 739 386 754 q 403 704 403 724 q 403 672 404 685 q 381 604 401 650 q 332 504 361 558 q 274 401 303 450 q 229 326 246 353 q 174 237 203 288 q 121 138 146 186 q 76 45 94 88 q 54 -17 57 3 m 439 853 q 420 845 429 846 q 418 854 411 844 q 448 894 438 882 q 467 925 458 907 q 472 941 471 933 q 474 954 474 949 q 460 981 474 974 q 428 989 447 989 q 374 975 397 989 q 360 971 368 971 q 353 976 353 971 q 365 994 353 983 q 405 1019 383 1010 q 456 1028 426 1028 q 509 1013 493 1028 q 525 974 525 997 q 510 921 525 949 q 473 877 492 890 q 439 853 454 864 z "},"Ȋ":{"ha":263,"x_min":11,"x_max":551,"o":"m 54 -17 q 22 14 33 -6 q 11 74 11 33 q 27 135 11 103 q 65 199 43 168 q 101 256 86 231 q 208 430 154 342 q 303 601 261 518 q 363 754 346 685 q 394 739 386 754 q 403 704 403 724 q 403 672 404 685 q 381 604 401 650 q 332 504 361 558 q 274 401 303 450 q 229 326 246 353 q 174 237 203 288 q 121 138 146 186 q 76 45 94 88 q 54 -17 57 3 m 522 813 q 515 815 519 813 q 513 825 511 817 q 496 873 515 853 q 440 893 476 893 q 365 877 408 893 q 301 833 321 861 q 290 819 294 822 q 281 817 286 817 q 274 828 269 817 q 344 913 296 881 q 453 944 392 944 q 525 922 499 944 q 551 871 551 900 q 542 828 551 844 q 522 813 533 813 z "},"Ī":{"ha":263,"x_min":11,"x_max":521,"o":"m 54 -17 q 22 14 33 -6 q 11 74 11 33 q 27 135 11 103 q 65 199 43 168 q 101 256 86 231 q 208 430 154 342 q 303 601 261 518 q 363 754 346 685 q 394 739 386 754 q 403 704 403 724 q 403 672 404 685 q 381 604 401 650 q 332 504 361 558 q 274 401 303 450 q 229 326 246 353 q 174 237 203 288 q 121 138 146 186 q 76 45 94 88 q 54 -17 57 3 m 521 822 q 494 828 513 826 q 447 829 475 829 q 365 826 404 829 q 303 824 326 824 q 274 843 275 824 q 272 879 272 863 q 301 875 283 876 q 340 874 319 874 q 422 876 383 874 q 492 879 461 879 q 518 860 515 879 q 521 822 521 840 z "},"Į":{"ha":263,"x_min":-81,"x_max":404,"o":"m 54 -17 q 22 14 33 -6 q 11 74 11 33 q 27 135 11 103 q 65 199 43 168 q 101 256 86 231 q 208 430 154 342 q 303 601 261 518 q 363 754 346 685 q 394 739 386 754 q 403 704 403 724 q 403 672 404 685 q 381 604 401 650 q 332 504 361 558 q 274 401 303 450 q 229 326 246 353 q 174 237 203 288 q 121 138 146 186 q 76 45 94 88 q 54 -17 57 3 m 0 -239 q -60 -218 -39 -239 q -81 -171 -81 -197 q -61 -100 -81 -137 q -17 -31 -42 -62 q 24 13 8 0 q 47 21 32 21 q 58 17 54 21 q 56 4 63 13 q 6 -67 31 -26 q -18 -157 -18 -107 q -6 -179 -18 -171 q 21 -187 6 -187 q 81 -171 49 -187 q 142 -132 113 -154 q 189 -93 171 -110 q 193 -108 193 -99 q 188 -130 193 -118 q 178 -146 182 -142 q 93 -210 142 -181 q 0 -239 44 -239 z "},"Ĩ":{"ha":263,"x_min":11,"x_max":563,"o":"m 54 -17 q 22 14 33 -6 q 11 74 11 33 q 27 135 11 103 q 65 199 43 168 q 101 256 86 231 q 208 430 154 342 q 303 601 261 518 q 363 754 346 685 q 394 739 386 754 q 403 704 403 724 q 403 672 404 685 q 381 604 401 650 q 332 504 361 558 q 274 401 303 450 q 229 326 246 353 q 174 237 203 288 q 121 138 146 186 q 76 45 94 88 q 54 -17 57 3 m 478 810 q 427 822 447 810 q 390 844 407 833 q 349 856 372 856 q 310 838 325 856 q 286 811 294 821 q 276 814 276 807 q 290 853 276 833 q 325 885 304 872 q 368 899 346 899 q 417 888 394 899 q 462 865 440 876 q 506 854 483 854 q 531 868 521 854 q 551 900 540 882 q 559 898 556 900 q 563 885 563 896 q 547 847 563 864 q 513 820 532 831 q 478 810 493 810 z "},"J":{"ha":494,"x_min":11,"x_max":608,"o":"m 140 -17 q 51 20 90 -17 q 11 122 11 57 q 18 178 11 144 q 47 238 25 211 q 111 264 68 264 q 82 191 93 231 q 71 125 71 151 q 78 75 71 103 q 102 28 85 47 q 150 8 119 8 q 249 53 203 8 q 337 172 294 97 q 421 340 379 247 q 454 419 436 372 q 492 520 472 467 q 529 625 511 574 q 560 716 547 676 q 576 774 572 756 q 602 726 596 753 q 608 669 608 700 q 581 543 608 618 q 506 346 554 468 q 451 224 483 288 q 376 106 419 160 q 274 17 332 51 q 140 -17 217 -17 z "},"Ĵ":{"ha":494,"x_min":11,"x_max":774,"o":"m 140 -17 q 51 20 90 -17 q 11 122 11 57 q 18 178 11 144 q 47 238 25 211 q 111 264 68 264 q 82 191 93 231 q 71 125 71 151 q 78 75 71 103 q 102 28 85 47 q 150 8 119 8 q 249 53 203 8 q 337 172 294 97 q 421 340 379 247 q 454 419 436 372 q 492 520 472 467 q 529 625 511 574 q 560 716 547 676 q 576 774 572 756 q 602 726 596 753 q 608 669 608 700 q 581 543 608 618 q 506 346 554 468 q 451 224 483 288 q 376 106 419 160 q 274 17 332 51 q 140 -17 217 -17 m 458 826 q 451 833 451 826 q 458 846 451 840 q 519 889 489 869 q 576 925 549 908 q 609 944 592 935 q 636 954 626 954 q 659 946 644 954 q 679 931 674 938 q 722 893 694 917 q 771 846 749 869 q 774 838 774 843 q 769 828 774 832 q 763 826 765 825 q 737 837 757 828 q 694 858 717 846 q 663 878 678 868 q 626 901 647 888 q 586 881 608 892 q 547 863 564 871 q 518 850 538 858 q 481 835 499 842 q 460 826 464 828 l 458 826 z "},"K":{"ha":500,"x_min":8,"x_max":733,"o":"m 50 -17 q 19 13 29 -6 q 8 74 8 31 q 24 138 8 106 q 61 200 40 169 q 97 256 82 231 q 205 431 150 342 q 303 603 260 519 q 364 757 347 688 q 396 742 388 757 q 404 706 404 726 q 404 674 404 686 q 383 608 403 653 q 333 511 363 564 q 276 410 304 458 q 229 333 247 361 q 303 388 258 351 q 399 472 347 425 q 503 568 451 518 q 601 663 556 618 q 677 738 646 707 q 718 779 708 769 q 733 763 733 779 q 720 717 733 744 q 692 671 707 690 q 610 581 660 628 q 505 488 561 533 q 394 403 449 443 q 295 334 339 364 q 229 288 251 304 q 292 216 254 257 q 358 131 329 175 q 388 42 388 86 q 360 -12 388 -12 q 301 90 336 38 q 231 184 265 143 q 174 242 196 225 q 144 190 158 217 q 117 138 131 164 q 72 45 90 88 q 50 -17 54 3 z "},"Ķ":{"ha":500,"x_min":-6,"x_max":733,"o":"m 50 -17 q 19 13 29 -6 q 8 74 8 31 q 24 138 8 106 q 61 200 40 169 q 97 256 82 231 q 205 431 150 342 q 303 603 260 519 q 364 757 347 688 q 396 742 388 757 q 404 706 404 726 q 404 674 404 686 q 383 608 403 653 q 333 511 363 564 q 276 410 304 458 q 229 333 247 361 q 303 388 258 351 q 399 472 347 425 q 503 568 451 518 q 601 663 556 618 q 677 738 646 707 q 718 779 708 769 q 733 763 733 779 q 720 717 733 744 q 692 671 707 690 q 610 581 660 628 q 505 488 561 533 q 394 403 449 443 q 295 334 339 364 q 229 288 251 304 q 292 216 254 257 q 358 131 329 175 q 388 42 388 86 q 360 -12 388 -12 q 301 90 336 38 q 231 184 265 143 q 174 242 196 225 q 144 190 158 217 q 117 138 131 164 q 72 45 90 88 q 50 -17 54 3 m 6 -301 q 1 -294 -6 -301 l 44 -244 q 90 -188 68 -217 q 124 -129 111 -160 q 126 -117 125 -124 q 126 -106 126 -111 q 124 -92 126 -94 q 121 -85 121 -87 q 125 -82 121 -82 q 149 -92 136 -82 q 172 -139 172 -107 q 149 -200 172 -174 q 92 -245 125 -226 q 29 -281 60 -264 q 23 -286 25 -282 q 18 -293 21 -290 q 6 -301 13 -301 z "},"L":{"ha":464,"x_min":47,"x_max":450,"o":"m 157 4 q 92 19 117 4 q 58 53 68 33 q 47 90 47 74 q 87 243 47 160 q 178 408 126 326 q 249 530 213 464 q 310 656 285 596 q 335 757 335 717 q 347 760 343 760 q 382 733 369 760 q 394 685 394 707 q 381 626 394 663 q 344 546 367 589 q 275 422 314 486 q 204 297 236 357 q 174 240 193 275 q 139 167 154 204 q 124 103 124 131 q 161 68 124 68 q 256 79 208 68 q 354 90 304 90 q 420 83 392 90 q 450 43 449 76 q 441 44 446 44 q 431 44 436 44 q 365 38 404 44 q 284 24 325 32 q 208 10 243 17 q 157 4 174 4 z "},"Ǉ":{"ha":958,"x_min":47,"x_max":1072,"o":"m 157 4 q 92 19 117 4 q 58 53 68 33 q 47 90 47 74 q 87 243 47 160 q 178 408 126 326 q 249 530 213 464 q 310 656 285 596 q 335 757 335 717 q 347 760 343 760 q 382 733 369 760 q 394 685 394 707 q 381 626 394 663 q 344 546 367 589 q 275 422 314 486 q 204 297 236 357 q 174 240 193 275 q 139 167 154 204 q 124 103 124 131 q 161 68 124 68 q 256 79 208 68 q 354 90 304 90 q 420 83 392 90 q 450 43 449 76 q 441 44 446 44 q 431 44 436 44 q 365 38 404 44 q 284 24 325 32 q 208 10 243 17 q 157 4 174 4 m 604 -17 q 515 20 554 -17 q 475 122 475 57 q 482 178 475 144 q 510 238 489 211 q 575 264 532 264 q 546 191 557 231 q 535 125 535 151 q 542 75 535 103 q 566 28 549 47 q 614 8 583 8 q 713 53 667 8 q 801 172 758 97 q 885 340 843 247 q 918 419 900 372 q 956 520 936 467 q 993 625 975 574 q 1024 716 1011 676 q 1040 774 1036 756 q 1066 726 1060 753 q 1072 669 1072 700 q 1045 543 1072 618 q 969 346 1018 468 q 915 224 947 288 q 840 106 883 160 q 738 17 796 51 q 604 -17 681 -17 z "},"Ĺ":{"ha":464,"x_min":47,"x_max":524,"o":"m 157 4 q 92 19 117 4 q 58 53 68 33 q 47 90 47 74 q 87 243 47 160 q 178 408 126 326 q 249 530 213 464 q 310 656 285 596 q 335 757 335 717 q 347 760 343 760 q 382 733 369 760 q 394 685 394 707 q 381 626 394 663 q 344 546 367 589 q 275 422 314 486 q 204 297 236 357 q 174 240 193 275 q 139 167 154 204 q 124 103 124 131 q 161 68 124 68 q 256 79 208 68 q 354 90 304 90 q 420 83 392 90 q 450 43 449 76 q 441 44 446 44 q 431 44 436 44 q 365 38 404 44 q 284 24 325 32 q 208 10 243 17 q 157 4 174 4 m 351 814 q 343 819 347 813 q 347 833 339 826 q 406 890 374 857 q 453 936 439 922 q 467 949 458 943 q 485 956 476 956 q 515 947 506 956 q 524 933 524 939 q 505 915 524 931 q 463 884 486 900 q 428 860 440 868 q 403 843 419 854 q 371 824 386 832 q 351 814 356 815 z "},"Ľ":{"ha":464,"x_min":47,"x_max":597,"o":"m 157 4 q 92 19 117 4 q 58 53 68 33 q 47 90 47 74 q 87 243 47 160 q 178 408 126 326 q 249 530 213 464 q 310 656 285 596 q 335 757 335 717 q 347 760 343 760 q 382 733 369 760 q 394 685 394 707 q 381 626 394 663 q 344 546 367 589 q 275 422 314 486 q 204 297 236 357 q 174 240 193 275 q 139 167 154 204 q 124 103 124 131 q 161 68 124 68 q 256 79 208 68 q 354 90 304 90 q 420 83 392 90 q 450 43 449 76 q 441 44 446 44 q 431 44 436 44 q 365 38 404 44 q 284 24 325 32 q 208 10 243 17 q 157 4 174 4 m 464 576 q 461 575 464 575 q 461 583 458 575 q 475 610 464 589 q 501 658 486 631 q 529 708 515 685 q 553 743 543 732 q 582 761 567 761 q 597 742 597 761 q 594 727 597 736 q 585 708 592 718 q 530 638 563 674 q 464 576 497 603 z "},"Ļ":{"ha":464,"x_min":47,"x_max":450,"o":"m 157 4 q 92 19 117 4 q 58 53 68 33 q 47 90 47 74 q 87 243 47 160 q 178 408 126 326 q 249 530 213 464 q 310 656 285 596 q 335 757 335 717 q 347 760 343 760 q 382 733 369 760 q 394 685 394 707 q 381 626 394 663 q 344 546 367 589 q 275 422 314 486 q 204 297 236 357 q 174 240 193 275 q 139 167 154 204 q 124 103 124 131 q 161 68 124 68 q 256 79 208 68 q 354 90 304 90 q 420 83 392 90 q 450 43 449 76 q 441 44 446 44 q 431 44 436 44 q 365 38 404 44 q 284 24 325 32 q 208 10 243 17 q 157 4 174 4 m 63 -301 q 58 -294 51 -301 l 101 -244 q 147 -188 125 -217 q 181 -129 168 -160 q 183 -117 182 -124 q 183 -106 183 -111 q 181 -92 183 -94 q 178 -85 178 -87 q 182 -82 178 -82 q 206 -92 193 -82 q 229 -139 229 -107 q 206 -200 229 -174 q 149 -245 182 -226 q 86 -281 117 -264 q 80 -286 82 -282 q 75 -293 78 -290 q 63 -301 69 -301 z "},"Ŀ":{"ha":464,"x_min":47,"x_max":450,"o":"m 157 4 q 92 19 117 4 q 58 53 68 33 q 47 90 47 74 q 87 243 47 160 q 178 408 126 326 q 249 530 213 464 q 310 656 285 596 q 335 757 335 717 q 347 760 343 760 q 382 733 369 760 q 394 685 394 707 q 381 626 394 663 q 344 546 367 589 q 275 422 314 486 q 204 297 236 357 q 174 240 193 275 q 139 167 154 204 q 124 103 124 131 q 161 68 124 68 q 256 79 208 68 q 354 90 304 90 q 420 83 392 90 q 450 43 449 76 q 441 44 446 44 q 431 44 436 44 q 365 38 404 44 q 284 24 325 32 q 208 10 243 17 q 157 4 174 4 m 271 261 q 247 269 256 261 q 232 288 239 276 q 229 299 229 296 q 234 315 229 308 q 243 326 239 322 q 264 342 253 335 q 288 356 275 350 q 307 365 299 361 q 325 374 315 368 q 332 374 329 376 q 333 367 335 371 q 319 329 325 354 q 304 283 314 304 q 271 261 294 261 z "},"ǈ":{"ha":732,"x_min":47,"x_max":803,"o":"m 157 4 q 92 19 117 4 q 58 53 68 33 q 47 90 47 74 q 87 243 47 160 q 178 408 126 326 q 249 530 213 464 q 310 656 285 596 q 335 757 335 717 q 347 760 343 760 q 382 733 369 760 q 394 685 394 707 q 381 626 394 663 q 344 546 367 589 q 275 422 314 486 q 204 297 236 357 q 174 240 193 275 q 139 167 154 204 q 124 103 124 131 q 161 68 124 68 q 256 79 208 68 q 354 90 304 90 q 420 83 392 90 q 450 43 449 76 q 441 44 446 44 q 431 44 436 44 q 365 38 404 44 q 284 24 325 32 q 208 10 243 17 q 157 4 174 4 m 754 549 q 729 559 739 549 q 719 583 719 569 q 734 619 719 604 q 767 633 749 633 q 793 623 783 633 q 803 597 803 613 q 788 563 803 578 q 754 549 774 549 m 239 -467 q 189 -454 206 -467 q 167 -424 172 -442 q 161 -392 161 -406 q 198 -294 161 -346 q 290 -189 235 -242 q 406 -87 346 -136 q 511 -1 465 -39 q 535 60 519 19 q 567 147 550 100 q 601 240 585 194 q 628 317 617 285 q 640 358 639 349 q 680 438 651 419 q 729 457 708 457 q 747 454 739 457 q 738 405 749 442 q 707 318 726 368 q 666 216 688 268 q 625 117 644 164 q 594 43 606 71 l 610 54 q 681 108 646 81 q 732 156 715 136 q 759 185 747 171 q 782 214 771 199 q 789 218 786 218 q 797 207 797 218 q 792 193 797 199 q 731 119 763 157 q 690 81 722 110 q 621 28 657 53 q 601 14 613 22 q 579 0 590 6 q 478 -247 529 -142 q 370 -409 428 -351 q 239 -467 313 -467 m 232 -440 q 291 -412 263 -440 q 349 -342 319 -385 q 407 -239 378 -294 q 459 -131 436 -183 q 494 -43 482 -79 q 395 -133 447 -86 q 297 -228 343 -181 q 221 -318 250 -275 q 192 -397 192 -361 q 200 -425 192 -410 q 232 -440 208 -440 z "},"Ł":{"ha":469,"x_min":-6,"x_max":450,"o":"m 157 4 q 92 19 117 4 q 58 53 68 33 q 47 90 47 74 q 56 156 47 122 q 81 228 65 190 l 43 217 q 29 215 38 215 q 4 229 11 215 q -6 260 -3 243 q 42 269 10 261 q 110 289 74 278 q 142 349 125 319 q 178 408 160 379 q 247 526 213 464 q 303 646 281 589 q 326 743 326 703 q 339 746 335 746 q 372 719 360 746 q 385 671 385 693 q 371 611 385 649 q 335 531 357 574 q 278 428 308 479 q 219 326 249 378 q 255 338 239 333 q 279 343 271 342 q 285 344 282 343 q 292 344 289 344 q 324 328 318 344 q 335 294 331 311 q 310 300 329 300 q 274 296 296 300 q 221 279 253 292 q 208 274 217 278 q 186 265 199 269 q 146 182 168 229 q 124 103 124 135 q 161 68 124 68 q 256 79 208 68 q 354 90 304 90 q 420 83 392 90 q 450 43 449 76 q 441 44 446 44 q 431 44 436 44 q 365 38 404 44 q 284 24 325 32 q 208 10 243 17 q 157 4 174 4 z "},"M":{"ha":764,"x_min":11,"x_max":881,"o":"m 54 -17 q 22 14 33 -6 q 11 74 11 33 q 27 135 11 103 q 65 199 43 168 q 101 256 86 231 q 209 431 154 342 q 307 603 264 519 q 367 757 350 688 q 378 758 369 758 q 430 734 403 758 q 460 686 457 710 q 460 678 460 682 q 461 668 461 674 q 450 583 461 633 q 426 478 439 533 q 403 368 413 422 q 384 258 393 311 q 368 169 375 206 q 444 270 401 213 q 535 392 488 328 q 628 517 582 456 q 712 631 674 579 q 774 718 750 683 q 803 760 799 753 q 854 746 828 760 q 881 704 881 732 q 876 683 881 699 q 846 618 872 668 q 756 438 803 529 q 669 251 708 346 q 635 166 653 210 q 601 74 618 122 q 590 22 592 44 q 586 -12 588 0 q 544 30 557 3 q 531 90 531 57 q 556 196 531 135 q 617 324 581 257 q 691 456 654 392 q 753 574 728 521 q 778 658 778 626 q 760 633 778 658 q 714 571 742 608 q 657 493 686 533 q 605 422 628 453 q 574 381 582 392 q 463 231 514 299 q 386 114 413 164 q 367 62 372 85 q 363 21 363 39 q 315 51 328 21 q 303 121 303 82 q 306 169 303 144 q 311 211 308 193 q 336 348 321 271 q 367 501 351 425 q 392 629 383 576 q 357 549 379 593 q 310 462 335 506 q 264 382 286 418 q 229 326 242 346 q 174 237 203 288 q 121 138 146 186 q 76 45 94 88 q 54 -17 57 3 z "},"N":{"ha":564,"x_min":10,"x_max":728,"o":"m 46 -17 q 10 49 10 3 q 24 118 10 81 q 57 192 38 156 q 93 256 76 229 q 199 426 146 342 q 292 592 251 511 q 350 743 333 672 q 363 746 358 746 q 413 721 388 746 q 443 672 438 696 q 439 590 447 639 q 418 484 431 542 q 394 368 406 426 q 372 247 385 308 q 356 121 358 186 q 403 226 372 169 q 464 332 433 282 q 510 407 494 382 q 565 497 536 447 q 619 596 593 547 q 664 690 646 647 q 685 751 682 732 q 717 721 707 740 q 728 661 728 701 q 712 599 728 632 q 674 536 696 567 q 638 479 653 506 q 532 306 586 394 q 435 136 478 218 q 376 -17 393 54 q 376 -15 376 -15 q 375 -14 375 -15 q 317 26 338 -11 q 297 128 297 64 q 299 168 297 147 q 304 211 300 189 q 327 344 314 271 q 353 490 340 418 q 375 615 367 563 q 353 563 372 601 q 307 476 333 524 q 257 388 281 429 q 221 326 233 346 q 167 235 196 286 q 111 134 138 185 q 67 43 85 83 q 46 -17 49 3 z "},"Ǌ":{"ha":1026,"x_min":10,"x_max":1140,"o":"m 46 -17 q 10 49 10 3 q 24 118 10 81 q 57 192 38 156 q 93 256 76 229 q 199 426 146 342 q 292 592 251 511 q 350 743 333 672 q 363 746 358 746 q 413 721 388 746 q 443 672 438 696 q 439 590 447 639 q 418 484 431 542 q 394 368 406 426 q 372 247 385 308 q 356 121 358 186 q 403 226 372 169 q 464 332 433 282 q 510 407 494 382 q 565 497 536 447 q 619 596 593 547 q 664 690 646 647 q 685 751 682 732 q 717 721 707 740 q 728 661 728 701 q 712 599 728 632 q 674 536 696 567 q 638 479 653 506 q 532 306 586 394 q 435 136 478 218 q 376 -17 393 54 q 376 -15 376 -15 q 375 -14 375 -15 q 317 26 338 -11 q 297 128 297 64 q 299 168 297 147 q 304 211 300 189 q 327 344 314 271 q 353 490 340 418 q 375 615 367 563 q 353 563 372 601 q 307 476 333 524 q 257 388 281 429 q 221 326 233 346 q 167 235 196 286 q 111 134 138 185 q 67 43 85 83 q 46 -17 49 3 m 672 -17 q 583 20 622 -17 q 543 122 543 57 q 550 178 543 144 q 578 238 557 211 q 643 264 600 264 q 614 191 625 231 q 603 125 603 151 q 610 75 603 103 q 634 28 617 47 q 682 8 651 8 q 781 53 735 8 q 869 172 826 97 q 953 340 911 247 q 986 419 968 372 q 1024 520 1004 467 q 1061 625 1043 574 q 1092 716 1079 676 q 1108 774 1104 756 q 1134 726 1128 753 q 1140 669 1140 700 q 1113 543 1140 618 q 1038 346 1086 468 q 983 224 1015 288 q 908 106 951 160 q 806 17 864 51 q 672 -17 749 -17 z "},"Ń":{"ha":564,"x_min":10,"x_max":728,"o":"m 46 -17 q 10 49 10 3 q 24 118 10 81 q 57 192 38 156 q 93 256 76 229 q 199 426 146 342 q 292 592 251 511 q 350 743 333 672 q 363 746 358 746 q 413 721 388 746 q 443 672 438 696 q 439 590 447 639 q 418 484 431 542 q 394 368 406 426 q 372 247 385 308 q 356 121 358 186 q 403 226 372 169 q 464 332 433 282 q 510 407 494 382 q 565 497 536 447 q 619 596 593 547 q 664 690 646 647 q 685 751 682 732 q 717 721 707 740 q 728 661 728 701 q 712 599 728 632 q 674 536 696 567 q 638 479 653 506 q 532 306 586 394 q 435 136 478 218 q 376 -17 393 54 q 376 -15 376 -15 q 375 -14 375 -15 q 317 26 338 -11 q 297 128 297 64 q 299 168 297 147 q 304 211 300 189 q 327 344 314 271 q 353 490 340 418 q 375 615 367 563 q 353 563 372 601 q 307 476 333 524 q 257 388 281 429 q 221 326 233 346 q 167 235 196 286 q 111 134 138 185 q 67 43 85 83 q 46 -17 49 3 m 510 814 q 501 819 506 813 q 506 833 497 826 q 565 890 532 857 q 611 936 597 922 q 626 949 617 943 q 643 956 635 956 q 673 947 664 956 q 682 933 682 939 q 663 915 682 931 q 622 884 644 900 q 586 860 599 868 q 561 843 578 854 q 529 824 544 832 q 510 814 514 815 z "},"Ň":{"ha":564,"x_min":10,"x_max":728,"o":"m 718 943 q 725 936 725 943 q 718 924 725 929 q 658 881 688 900 q 600 844 628 861 q 567 825 585 835 q 540 815 550 815 q 518 824 532 815 q 497 839 504 833 q 455 876 482 853 q 406 924 428 900 q 403 932 403 926 q 407 941 403 938 q 414 943 411 944 q 440 933 419 942 q 482 911 460 924 q 514 892 499 901 q 550 868 529 882 q 590 889 568 879 q 629 907 613 899 q 658 921 639 913 q 696 936 678 929 q 717 943 714 943 l 718 943 m 46 -17 q 10 49 10 3 q 24 118 10 81 q 57 192 38 156 q 93 256 76 229 q 199 426 146 342 q 292 592 251 511 q 350 743 333 672 q 363 746 358 746 q 413 721 388 746 q 443 672 438 696 q 439 590 447 639 q 418 484 431 542 q 394 368 406 426 q 372 247 385 308 q 356 121 358 186 q 403 226 372 169 q 464 332 433 282 q 510 407 494 382 q 565 497 536 447 q 619 596 593 547 q 664 690 646 647 q 685 751 682 732 q 717 721 707 740 q 728 661 728 701 q 712 599 728 632 q 674 536 696 567 q 638 479 653 506 q 532 306 586 394 q 435 136 478 218 q 376 -17 393 54 q 376 -15 376 -15 q 375 -14 375 -15 q 317 26 338 -11 q 297 128 297 64 q 299 168 297 147 q 304 211 300 189 q 327 344 314 271 q 353 490 340 418 q 375 615 367 563 q 353 563 372 601 q 307 476 333 524 q 257 388 281 429 q 221 326 233 346 q 167 235 196 286 q 111 134 138 185 q 67 43 85 83 q 46 -17 49 3 z "},"Ņ":{"ha":564,"x_min":6,"x_max":728,"o":"m 46 -17 q 10 49 10 3 q 24 118 10 81 q 57 192 38 156 q 93 256 76 229 q 199 426 146 342 q 292 592 251 511 q 350 743 333 672 q 363 746 358 746 q 413 721 388 746 q 443 672 438 696 q 439 590 447 639 q 418 484 431 542 q 394 368 406 426 q 372 247 385 308 q 356 121 358 186 q 403 226 372 169 q 464 332 433 282 q 510 407 494 382 q 565 497 536 447 q 619 596 593 547 q 664 690 646 647 q 685 751 682 732 q 717 721 707 740 q 728 661 728 701 q 712 599 728 632 q 674 536 696 567 q 638 479 653 506 q 532 306 586 394 q 435 136 478 218 q 376 -17 393 54 q 376 -15 376 -15 q 375 -14 375 -15 q 317 26 338 -11 q 297 128 297 64 q 299 168 297 147 q 304 211 300 189 q 327 344 314 271 q 353 490 340 418 q 375 615 367 563 q 353 563 372 601 q 307 476 333 524 q 257 388 281 429 q 221 326 233 346 q 167 235 196 286 q 111 134 138 185 q 67 43 85 83 q 46 -17 49 3 m 17 -301 q 13 -294 6 -301 l 56 -244 q 101 -188 79 -217 q 135 -129 122 -160 q 137 -117 136 -124 q 138 -106 138 -111 q 135 -92 138 -94 q 132 -85 132 -87 q 136 -82 132 -82 q 160 -92 147 -82 q 183 -139 183 -107 q 160 -200 183 -174 q 103 -245 136 -226 q 40 -281 71 -264 q 34 -286 36 -282 q 29 -293 32 -290 q 17 -301 24 -301 z "},"ǋ":{"ha":832,"x_min":10,"x_max":903,"o":"m 46 -17 q 10 49 10 3 q 24 118 10 81 q 57 192 38 156 q 93 256 76 229 q 199 426 146 342 q 292 592 251 511 q 350 743 333 672 q 363 746 358 746 q 413 721 388 746 q 443 672 438 696 q 439 590 447 639 q 418 484 431 542 q 394 368 406 426 q 372 247 385 308 q 356 121 358 186 q 403 226 372 169 q 464 332 433 282 q 510 407 494 382 q 565 497 536 447 q 619 596 593 547 q 664 690 646 647 q 685 751 682 732 q 717 721 707 740 q 728 661 728 701 q 712 599 728 632 q 674 536 696 567 q 638 479 653 506 q 532 306 586 394 q 435 136 478 218 q 376 -17 393 54 q 376 -15 376 -15 q 375 -14 375 -15 q 317 26 338 -11 q 297 128 297 64 q 299 168 297 147 q 304 211 300 189 q 327 344 314 271 q 353 490 340 418 q 375 615 367 563 q 353 563 372 601 q 307 476 333 524 q 257 388 281 429 q 221 326 233 346 q 167 235 196 286 q 111 134 138 185 q 67 43 85 83 q 46 -17 49 3 m 854 549 q 829 559 839 549 q 819 583 819 569 q 834 619 819 604 q 867 633 849 633 q 893 623 883 633 q 903 597 903 613 q 888 563 903 578 q 854 549 874 549 m 339 -467 q 289 -454 306 -467 q 267 -424 272 -442 q 261 -392 261 -406 q 298 -294 261 -346 q 390 -189 335 -242 q 506 -87 446 -136 q 611 -1 565 -39 q 635 60 619 19 q 667 147 650 100 q 701 240 685 194 q 728 317 717 285 q 740 358 739 349 q 780 438 751 419 q 829 457 808 457 q 847 454 839 457 q 838 405 849 442 q 807 318 826 368 q 766 216 788 268 q 725 117 744 164 q 694 43 706 71 l 710 54 q 781 108 746 81 q 832 156 815 136 q 859 185 847 171 q 882 214 871 199 q 889 218 886 218 q 897 207 897 218 q 892 193 897 199 q 831 119 863 157 q 790 81 822 110 q 721 28 757 53 q 701 14 713 22 q 679 0 690 6 q 578 -247 629 -142 q 470 -409 528 -351 q 339 -467 413 -467 m 332 -440 q 391 -412 363 -440 q 449 -342 419 -385 q 507 -239 478 -294 q 559 -131 536 -183 q 594 -43 582 -79 q 495 -133 547 -86 q 397 -228 443 -181 q 321 -318 350 -275 q 292 -397 292 -361 q 300 -425 292 -410 q 332 -440 308 -440 z "},"Ñ":{"ha":564,"x_min":10,"x_max":728,"o":"m 46 -17 q 10 49 10 3 q 24 118 10 81 q 57 192 38 156 q 93 256 76 229 q 199 426 146 342 q 292 592 251 511 q 350 743 333 672 q 363 746 358 746 q 413 721 388 746 q 443 672 438 696 q 439 590 447 639 q 418 484 431 542 q 394 368 406 426 q 372 247 385 308 q 356 121 358 186 q 403 226 372 169 q 464 332 433 282 q 510 407 494 382 q 565 497 536 447 q 619 596 593 547 q 664 690 646 647 q 685 751 682 732 q 717 721 707 740 q 728 661 728 701 q 712 599 728 632 q 674 536 696 567 q 638 479 653 506 q 532 306 586 394 q 435 136 478 218 q 376 -17 393 54 q 376 -15 376 -15 q 375 -14 375 -15 q 317 26 338 -11 q 297 128 297 64 q 299 168 297 147 q 304 211 300 189 q 327 344 314 271 q 353 490 340 418 q 375 615 367 563 q 353 563 372 601 q 307 476 333 524 q 257 388 281 429 q 221 326 233 346 q 167 235 196 286 q 111 134 138 185 q 67 43 85 83 q 46 -17 49 3 m 618 813 q 567 824 588 813 q 530 847 547 836 q 489 858 513 858 q 450 841 465 858 q 426 814 435 824 q 417 817 417 810 q 431 856 417 836 q 465 888 444 875 q 508 901 486 901 q 558 890 535 901 q 602 868 581 879 q 646 857 624 857 q 671 871 661 857 q 692 903 681 885 q 699 901 696 903 q 703 888 703 899 q 688 850 703 867 q 653 823 672 833 q 618 813 633 813 z "},"O":{"ha":639,"x_min":81,"x_max":707,"o":"m 281 -12 q 128 51 175 -12 q 81 208 81 115 q 102 351 81 276 q 163 496 124 425 q 254 624 201 567 q 370 716 307 682 q 501 750 433 750 q 660 689 613 750 q 707 538 707 628 q 684 394 707 469 q 620 247 661 319 q 525 116 579 175 q 408 22 471 57 q 281 -12 346 -12 m 274 19 q 386 55 333 19 q 483 148 439 90 q 558 276 526 206 q 608 419 590 347 q 625 550 625 490 q 601 662 625 618 q 525 706 578 706 q 411 671 465 706 q 312 578 357 636 q 233 449 267 519 q 180 308 199 379 q 161 175 161 236 q 188 63 161 107 q 274 19 214 19 z "},"Œ":{"ha":846,"x_min":36,"x_max":1046,"o":"m 232 -1 q 82 61 128 -1 q 36 213 36 124 q 57 351 36 278 q 115 492 78 424 q 201 617 151 561 q 308 705 250 672 q 429 738 367 738 q 578 688 529 738 q 633 560 626 638 q 697 639 669 607 q 735 681 725 671 q 700 689 717 681 q 683 710 683 697 q 695 724 683 717 q 738 736 707 731 q 829 744 783 742 q 913 747 875 746 q 971 747 951 747 q 1035 731 1024 747 q 1046 688 1046 715 q 1010 692 1035 690 q 957 693 986 693 q 910 692 935 693 q 867 689 886 692 q 815 679 839 686 q 775 658 790 672 q 745 620 765 649 q 700 554 725 592 q 651 478 675 517 q 610 407 628 439 q 586 358 592 375 q 647 370 608 363 q 732 378 685 378 q 797 340 797 378 q 796 331 797 336 q 792 321 794 326 l 567 321 q 555 299 568 324 q 524 238 542 275 q 494 161 507 200 q 481 93 481 122 q 507 67 481 67 q 601 78 551 67 q 703 90 650 90 q 768 83 739 90 q 799 43 797 76 q 790 44 794 44 q 779 44 785 44 q 713 38 753 44 q 632 24 674 32 q 556 10 590 17 q 506 4 522 4 q 435 23 460 4 q 401 64 410 42 q 319 16 363 33 q 232 -1 276 -1 m 214 31 q 313 58 265 31 q 399 129 360 85 q 445 265 410 193 q 526 408 481 338 l 551 446 q 564 556 564 504 q 544 656 564 617 q 479 696 524 696 q 361 662 417 696 q 259 571 306 628 q 178 446 213 514 q 126 308 144 378 q 108 179 108 239 q 133 73 108 115 q 214 31 158 31 z "},"Ó":{"ha":639,"x_min":81,"x_max":707,"o":"m 281 -12 q 128 51 175 -12 q 81 208 81 115 q 102 351 81 276 q 163 496 124 425 q 254 624 201 567 q 370 716 307 682 q 501 750 433 750 q 660 689 613 750 q 707 538 707 628 q 684 394 707 469 q 620 247 661 319 q 525 116 579 175 q 408 22 471 57 q 281 -12 346 -12 m 274 19 q 386 55 333 19 q 483 148 439 90 q 558 276 526 206 q 608 419 590 347 q 625 550 625 490 q 601 662 625 618 q 525 706 578 706 q 411 671 465 706 q 312 578 357 636 q 233 449 267 519 q 180 308 199 379 q 161 175 161 236 q 188 63 161 107 q 274 19 214 19 m 517 810 q 508 815 513 808 q 513 829 504 822 q 572 885 539 853 q 618 932 604 918 q 633 945 624 939 q 650 951 642 951 q 680 943 671 951 q 689 929 689 935 q 670 911 689 926 q 628 880 651 896 q 593 856 606 864 q 568 839 585 850 q 536 819 551 828 q 517 810 521 811 z "},"Ŏ":{"ha":639,"x_min":81,"x_max":735,"o":"m 281 -12 q 128 51 175 -12 q 81 208 81 115 q 102 351 81 276 q 163 496 124 425 q 254 624 201 567 q 370 716 307 682 q 501 750 433 750 q 660 689 613 750 q 707 538 707 628 q 684 394 707 469 q 620 247 661 319 q 525 116 579 175 q 408 22 471 57 q 281 -12 346 -12 m 274 19 q 386 55 333 19 q 483 148 439 90 q 558 276 526 206 q 608 419 590 347 q 625 550 625 490 q 601 662 625 618 q 525 706 578 706 q 411 671 465 706 q 312 578 357 636 q 233 449 267 519 q 180 308 199 379 q 161 175 161 236 q 188 63 161 107 q 274 19 214 19 m 546 811 q 472 835 499 811 q 444 890 444 860 q 468 942 444 942 q 478 929 478 942 q 499 881 478 899 q 554 864 521 864 q 605 867 576 864 q 660 884 633 871 q 703 926 688 897 q 713 941 710 938 q 722 944 717 944 q 731 933 735 944 q 659 839 708 867 q 546 811 610 811 z "},"Ǒ":{"ha":639,"x_min":81,"x_max":732,"o":"m 725 939 q 732 932 732 939 q 725 919 732 925 q 665 876 694 896 q 607 840 635 857 q 574 821 592 831 q 547 811 557 811 q 525 820 539 811 q 504 835 511 829 q 462 872 489 849 q 413 919 435 896 q 410 928 410 922 q 414 937 410 933 q 421 939 418 940 q 447 928 426 938 q 489 907 467 919 q 521 888 506 897 q 557 864 536 878 q 597 885 575 875 q 636 903 619 894 q 665 917 646 908 q 703 932 685 925 q 724 939 721 939 l 725 939 m 281 -12 q 128 51 175 -12 q 81 208 81 115 q 102 351 81 276 q 163 496 124 425 q 254 624 201 567 q 370 716 307 682 q 501 750 433 750 q 660 689 613 750 q 707 538 707 628 q 684 394 707 469 q 620 247 661 319 q 525 116 579 175 q 408 22 471 57 q 281 -12 346 -12 m 274 19 q 386 55 333 19 q 483 148 439 90 q 558 276 526 206 q 608 419 590 347 q 625 550 625 490 q 601 662 625 618 q 525 706 578 706 q 411 671 465 706 q 312 578 357 636 q 233 449 267 519 q 180 308 199 379 q 161 175 161 236 q 188 63 161 107 q 274 19 214 19 z "},"Ô":{"ha":639,"x_min":81,"x_max":714,"o":"m 281 -12 q 128 51 175 -12 q 81 208 81 115 q 102 351 81 276 q 163 496 124 425 q 254 624 201 567 q 370 716 307 682 q 501 750 433 750 q 660 689 613 750 q 707 538 707 628 q 684 394 707 469 q 620 247 661 319 q 525 116 579 175 q 408 22 471 57 q 281 -12 346 -12 m 274 19 q 386 55 333 19 q 483 148 439 90 q 558 276 526 206 q 608 419 590 347 q 625 550 625 490 q 601 662 625 618 q 525 706 578 706 q 411 671 465 706 q 312 578 357 636 q 233 449 267 519 q 180 308 199 379 q 161 175 161 236 q 188 63 161 107 q 274 19 214 19 m 399 804 q 392 811 392 804 q 399 824 392 818 q 459 867 429 847 q 517 903 489 886 q 549 922 532 913 q 576 932 567 932 q 599 924 585 932 q 619 908 614 915 q 662 871 635 894 q 711 824 689 847 q 714 815 714 821 q 710 806 714 810 q 703 804 706 803 q 677 815 697 806 q 635 836 657 824 q 603 856 618 846 q 567 879 588 865 q 526 859 549 869 q 488 840 504 849 q 458 828 478 836 q 422 813 439 819 q 400 804 404 806 l 399 804 z "},"Ố":{"ha":639,"x_min":81,"x_max":853,"o":"m 281 -12 q 128 51 175 -12 q 81 208 81 115 q 102 351 81 276 q 163 496 124 425 q 254 624 201 567 q 370 716 307 682 q 501 750 433 750 q 660 689 613 750 q 707 538 707 628 q 684 394 707 469 q 620 247 661 319 q 525 116 579 175 q 408 22 471 57 q 281 -12 346 -12 m 274 19 q 386 55 333 19 q 483 148 439 90 q 558 276 526 206 q 608 419 590 347 q 625 550 625 490 q 601 662 625 618 q 525 706 578 706 q 411 671 465 706 q 312 578 357 636 q 233 449 267 519 q 180 308 199 379 q 161 175 161 236 q 188 63 161 107 q 274 19 214 19 m 399 804 q 392 811 392 804 q 399 824 392 818 q 459 867 429 847 q 517 903 489 886 q 549 922 532 913 q 576 932 567 932 q 599 924 585 932 q 619 908 614 915 q 662 871 635 894 q 711 824 689 847 q 714 815 714 821 q 710 806 714 810 q 703 804 706 803 q 677 815 697 806 q 635 836 657 824 q 603 856 618 846 q 567 879 588 865 q 526 859 549 869 q 488 840 504 849 q 458 828 478 836 q 422 813 439 819 q 400 804 404 806 l 399 804 m 681 938 q 672 943 676 936 q 676 957 668 950 q 735 1013 703 981 q 782 1060 768 1046 q 797 1073 788 1067 q 814 1079 806 1079 q 844 1071 835 1079 q 853 1057 853 1063 q 834 1039 853 1054 q 792 1008 815 1024 q 757 983 769 992 q 732 967 749 978 q 700 947 715 956 q 681 938 685 939 z "},"Ộ":{"ha":639,"x_min":81,"x_max":714,"o":"m 281 -12 q 128 51 175 -12 q 81 208 81 115 q 102 351 81 276 q 163 496 124 425 q 254 624 201 567 q 370 716 307 682 q 501 750 433 750 q 660 689 613 750 q 707 538 707 628 q 684 394 707 469 q 620 247 661 319 q 525 116 579 175 q 408 22 471 57 q 281 -12 346 -12 m 274 19 q 386 55 333 19 q 483 148 439 90 q 558 276 526 206 q 608 419 590 347 q 625 550 625 490 q 601 662 625 618 q 525 706 578 706 q 411 671 465 706 q 312 578 357 636 q 233 449 267 519 q 180 308 199 379 q 161 175 161 236 q 188 63 161 107 q 274 19 214 19 m 146 -172 q 124 -166 132 -172 q 113 -151 117 -160 q 110 -140 110 -147 q 121 -117 110 -125 q 158 -92 138 -101 q 167 -90 160 -92 q 183 -87 175 -87 q 193 -99 199 -87 q 183 -126 186 -108 q 172 -158 179 -144 q 146 -172 165 -172 m 399 804 q 392 811 392 804 q 399 824 392 818 q 459 867 429 847 q 517 903 489 886 q 549 922 532 913 q 576 932 567 932 q 599 924 585 932 q 619 908 614 915 q 662 871 635 894 q 711 824 689 847 q 714 815 714 821 q 710 806 714 810 q 703 804 706 803 q 677 815 697 806 q 635 836 657 824 q 603 856 618 846 q 567 879 588 865 q 526 859 549 869 q 488 840 504 849 q 458 828 478 836 q 422 813 439 819 q 400 804 404 806 l 399 804 z "},"Ồ":{"ha":639,"x_min":81,"x_max":744,"o":"m 281 -12 q 128 51 175 -12 q 81 208 81 115 q 102 351 81 276 q 163 496 124 425 q 254 624 201 567 q 370 716 307 682 q 501 750 433 750 q 660 689 613 750 q 707 538 707 628 q 684 394 707 469 q 620 247 661 319 q 525 116 579 175 q 408 22 471 57 q 281 -12 346 -12 m 274 19 q 386 55 333 19 q 483 148 439 90 q 558 276 526 206 q 608 419 590 347 q 625 550 625 490 q 601 662 625 618 q 525 706 578 706 q 411 671 465 706 q 312 578 357 636 q 233 449 267 519 q 180 308 199 379 q 161 175 161 236 q 188 63 161 107 q 274 19 214 19 m 399 804 q 392 811 392 804 q 399 824 392 818 q 459 867 429 847 q 517 903 489 886 q 549 922 532 913 q 576 932 567 932 q 599 924 585 932 q 619 908 614 915 q 662 871 635 894 q 711 824 689 847 q 714 815 714 821 q 710 806 714 810 q 703 804 706 803 q 677 815 697 806 q 635 836 657 824 q 603 856 618 846 q 567 879 588 865 q 526 859 549 869 q 488 840 504 849 q 458 828 478 836 q 422 813 439 819 q 400 804 404 806 l 399 804 m 733 933 q 715 944 731 935 q 683 963 700 953 q 658 979 667 974 q 623 1003 646 988 q 581 1035 600 1019 q 561 1053 563 1050 q 571 1066 561 1058 q 599 1075 581 1074 l 601 1075 q 619 1069 610 1075 q 633 1056 628 1063 q 661 1029 643 1047 q 701 990 679 1011 q 739 953 722 969 q 744 943 744 949 q 740 935 744 939 q 733 933 736 932 z "},"Ổ":{"ha":639,"x_min":81,"x_max":829,"o":"m 281 -12 q 128 51 175 -12 q 81 208 81 115 q 102 351 81 276 q 163 496 124 425 q 254 624 201 567 q 370 716 307 682 q 501 750 433 750 q 660 689 613 750 q 707 538 707 628 q 684 394 707 469 q 620 247 661 319 q 525 116 579 175 q 408 22 471 57 q 281 -12 346 -12 m 274 19 q 386 55 333 19 q 483 148 439 90 q 558 276 526 206 q 608 419 590 347 q 625 550 625 490 q 601 662 625 618 q 525 706 578 706 q 411 671 465 706 q 312 578 357 636 q 233 449 267 519 q 180 308 199 379 q 161 175 161 236 q 188 63 161 107 q 274 19 214 19 m 399 804 q 392 811 392 804 q 399 824 392 818 q 459 867 429 847 q 517 903 489 886 q 549 922 532 913 q 576 932 567 932 q 599 924 585 932 q 619 908 614 915 q 662 871 635 894 q 711 824 689 847 q 714 815 714 821 q 710 806 714 810 q 703 804 706 803 q 677 815 697 806 q 635 836 657 824 q 603 856 618 846 q 567 879 588 865 q 526 859 549 869 q 488 840 504 849 q 458 828 478 836 q 422 813 439 819 q 400 804 404 806 l 399 804 m 743 899 q 724 891 733 892 q 722 900 715 890 q 752 940 742 928 q 771 971 763 953 q 776 987 775 979 q 778 1000 778 994 q 765 1027 778 1019 q 732 1035 751 1035 q 678 1021 701 1035 q 664 1017 672 1017 q 657 1022 657 1017 q 669 1040 657 1029 q 709 1065 688 1056 q 760 1074 731 1074 q 813 1058 797 1074 q 829 1019 829 1043 q 814 967 829 994 q 777 923 796 936 q 743 899 758 910 z "},"Ỗ":{"ha":639,"x_min":81,"x_max":760,"o":"m 281 -12 q 128 51 175 -12 q 81 208 81 115 q 102 351 81 276 q 163 496 124 425 q 254 624 201 567 q 370 716 307 682 q 501 750 433 750 q 660 689 613 750 q 707 538 707 628 q 684 394 707 469 q 620 247 661 319 q 525 116 579 175 q 408 22 471 57 q 281 -12 346 -12 m 274 19 q 386 55 333 19 q 483 148 439 90 q 558 276 526 206 q 608 419 590 347 q 625 550 625 490 q 601 662 625 618 q 525 706 578 706 q 411 671 465 706 q 312 578 357 636 q 233 449 267 519 q 180 308 199 379 q 161 175 161 236 q 188 63 161 107 q 274 19 214 19 m 399 804 q 392 811 392 804 q 399 824 392 818 q 459 867 429 847 q 517 903 489 886 q 549 922 532 913 q 576 932 567 932 q 599 924 585 932 q 619 908 614 915 q 662 871 635 894 q 711 824 689 847 q 714 815 714 821 q 710 806 714 810 q 703 804 706 803 q 677 815 697 806 q 635 836 657 824 q 603 856 618 846 q 567 879 588 865 q 526 859 549 869 q 488 840 504 849 q 458 828 478 836 q 422 813 439 819 q 400 804 404 806 l 399 804 m 675 974 q 624 985 644 974 q 587 1008 604 997 q 546 1019 569 1019 q 507 1002 522 1019 q 483 975 492 985 q 474 978 474 971 q 488 1017 474 997 q 522 1049 501 1036 q 565 1063 543 1063 q 615 1051 592 1063 q 659 1029 638 1040 q 703 1018 681 1018 q 728 1032 718 1018 q 749 1064 738 1046 q 756 1062 753 1064 q 760 1049 760 1060 q 744 1011 760 1028 q 710 984 729 994 q 675 974 690 974 z "},"Ȍ":{"ha":639,"x_min":81,"x_max":707,"o":"m 281 -12 q 128 51 175 -12 q 81 208 81 115 q 102 351 81 276 q 163 496 124 425 q 254 624 201 567 q 370 716 307 682 q 501 750 433 750 q 660 689 613 750 q 707 538 707 628 q 684 394 707 469 q 620 247 661 319 q 525 116 579 175 q 408 22 471 57 q 281 -12 346 -12 m 274 19 q 386 55 333 19 q 483 148 439 90 q 558 276 526 206 q 608 419 590 347 q 625 550 625 490 q 601 662 625 618 q 525 706 578 706 q 411 671 465 706 q 312 578 357 636 q 233 449 267 519 q 180 308 199 379 q 161 175 161 236 q 188 63 161 107 q 274 19 214 19 m 567 804 q 551 819 564 807 q 526 847 539 832 q 508 871 514 863 q 481 904 499 882 q 450 947 464 926 q 436 969 436 967 q 463 982 439 982 q 478 979 467 982 q 494 969 488 978 q 507 950 501 960 q 538 893 517 933 q 578 821 560 853 q 579 813 579 818 q 574 805 579 807 q 567 804 569 803 m 467 811 q 451 824 464 813 q 424 850 438 836 q 403 872 410 864 q 374 903 393 883 q 338 942 354 924 q 322 964 322 961 q 335 975 324 969 q 364 978 346 981 q 381 968 374 976 q 394 951 389 960 q 431 897 406 936 q 476 829 456 858 q 479 821 479 826 q 475 813 479 815 q 467 811 471 810 z "},"Ö":{"ha":639,"x_min":81,"x_max":707,"o":"m 281 -12 q 128 51 175 -12 q 81 208 81 115 q 102 351 81 276 q 163 496 124 425 q 254 624 201 567 q 370 716 307 682 q 501 750 433 750 q 660 689 613 750 q 707 538 707 628 q 684 394 707 469 q 620 247 661 319 q 525 116 579 175 q 408 22 471 57 q 281 -12 346 -12 m 274 19 q 386 55 333 19 q 483 148 439 90 q 558 276 526 206 q 608 419 590 347 q 625 550 625 490 q 601 662 625 618 q 525 706 578 706 q 411 671 465 706 q 312 578 357 636 q 233 449 267 519 q 180 308 199 379 q 161 175 161 236 q 188 63 161 107 q 274 19 214 19 m 635 808 q 611 816 619 808 q 597 833 603 824 q 594 846 594 838 q 599 860 594 853 q 607 871 603 868 q 649 899 628 889 q 676 904 654 904 q 688 892 693 904 q 675 860 679 881 q 663 824 671 840 q 635 808 656 808 m 481 808 q 457 816 465 808 q 443 833 449 824 q 440 846 440 838 q 444 860 440 853 q 453 871 449 868 q 494 899 474 889 q 522 904 500 904 q 533 892 539 904 q 521 860 525 881 q 509 824 517 840 q 481 808 501 808 z "},"Ȫ":{"ha":639,"x_min":81,"x_max":715,"o":"m 281 -12 q 128 51 175 -12 q 81 208 81 115 q 102 351 81 276 q 163 496 124 425 q 254 624 201 567 q 370 716 307 682 q 501 750 433 750 q 660 689 613 750 q 707 538 707 628 q 684 394 707 469 q 620 247 661 319 q 525 116 579 175 q 408 22 471 57 q 281 -12 346 -12 m 274 19 q 386 55 333 19 q 483 148 439 90 q 558 276 526 206 q 608 419 590 347 q 625 550 625 490 q 601 662 625 618 q 525 706 578 706 q 411 671 465 706 q 312 578 357 636 q 233 449 267 519 q 180 308 199 379 q 161 175 161 236 q 188 63 161 107 q 274 19 214 19 m 635 808 q 611 816 619 808 q 597 833 603 824 q 594 846 594 838 q 599 860 594 853 q 607 871 603 868 q 649 899 628 889 q 676 904 654 904 q 688 892 693 904 q 675 860 679 881 q 663 824 671 840 q 635 808 656 808 m 481 808 q 457 816 465 808 q 443 833 449 824 q 440 846 440 838 q 444 860 440 853 q 453 871 449 868 q 494 899 474 889 q 522 904 500 904 q 533 892 539 904 q 521 860 525 881 q 509 824 517 840 q 481 808 501 808 m 715 978 q 688 983 707 982 q 642 985 669 985 q 560 982 599 985 q 497 979 521 979 q 468 999 469 979 q 467 1035 467 1018 q 496 1031 478 1032 q 535 1029 514 1029 q 617 1032 578 1029 q 686 1035 656 1035 q 713 1015 710 1035 q 715 978 715 996 z "},"Ȱ":{"ha":639,"x_min":81,"x_max":707,"o":"m 281 -12 q 128 51 175 -12 q 81 208 81 115 q 102 351 81 276 q 163 496 124 425 q 254 624 201 567 q 370 716 307 682 q 501 750 433 750 q 660 689 613 750 q 707 538 707 628 q 684 394 707 469 q 620 247 661 319 q 525 116 579 175 q 408 22 471 57 q 281 -12 346 -12 m 274 19 q 386 55 333 19 q 483 148 439 90 q 558 276 526 206 q 608 419 590 347 q 625 550 625 490 q 601 662 625 618 q 525 706 578 706 q 411 671 465 706 q 312 578 357 636 q 233 449 267 519 q 180 308 199 379 q 161 175 161 236 q 188 63 161 107 q 274 19 214 19 m 563 810 q 539 817 547 810 q 525 835 531 825 q 522 847 522 839 q 526 862 522 854 q 535 872 531 869 q 576 900 556 890 q 604 906 582 906 q 615 893 621 906 q 603 862 607 882 q 591 826 599 842 q 563 810 583 810 m 706 975 q 678 981 697 979 q 632 982 660 982 q 550 979 589 982 q 488 976 511 976 q 458 996 460 976 q 457 1032 457 1015 q 486 1028 468 1029 q 525 1026 504 1026 q 607 1029 568 1026 q 676 1032 646 1032 q 703 1013 700 1032 q 706 975 706 993 z "},"Ọ":{"ha":639,"x_min":81,"x_max":707,"o":"m 281 -12 q 128 51 175 -12 q 81 208 81 115 q 102 351 81 276 q 163 496 124 425 q 254 624 201 567 q 370 716 307 682 q 501 750 433 750 q 660 689 613 750 q 707 538 707 628 q 684 394 707 469 q 620 247 661 319 q 525 116 579 175 q 408 22 471 57 q 281 -12 346 -12 m 274 19 q 386 55 333 19 q 483 148 439 90 q 558 276 526 206 q 608 419 590 347 q 625 550 625 490 q 601 662 625 618 q 525 706 578 706 q 411 671 465 706 q 312 578 357 636 q 233 449 267 519 q 180 308 199 379 q 161 175 161 236 q 188 63 161 107 q 274 19 214 19 m 146 -172 q 124 -166 132 -172 q 113 -151 117 -160 q 110 -140 110 -147 q 121 -117 110 -125 q 158 -92 138 -101 q 167 -90 160 -92 q 183 -87 175 -87 q 193 -99 199 -87 q 183 -126 186 -108 q 172 -158 179 -144 q 146 -172 165 -172 z "},"Ò":{"ha":639,"x_min":81,"x_max":707,"o":"m 281 -12 q 128 51 175 -12 q 81 208 81 115 q 102 351 81 276 q 163 496 124 425 q 254 624 201 567 q 370 716 307 682 q 501 750 433 750 q 660 689 613 750 q 707 538 707 628 q 684 394 707 469 q 620 247 661 319 q 525 116 579 175 q 408 22 471 57 q 281 -12 346 -12 m 274 19 q 386 55 333 19 q 483 148 439 90 q 558 276 526 206 q 608 419 590 347 q 625 550 625 490 q 601 662 625 618 q 525 706 578 706 q 411 671 465 706 q 312 578 357 636 q 233 449 267 519 q 180 308 199 379 q 161 175 161 236 q 188 63 161 107 q 274 19 214 19 m 569 806 q 551 816 567 807 q 519 835 536 825 q 494 851 503 846 q 459 876 482 860 q 417 907 436 892 q 397 925 399 922 q 407 938 397 931 q 435 947 417 946 l 438 947 q 455 941 446 947 q 469 928 464 935 q 497 901 479 919 q 537 863 515 883 q 575 825 558 842 q 581 815 581 821 q 576 808 581 811 q 569 806 572 804 z "},"Ω":{"ha":717,"x_min":1,"x_max":708,"o":"m 1 -26 q 36 23 8 10 q 82 39 64 36 q 158 34 115 42 q 232 18 201 26 q 192 146 210 71 q 175 300 175 221 q 176 344 175 322 q 182 389 178 367 q 236 544 199 479 q 324 650 274 608 q 429 712 375 692 q 531 732 483 732 q 617 711 576 732 q 683 646 658 690 q 708 529 708 601 q 706 492 708 511 q 701 453 704 474 q 640 281 685 364 q 542 130 594 197 q 447 19 489 63 q 522 35 482 29 q 594 39 561 42 q 621 31 606 38 q 647 12 636 25 q 656 -26 658 -1 q 598 -18 625 -19 q 547 -17 571 -17 q 494 -18 518 -17 q 447 -19 469 -19 q 428 -18 440 -19 q 408 -8 417 -17 q 400 18 399 0 q 471 90 435 44 q 539 191 507 135 q 595 308 571 247 q 631 425 619 368 q 635 458 633 442 q 636 489 636 474 q 595 622 636 576 q 501 667 554 667 q 397 631 450 667 q 301 529 343 596 q 242 368 258 463 q 234 310 236 338 q 232 254 232 282 q 242 135 232 188 q 262 53 251 83 q 271 18 272 22 q 243 -15 265 -10 q 210 -19 221 -19 q 164 -18 188 -19 q 111 -17 140 -17 q 61 -18 89 -17 q 1 -26 33 -19 z "},"Ỏ":{"ha":639,"x_min":81,"x_max":707,"o":"m 281 -12 q 128 51 175 -12 q 81 208 81 115 q 102 351 81 276 q 163 496 124 425 q 254 624 201 567 q 370 716 307 682 q 501 750 433 750 q 660 689 613 750 q 707 538 707 628 q 684 394 707 469 q 620 247 661 319 q 525 116 579 175 q 408 22 471 57 q 281 -12 346 -12 m 274 19 q 386 55 333 19 q 483 148 439 90 q 558 276 526 206 q 608 419 590 347 q 625 550 625 490 q 601 662 625 618 q 525 706 578 706 q 411 671 465 706 q 312 578 357 636 q 233 449 267 519 q 180 308 199 379 q 161 175 161 236 q 188 63 161 107 q 274 19 214 19 m 586 851 q 567 844 576 844 q 565 853 558 843 q 595 893 585 881 q 614 924 606 906 q 619 940 618 932 q 621 953 621 947 q 608 980 621 972 q 575 988 594 988 q 521 974 544 988 q 507 969 515 969 q 500 975 500 969 q 513 993 500 982 q 552 1017 531 1008 q 603 1026 574 1026 q 656 1011 640 1026 q 672 972 672 996 q 657 919 672 947 q 620 876 639 889 q 586 851 601 863 z "},"Ơ":{"ha":639,"x_min":81,"x_max":789,"o":"m 281 -12 q 128 51 175 -12 q 81 208 81 115 q 102 351 81 276 q 163 496 124 425 q 254 624 201 567 q 370 716 307 682 q 501 750 433 750 q 660 689 613 750 q 707 538 707 628 q 684 394 707 469 q 620 247 661 319 q 525 116 579 175 q 408 22 471 57 q 281 -12 346 -12 m 274 19 q 386 55 333 19 q 483 148 439 90 q 558 276 526 206 q 608 419 590 347 q 625 550 625 490 q 601 662 625 618 q 525 706 578 706 q 411 671 465 706 q 312 578 357 636 q 233 449 267 519 q 180 308 199 379 q 161 175 161 236 q 188 63 161 107 q 274 19 214 19 m 668 653 q 647 658 660 653 q 635 675 635 663 q 644 688 635 690 q 655 685 651 686 q 661 685 658 685 q 709 705 689 685 q 729 747 729 725 q 721 771 729 761 q 710 797 710 786 q 729 813 710 813 q 757 804 742 813 q 781 779 772 796 q 789 747 789 763 q 767 698 789 719 q 717 665 746 676 q 668 653 689 653 z "},"Ớ":{"ha":639,"x_min":81,"x_max":789,"o":"m 281 -12 q 128 51 175 -12 q 81 208 81 115 q 102 351 81 276 q 163 496 124 425 q 254 624 201 567 q 370 716 307 682 q 501 750 433 750 q 660 689 613 750 q 707 538 707 628 q 684 394 707 469 q 620 247 661 319 q 525 116 579 175 q 408 22 471 57 q 281 -12 346 -12 m 274 19 q 386 55 333 19 q 483 148 439 90 q 558 276 526 206 q 608 419 590 347 q 625 550 625 490 q 601 662 625 618 q 525 706 578 706 q 411 671 465 706 q 312 578 357 636 q 233 449 267 519 q 180 308 199 379 q 161 175 161 236 q 188 63 161 107 q 274 19 214 19 m 668 653 q 647 658 660 653 q 635 675 635 663 q 644 688 635 690 q 655 685 651 686 q 661 685 658 685 q 709 705 689 685 q 729 747 729 725 q 721 771 729 761 q 710 797 710 786 q 729 813 710 813 q 757 804 742 813 q 781 779 772 796 q 789 747 789 763 q 767 698 789 719 q 717 665 746 676 q 668 653 689 653 m 517 810 q 508 815 513 808 q 513 829 504 822 q 572 885 539 853 q 618 932 604 918 q 633 945 624 939 q 650 951 642 951 q 680 943 671 951 q 689 929 689 935 q 670 911 689 926 q 628 880 651 896 q 593 856 606 864 q 568 839 585 850 q 536 819 551 828 q 517 810 521 811 z "},"Ợ":{"ha":639,"x_min":81,"x_max":789,"o":"m 281 -12 q 128 51 175 -12 q 81 208 81 115 q 102 351 81 276 q 163 496 124 425 q 254 624 201 567 q 370 716 307 682 q 501 750 433 750 q 660 689 613 750 q 707 538 707 628 q 684 394 707 469 q 620 247 661 319 q 525 116 579 175 q 408 22 471 57 q 281 -12 346 -12 m 274 19 q 386 55 333 19 q 483 148 439 90 q 558 276 526 206 q 608 419 590 347 q 625 550 625 490 q 601 662 625 618 q 525 706 578 706 q 411 671 465 706 q 312 578 357 636 q 233 449 267 519 q 180 308 199 379 q 161 175 161 236 q 188 63 161 107 q 274 19 214 19 m 668 653 q 647 658 660 653 q 635 675 635 663 q 644 688 635 690 q 655 685 651 686 q 661 685 658 685 q 709 705 689 685 q 729 747 729 725 q 721 771 729 761 q 710 797 710 786 q 729 813 710 813 q 757 804 742 813 q 781 779 772 796 q 789 747 789 763 q 767 698 789 719 q 717 665 746 676 q 668 653 689 653 m 146 -172 q 124 -166 132 -172 q 113 -151 117 -160 q 110 -140 110 -147 q 121 -117 110 -125 q 158 -92 138 -101 q 167 -90 160 -92 q 183 -87 175 -87 q 193 -99 199 -87 q 183 -126 186 -108 q 172 -158 179 -144 q 146 -172 165 -172 z "},"Ờ":{"ha":639,"x_min":81,"x_max":789,"o":"m 281 -12 q 128 51 175 -12 q 81 208 81 115 q 102 351 81 276 q 163 496 124 425 q 254 624 201 567 q 370 716 307 682 q 501 750 433 750 q 660 689 613 750 q 707 538 707 628 q 684 394 707 469 q 620 247 661 319 q 525 116 579 175 q 408 22 471 57 q 281 -12 346 -12 m 274 19 q 386 55 333 19 q 483 148 439 90 q 558 276 526 206 q 608 419 590 347 q 625 550 625 490 q 601 662 625 618 q 525 706 578 706 q 411 671 465 706 q 312 578 357 636 q 233 449 267 519 q 180 308 199 379 q 161 175 161 236 q 188 63 161 107 q 274 19 214 19 m 668 653 q 647 658 660 653 q 635 675 635 663 q 644 688 635 690 q 655 685 651 686 q 661 685 658 685 q 709 705 689 685 q 729 747 729 725 q 721 771 729 761 q 710 797 710 786 q 729 813 710 813 q 757 804 742 813 q 781 779 772 796 q 789 747 789 763 q 767 698 789 719 q 717 665 746 676 q 668 653 689 653 m 569 806 q 551 816 567 807 q 519 835 536 825 q 494 851 503 846 q 459 876 482 860 q 417 907 436 892 q 397 925 399 922 q 407 938 397 931 q 435 947 417 946 l 438 947 q 455 941 446 947 q 469 928 464 935 q 497 901 479 919 q 537 863 515 883 q 575 825 558 842 q 581 815 581 821 q 576 808 581 811 q 569 806 572 804 z "},"Ở":{"ha":639,"x_min":81,"x_max":789,"o":"m 281 -12 q 128 51 175 -12 q 81 208 81 115 q 102 351 81 276 q 163 496 124 425 q 254 624 201 567 q 370 716 307 682 q 501 750 433 750 q 660 689 613 750 q 707 538 707 628 q 684 394 707 469 q 620 247 661 319 q 525 116 579 175 q 408 22 471 57 q 281 -12 346 -12 m 274 19 q 386 55 333 19 q 483 148 439 90 q 558 276 526 206 q 608 419 590 347 q 625 550 625 490 q 601 662 625 618 q 525 706 578 706 q 411 671 465 706 q 312 578 357 636 q 233 449 267 519 q 180 308 199 379 q 161 175 161 236 q 188 63 161 107 q 274 19 214 19 m 668 653 q 647 658 660 653 q 635 675 635 663 q 644 688 635 690 q 655 685 651 686 q 661 685 658 685 q 709 705 689 685 q 729 747 729 725 q 721 771 729 761 q 710 797 710 786 q 729 813 710 813 q 757 804 742 813 q 781 779 772 796 q 789 747 789 763 q 767 698 789 719 q 717 665 746 676 q 668 653 689 653 m 586 851 q 567 844 576 844 q 565 853 558 843 q 595 893 585 881 q 614 924 606 906 q 619 940 618 932 q 621 953 621 947 q 608 980 621 972 q 575 988 594 988 q 521 974 544 988 q 507 969 515 969 q 500 975 500 969 q 513 993 500 982 q 552 1017 531 1008 q 603 1026 574 1026 q 656 1011 640 1026 q 672 972 672 996 q 657 919 672 947 q 620 876 639 889 q 586 851 601 863 z "},"Ỡ":{"ha":639,"x_min":81,"x_max":789,"o":"m 281 -12 q 128 51 175 -12 q 81 208 81 115 q 102 351 81 276 q 163 496 124 425 q 254 624 201 567 q 370 716 307 682 q 501 750 433 750 q 660 689 613 750 q 707 538 707 628 q 684 394 707 469 q 620 247 661 319 q 525 116 579 175 q 408 22 471 57 q 281 -12 346 -12 m 274 19 q 386 55 333 19 q 483 148 439 90 q 558 276 526 206 q 608 419 590 347 q 625 550 625 490 q 601 662 625 618 q 525 706 578 706 q 411 671 465 706 q 312 578 357 636 q 233 449 267 519 q 180 308 199 379 q 161 175 161 236 q 188 63 161 107 q 274 19 214 19 m 668 653 q 647 658 660 653 q 635 675 635 663 q 644 688 635 690 q 655 685 651 686 q 661 685 658 685 q 709 705 689 685 q 729 747 729 725 q 721 771 729 761 q 710 797 710 786 q 729 813 710 813 q 757 804 742 813 q 781 779 772 796 q 789 747 789 763 q 767 698 789 719 q 717 665 746 676 q 668 653 689 653 m 625 808 q 574 820 594 808 q 537 843 554 832 q 496 854 519 854 q 457 837 472 854 q 433 810 442 819 q 424 813 424 806 q 438 851 424 832 q 472 884 451 871 q 515 897 493 897 q 565 886 542 897 q 609 864 588 875 q 653 853 631 853 q 678 867 668 853 q 699 899 688 881 q 706 897 703 899 q 710 883 710 894 q 694 846 710 863 q 660 819 679 829 q 625 808 640 808 z "},"Ő":{"ha":639,"x_min":81,"x_max":707,"o":"m 281 -12 q 128 51 175 -12 q 81 208 81 115 q 102 351 81 276 q 163 496 124 425 q 254 624 201 567 q 370 716 307 682 q 501 750 433 750 q 660 689 613 750 q 707 538 707 628 q 684 394 707 469 q 620 247 661 319 q 525 116 579 175 q 408 22 471 57 q 281 -12 346 -12 m 274 19 q 386 55 333 19 q 483 148 439 90 q 558 276 526 206 q 608 419 590 347 q 625 550 625 490 q 601 662 625 618 q 525 706 578 706 q 411 671 465 706 q 312 578 357 636 q 233 449 267 519 q 180 308 199 379 q 161 175 161 236 q 188 63 161 107 q 274 19 214 19 m 592 808 q 583 817 583 808 q 592 875 586 836 q 608 939 597 914 q 632 961 621 961 q 650 935 650 961 q 646 913 650 924 q 629 871 642 897 q 601 814 617 844 q 592 808 599 808 m 501 808 q 494 817 494 808 q 503 875 497 836 q 519 939 508 914 q 543 961 529 961 q 561 935 561 961 q 557 913 561 924 q 540 871 553 897 q 513 814 528 844 q 501 808 510 808 z "},"Ȏ":{"ha":639,"x_min":81,"x_max":707,"o":"m 281 -12 q 128 51 175 -12 q 81 208 81 115 q 102 351 81 276 q 163 496 124 425 q 254 624 201 567 q 370 716 307 682 q 501 750 433 750 q 660 689 613 750 q 707 538 707 628 q 684 394 707 469 q 620 247 661 319 q 525 116 579 175 q 408 22 471 57 q 281 -12 346 -12 m 274 19 q 386 55 333 19 q 483 148 439 90 q 558 276 526 206 q 608 419 590 347 q 625 550 625 490 q 601 662 625 618 q 525 706 578 706 q 411 671 465 706 q 312 578 357 636 q 233 449 267 519 q 180 308 199 379 q 161 175 161 236 q 188 63 161 107 q 274 19 214 19 m 669 811 q 663 813 667 811 q 660 824 658 815 q 643 872 663 851 q 588 892 624 892 q 512 876 556 892 q 449 832 468 860 q 438 818 442 821 q 428 815 433 815 q 421 826 417 815 q 491 911 443 879 q 600 943 539 943 q 672 921 646 943 q 699 869 699 899 q 690 827 699 843 q 669 811 681 811 z "},"Ō":{"ha":639,"x_min":81,"x_max":707,"o":"m 281 -12 q 128 51 175 -12 q 81 208 81 115 q 102 351 81 276 q 163 496 124 425 q 254 624 201 567 q 370 716 307 682 q 501 750 433 750 q 660 689 613 750 q 707 538 707 628 q 684 394 707 469 q 620 247 661 319 q 525 116 579 175 q 408 22 471 57 q 281 -12 346 -12 m 274 19 q 386 55 333 19 q 483 148 439 90 q 558 276 526 206 q 608 419 590 347 q 625 550 625 490 q 601 662 625 618 q 525 706 578 706 q 411 671 465 706 q 312 578 357 636 q 233 449 267 519 q 180 308 199 379 q 161 175 161 236 q 188 63 161 107 q 274 19 214 19 m 668 821 q 641 826 660 825 q 594 828 622 828 q 513 825 551 828 q 450 822 474 822 q 421 842 422 822 q 419 878 419 861 q 449 874 431 875 q 488 872 467 872 q 569 875 531 872 q 639 878 608 878 q 665 858 663 878 q 668 821 668 839 z "},"Ω":{"ha":717,"x_min":1,"x_max":708,"o":"m 1 -26 q 36 23 8 10 q 82 39 64 36 q 158 34 115 42 q 232 18 201 26 q 192 146 210 71 q 175 300 175 221 q 176 344 175 322 q 182 389 178 367 q 236 544 199 479 q 324 650 274 608 q 429 712 375 692 q 531 732 483 732 q 617 711 576 732 q 683 646 658 690 q 708 529 708 601 q 706 492 708 511 q 701 453 704 474 q 640 281 685 364 q 542 130 594 197 q 447 19 489 63 q 522 35 482 29 q 594 39 561 42 q 621 31 606 38 q 647 12 636 25 q 656 -26 658 -1 q 598 -18 625 -19 q 547 -17 571 -17 q 494 -18 518 -17 q 447 -19 469 -19 q 428 -18 440 -19 q 408 -8 417 -17 q 400 18 399 0 q 471 90 435 44 q 539 191 507 135 q 595 308 571 247 q 631 425 619 368 q 635 458 633 442 q 636 489 636 474 q 595 622 636 576 q 501 667 554 667 q 397 631 450 667 q 301 529 343 596 q 242 368 258 463 q 234 310 236 338 q 232 254 232 282 q 242 135 232 188 q 262 53 251 83 q 271 18 272 22 q 243 -15 265 -10 q 210 -19 221 -19 q 164 -18 188 -19 q 111 -17 140 -17 q 61 -18 89 -17 q 1 -26 33 -19 z "},"Ǫ":{"ha":639,"x_min":81,"x_max":707,"o":"m 281 -12 q 128 51 175 -12 q 81 208 81 115 q 102 351 81 276 q 163 496 124 425 q 254 624 201 567 q 370 716 307 682 q 501 750 433 750 q 660 689 613 750 q 707 538 707 628 q 684 394 707 469 q 620 247 661 319 q 525 116 579 175 q 408 22 471 57 q 281 -12 346 -12 m 274 19 q 386 55 333 19 q 483 148 439 90 q 558 276 526 206 q 608 419 590 347 q 625 550 625 490 q 601 662 625 618 q 525 706 578 706 q 411 671 465 706 q 312 578 357 636 q 233 449 267 519 q 180 308 199 379 q 161 175 161 236 q 188 63 161 107 q 274 19 214 19 m 185 -239 q 125 -218 146 -239 q 104 -171 104 -197 q 124 -100 104 -137 q 168 -31 143 -62 q 208 13 193 0 q 232 21 217 21 q 243 17 239 21 q 240 4 247 13 q 191 -67 215 -26 q 167 -157 167 -107 q 178 -179 167 -171 q 206 -187 190 -187 q 265 -171 233 -187 q 326 -132 297 -154 q 374 -93 356 -110 q 378 -108 378 -99 q 372 -130 378 -118 q 363 -146 367 -142 q 278 -210 326 -181 q 185 -239 229 -239 z "},"Ø":{"ha":614,"x_min":14,"x_max":651,"o":"m 21 -112 q 14 -103 14 -112 q 18 -86 14 -94 q 92 50 33 -49 q 49 122 63 79 q 36 214 36 164 q 57 351 36 279 q 115 492 78 424 q 201 617 151 561 q 308 705 250 672 q 429 738 367 738 q 490 731 463 738 q 539 713 517 724 q 581 766 560 740 q 622 817 601 792 l 628 819 q 643 809 635 819 q 649 783 651 799 q 647 775 649 779 q 620 740 638 764 q 579 685 603 717 q 622 615 608 656 q 636 525 636 574 q 614 388 636 460 q 553 246 592 315 q 464 121 515 176 q 353 32 413 65 q 232 -1 294 -1 q 122 26 167 -1 q 74 -45 94 -14 q 43 -92 54 -76 q 21 -112 32 -112 m 121 97 q 233 275 169 176 q 369 479 296 374 q 518 685 443 585 q 479 696 500 696 q 361 662 417 696 q 259 571 306 628 q 179 445 213 514 q 127 307 146 376 q 108 179 108 238 q 121 97 108 133 m 214 31 q 327 66 274 31 q 424 159 381 101 q 499 287 468 217 q 548 427 531 357 q 565 556 565 497 q 550 644 565 607 q 455 509 507 585 q 348 353 403 433 q 241 197 293 274 q 146 58 189 121 q 214 31 169 31 z "},"Ǿ":{"ha":614,"x_min":14,"x_max":665,"o":"m 21 -112 q 14 -103 14 -112 q 18 -86 14 -94 q 92 50 33 -49 q 49 122 63 79 q 36 214 36 164 q 57 351 36 279 q 115 492 78 424 q 201 617 151 561 q 308 705 250 672 q 429 738 367 738 q 490 731 463 738 q 539 713 517 724 q 581 766 560 740 q 622 817 601 792 l 628 819 q 643 809 635 819 q 649 783 651 799 q 647 775 649 779 q 620 740 638 764 q 579 685 603 717 q 622 615 608 656 q 636 525 636 574 q 614 388 636 460 q 553 246 592 315 q 464 121 515 176 q 353 32 413 65 q 232 -1 294 -1 q 122 26 167 -1 q 74 -45 94 -14 q 43 -92 54 -76 q 21 -112 32 -112 m 121 97 q 233 275 169 176 q 369 479 296 374 q 518 685 443 585 q 479 696 500 696 q 361 662 417 696 q 259 571 306 628 q 179 445 213 514 q 127 307 146 376 q 108 179 108 238 q 121 97 108 133 m 214 31 q 327 66 274 31 q 424 159 381 101 q 499 287 468 217 q 548 427 531 357 q 565 556 565 497 q 550 644 565 607 q 455 509 507 585 q 348 353 403 433 q 241 197 293 274 q 146 58 189 121 q 214 31 169 31 m 493 814 q 485 819 489 813 q 489 833 481 826 q 548 890 515 857 q 594 936 581 922 q 609 949 600 943 q 626 956 618 956 q 656 947 647 956 q 665 933 665 939 q 647 915 665 931 q 605 884 628 900 q 569 860 582 868 q 544 843 561 854 q 513 824 528 832 q 493 814 497 815 z "},"Õ":{"ha":639,"x_min":81,"x_max":710,"o":"m 281 -12 q 128 51 175 -12 q 81 208 81 115 q 102 351 81 276 q 163 496 124 425 q 254 624 201 567 q 370 716 307 682 q 501 750 433 750 q 660 689 613 750 q 707 538 707 628 q 684 394 707 469 q 620 247 661 319 q 525 116 579 175 q 408 22 471 57 q 281 -12 346 -12 m 274 19 q 386 55 333 19 q 483 148 439 90 q 558 276 526 206 q 608 419 590 347 q 625 550 625 490 q 601 662 625 618 q 525 706 578 706 q 411 671 465 706 q 312 578 357 636 q 233 449 267 519 q 180 308 199 379 q 161 175 161 236 q 188 63 161 107 q 274 19 214 19 m 625 808 q 574 820 594 808 q 537 843 554 832 q 496 854 519 854 q 457 837 472 854 q 433 810 442 819 q 424 813 424 806 q 438 851 424 832 q 472 884 451 871 q 515 897 493 897 q 565 886 542 897 q 609 864 588 875 q 653 853 631 853 q 678 867 668 853 q 699 899 688 881 q 706 897 703 899 q 710 883 710 894 q 694 846 710 863 q 660 819 679 829 q 625 808 640 808 z "},"Ȭ":{"ha":639,"x_min":81,"x_max":707,"o":"m 281 -12 q 128 51 175 -12 q 81 208 81 115 q 102 351 81 276 q 163 496 124 425 q 254 624 201 567 q 370 716 307 682 q 501 750 433 750 q 660 689 613 750 q 707 538 707 628 q 684 394 707 469 q 620 247 661 319 q 525 116 579 175 q 408 22 471 57 q 281 -12 346 -12 m 274 19 q 386 55 333 19 q 483 148 439 90 q 558 276 526 206 q 608 419 590 347 q 625 550 625 490 q 601 662 625 618 q 525 706 578 706 q 411 671 465 706 q 312 578 357 636 q 233 449 267 519 q 180 308 199 379 q 161 175 161 236 q 188 63 161 107 q 274 19 214 19 m 600 808 q 549 820 569 808 q 512 843 529 832 q 471 854 494 854 q 432 837 447 854 q 408 810 417 819 q 399 813 399 806 q 413 851 399 832 q 447 884 426 871 q 490 897 468 897 q 540 886 517 897 q 584 864 563 875 q 628 853 606 853 q 653 867 643 853 q 674 899 663 881 q 681 897 678 899 q 685 883 685 894 q 669 846 685 863 q 635 819 654 829 q 600 808 615 808 m 667 942 q 640 947 658 946 q 593 949 621 949 q 511 946 550 949 q 449 943 472 943 q 419 963 421 943 q 418 999 418 982 q 447 994 429 996 q 486 993 465 993 q 568 996 529 993 q 638 999 607 999 q 664 979 661 999 q 667 942 667 960 z "},"P":{"ha":569,"x_min":17,"x_max":703,"o":"m 60 -17 q 28 14 39 -6 q 17 74 17 33 q 33 135 17 103 q 70 199 49 168 q 107 256 92 231 q 224 446 164 350 q 322 629 283 542 q 301 626 311 626 q 279 624 290 625 q 267 622 274 622 q 256 622 261 622 q 214 632 226 622 q 201 656 201 642 q 203 666 201 661 q 207 676 206 671 q 278 686 242 679 q 351 703 315 693 q 358 723 354 713 q 363 743 361 733 q 388 734 379 743 q 400 714 396 725 q 486 733 444 725 q 564 742 528 742 q 671 701 639 742 q 703 603 703 660 q 669 490 703 551 q 578 371 635 428 q 451 278 521 314 q 310 242 381 242 q 253 249 282 242 q 199 271 225 256 q 162 205 181 239 q 126 138 143 171 q 81 45 100 88 q 60 -17 63 3 m 213 294 q 317 309 258 292 q 438 358 376 326 q 551 433 499 390 q 635 524 603 476 q 667 619 667 572 q 569 674 667 674 q 486 665 529 674 q 401 647 443 657 q 375 577 396 621 q 327 485 354 533 q 275 394 300 436 q 235 326 250 351 l 213 294 z "},"Q":{"ha":661,"x_min":50,"x_max":722,"o":"m 471 -232 q 399 -216 436 -232 q 325 -178 363 -200 q 250 -135 288 -156 q 175 -106 213 -115 q 144 -97 158 -99 q 79 -135 107 -135 q 50 -112 50 -135 q 73 -75 50 -94 q 139 -56 96 -56 l 153 -56 l 204 7 q 123 88 149 32 q 97 211 97 143 q 119 354 97 279 q 178 501 140 429 q 268 630 217 572 q 380 722 319 688 q 506 756 440 756 q 672 692 622 756 q 722 535 722 629 q 699 392 722 467 q 636 244 676 317 q 543 115 596 172 q 429 22 490 57 q 303 -12 368 -12 q 260 -10 281 -12 q 221 -1 239 -7 q 203 -28 217 -11 q 178 -60 189 -46 q 289 -90 226 -71 q 413 -140 351 -110 q 463 -162 436 -151 q 515 -174 489 -174 q 563 -158 543 -174 q 556 -186 564 -168 q 527 -218 547 -204 q 471 -232 507 -232 m 282 21 q 400 58 344 21 q 501 155 456 94 q 580 288 547 215 q 631 434 613 361 q 649 568 649 507 q 628 672 649 632 q 560 711 607 711 q 436 676 494 711 q 330 581 378 640 q 247 451 282 522 q 192 308 211 381 q 172 175 172 236 q 199 65 172 108 q 282 21 225 21 z "},"R":{"ha":589,"x_min":22,"x_max":725,"o":"m 440 -22 q 384 57 418 14 q 313 141 350 100 q 244 213 276 182 q 194 254 213 243 l 131 138 q 86 45 104 88 q 64 -17 68 3 q 33 14 43 -6 q 22 74 22 33 q 38 135 22 103 q 75 199 54 168 q 111 256 96 231 q 232 452 169 350 q 333 642 294 554 l 301 638 q 288 636 294 636 q 276 636 282 636 q 224 669 224 636 q 226 680 224 675 q 229 690 228 685 q 294 699 261 693 q 361 713 328 706 q 369 735 365 724 q 375 757 372 747 q 401 748 392 757 q 413 726 410 739 q 503 747 458 738 q 586 756 547 756 q 693 715 661 756 q 725 618 725 675 q 700 522 725 575 q 632 417 675 469 q 534 324 589 365 q 419 259 479 282 q 300 242 358 236 q 373 171 328 215 q 447 74 418 126 q 461 14 461 46 q 456 -10 461 0 q 440 -22 451 -21 m 258 294 q 360 315 303 294 q 474 372 417 336 q 581 451 532 407 q 659 542 629 494 q 689 633 689 589 q 592 689 689 689 q 503 678 549 689 q 413 657 457 668 q 373 563 403 621 q 308 444 343 506 q 244 335 274 382 q 239 323 242 329 q 236 310 236 317 q 258 294 236 294 z "},"Ŕ":{"ha":589,"x_min":22,"x_max":725,"o":"m 440 -22 q 384 57 418 14 q 313 141 350 100 q 244 213 276 182 q 194 254 213 243 l 131 138 q 86 45 104 88 q 64 -17 68 3 q 33 14 43 -6 q 22 74 22 33 q 38 135 22 103 q 75 199 54 168 q 111 256 96 231 q 232 452 169 350 q 333 642 294 554 l 301 638 q 288 636 294 636 q 276 636 282 636 q 224 669 224 636 q 226 680 224 675 q 229 690 228 685 q 294 699 261 693 q 361 713 328 706 q 369 735 365 724 q 375 757 372 747 q 401 748 392 757 q 413 726 410 739 q 503 747 458 738 q 586 756 547 756 q 693 715 661 756 q 725 618 725 675 q 700 522 725 575 q 632 417 675 469 q 534 324 589 365 q 419 259 479 282 q 300 242 358 236 q 373 171 328 215 q 447 74 418 126 q 461 14 461 46 q 456 -10 461 0 q 440 -22 451 -21 m 258 294 q 360 315 303 294 q 474 372 417 336 q 581 451 532 407 q 659 542 629 494 q 689 633 689 589 q 592 689 689 689 q 503 678 549 689 q 413 657 457 668 q 373 563 403 621 q 308 444 343 506 q 244 335 274 382 q 239 323 242 329 q 236 310 236 317 q 258 294 236 294 m 508 813 q 500 818 504 811 q 504 832 496 825 q 563 888 531 856 q 610 935 596 921 q 624 948 615 942 q 642 954 633 954 q 672 946 663 954 q 681 932 681 938 q 662 914 681 929 q 620 883 643 899 q 585 858 597 867 q 560 842 576 853 q 528 822 543 831 q 508 813 513 814 z "},"Ř":{"ha":589,"x_min":22,"x_max":725,"o":"m 717 942 q 724 935 724 942 q 717 922 724 928 q 656 879 686 899 q 599 843 626 860 q 566 824 583 833 q 539 814 549 814 q 517 823 531 814 q 496 838 503 832 q 453 875 481 851 q 404 922 426 899 q 401 931 401 925 q 406 940 401 936 q 413 942 410 943 q 438 931 418 940 q 481 910 458 922 q 513 890 497 900 q 549 867 528 881 q 589 888 567 878 q 628 906 611 897 q 657 919 638 911 q 694 935 676 928 q 715 942 713 942 l 717 942 m 440 -22 q 384 57 418 14 q 313 141 350 100 q 244 213 276 182 q 194 254 213 243 l 131 138 q 86 45 104 88 q 64 -17 68 3 q 33 14 43 -6 q 22 74 22 33 q 38 135 22 103 q 75 199 54 168 q 111 256 96 231 q 232 452 169 350 q 333 642 294 554 l 301 638 q 288 636 294 636 q 276 636 282 636 q 224 669 224 636 q 226 680 224 675 q 229 690 228 685 q 294 699 261 693 q 361 713 328 706 q 369 735 365 724 q 375 757 372 747 q 401 748 392 757 q 413 726 410 739 q 503 747 458 738 q 586 756 547 756 q 693 715 661 756 q 725 618 725 675 q 700 522 725 575 q 632 417 675 469 q 534 324 589 365 q 419 259 479 282 q 300 242 358 236 q 373 171 328 215 q 447 74 418 126 q 461 14 461 46 q 456 -10 461 0 q 440 -22 451 -21 m 258 294 q 360 315 303 294 q 474 372 417 336 q 581 451 532 407 q 659 542 629 494 q 689 633 689 589 q 592 689 689 689 q 503 678 549 689 q 413 657 457 668 q 373 563 403 621 q 308 444 343 506 q 244 335 274 382 q 239 323 242 329 q 236 310 236 317 q 258 294 236 294 z "},"Ŗ":{"ha":589,"x_min":22,"x_max":725,"o":"m 440 -22 q 384 57 418 14 q 313 141 350 100 q 244 213 276 182 q 194 254 213 243 l 131 138 q 86 45 104 88 q 64 -17 68 3 q 33 14 43 -6 q 22 74 22 33 q 38 135 22 103 q 75 199 54 168 q 111 256 96 231 q 232 452 169 350 q 333 642 294 554 l 301 638 q 288 636 294 636 q 276 636 282 636 q 224 669 224 636 q 226 680 224 675 q 229 690 228 685 q 294 699 261 693 q 361 713 328 706 q 369 735 365 724 q 375 757 372 747 q 401 748 392 757 q 413 726 410 739 q 503 747 458 738 q 586 756 547 756 q 693 715 661 756 q 725 618 725 675 q 700 522 725 575 q 632 417 675 469 q 534 324 589 365 q 419 259 479 282 q 300 242 358 236 q 373 171 328 215 q 447 74 418 126 q 461 14 461 46 q 456 -10 461 0 q 440 -22 451 -21 m 258 294 q 360 315 303 294 q 474 372 417 336 q 581 451 532 407 q 659 542 629 494 q 689 633 689 589 q 592 689 689 689 q 503 678 549 689 q 413 657 457 668 q 373 563 403 621 q 308 444 343 506 q 244 335 274 382 q 239 323 242 329 q 236 310 236 317 q 258 294 236 294 m 56 -301 q 51 -294 44 -301 l 94 -244 q 140 -188 118 -217 q 174 -129 161 -160 q 176 -117 175 -124 q 176 -106 176 -111 q 174 -92 176 -94 q 171 -85 171 -87 q 175 -82 171 -82 q 199 -92 186 -82 q 222 -139 222 -107 q 199 -200 222 -174 q 142 -245 175 -226 q 79 -281 110 -264 q 73 -286 75 -282 q 68 -293 71 -290 q 56 -301 63 -301 z "},"Ȑ":{"ha":589,"x_min":22,"x_max":725,"o":"m 440 -22 q 384 57 418 14 q 313 141 350 100 q 244 213 276 182 q 194 254 213 243 l 131 138 q 86 45 104 88 q 64 -17 68 3 q 33 14 43 -6 q 22 74 22 33 q 38 135 22 103 q 75 199 54 168 q 111 256 96 231 q 232 452 169 350 q 333 642 294 554 l 301 638 q 288 636 294 636 q 276 636 282 636 q 224 669 224 636 q 226 680 224 675 q 229 690 228 685 q 294 699 261 693 q 361 713 328 706 q 369 735 365 724 q 375 757 372 747 q 401 748 392 757 q 413 726 410 739 q 503 747 458 738 q 586 756 547 756 q 693 715 661 756 q 725 618 725 675 q 700 522 725 575 q 632 417 675 469 q 534 324 589 365 q 419 259 479 282 q 300 242 358 236 q 373 171 328 215 q 447 74 418 126 q 461 14 461 46 q 456 -10 461 0 q 440 -22 451 -21 m 258 294 q 360 315 303 294 q 474 372 417 336 q 581 451 532 407 q 659 542 629 494 q 689 633 689 589 q 592 689 689 689 q 503 678 549 689 q 413 657 457 668 q 373 563 403 621 q 308 444 343 506 q 244 335 274 382 q 239 323 242 329 q 236 310 236 317 q 258 294 236 294 m 558 807 q 543 822 556 810 q 518 850 531 835 q 500 874 506 865 q 473 907 490 885 q 442 949 456 929 q 428 972 428 969 q 454 985 431 985 q 469 982 458 985 q 486 972 479 981 q 499 953 493 963 q 530 896 508 936 q 569 824 551 856 q 571 815 571 821 q 566 808 571 810 q 558 807 561 806 m 458 814 q 442 827 456 815 q 415 853 429 839 q 394 875 401 867 q 365 906 385 886 q 330 945 346 926 q 314 967 314 964 q 326 978 315 972 q 356 981 338 983 q 373 971 365 979 q 386 954 381 963 q 422 900 397 939 q 468 832 447 861 q 471 824 471 829 q 467 815 471 818 q 458 814 463 813 z "},"Ȓ":{"ha":589,"x_min":22,"x_max":725,"o":"m 440 -22 q 384 57 418 14 q 313 141 350 100 q 244 213 276 182 q 194 254 213 243 l 131 138 q 86 45 104 88 q 64 -17 68 3 q 33 14 43 -6 q 22 74 22 33 q 38 135 22 103 q 75 199 54 168 q 111 256 96 231 q 232 452 169 350 q 333 642 294 554 l 301 638 q 288 636 294 636 q 276 636 282 636 q 224 669 224 636 q 226 680 224 675 q 229 690 228 685 q 294 699 261 693 q 361 713 328 706 q 369 735 365 724 q 375 757 372 747 q 401 748 392 757 q 413 726 410 739 q 503 747 458 738 q 586 756 547 756 q 693 715 661 756 q 725 618 725 675 q 700 522 725 575 q 632 417 675 469 q 534 324 589 365 q 419 259 479 282 q 300 242 358 236 q 373 171 328 215 q 447 74 418 126 q 461 14 461 46 q 456 -10 461 0 q 440 -22 451 -21 m 258 294 q 360 315 303 294 q 474 372 417 336 q 581 451 532 407 q 659 542 629 494 q 689 633 689 589 q 592 689 689 689 q 503 678 549 689 q 413 657 457 668 q 373 563 403 621 q 308 444 343 506 q 244 335 274 382 q 239 323 242 329 q 236 310 236 317 q 258 294 236 294 m 661 814 q 654 816 658 814 q 651 826 650 818 q 635 874 654 854 q 579 894 615 894 q 503 878 547 894 q 440 835 460 863 q 429 821 433 824 q 419 818 425 818 q 413 829 408 818 q 483 914 435 882 q 592 946 531 946 q 664 924 638 946 q 690 872 690 901 q 681 830 690 846 q 661 814 672 814 z "},"S":{"ha":538,"x_min":18,"x_max":625,"o":"m 300 -21 q 190 2 238 -21 q 110 56 143 25 q 53 112 76 88 q 18 138 31 136 q 34 165 24 156 q 65 175 44 175 q 110 157 92 175 q 157 107 129 139 q 234 41 196 65 q 324 17 272 17 q 385 35 356 17 q 415 89 415 54 q 390 147 415 122 q 326 196 364 172 q 249 247 288 219 q 185 311 211 274 q 160 403 160 349 q 192 534 160 472 q 278 643 225 596 q 393 717 331 690 q 515 743 456 743 q 597 704 568 743 q 625 607 625 665 q 610 554 625 582 q 576 497 596 526 q 541 438 556 468 q 526 379 526 408 q 492 398 506 379 q 479 439 479 417 q 494 498 479 471 q 528 550 508 525 q 562 600 547 575 q 576 654 576 625 q 569 678 576 660 q 531 696 561 696 q 439 668 489 696 q 343 597 389 640 q 268 503 297 553 q 239 413 239 454 q 264 342 239 372 q 326 287 289 311 q 399 239 363 263 q 460 188 435 215 q 485 122 485 160 q 458 42 485 74 q 390 -6 432 10 q 300 -21 349 -21 z "},"Ś":{"ha":538,"x_min":18,"x_max":661,"o":"m 300 -21 q 190 2 238 -21 q 110 56 143 25 q 53 112 76 88 q 18 138 31 136 q 34 165 24 156 q 65 175 44 175 q 110 157 92 175 q 157 107 129 139 q 234 41 196 65 q 324 17 272 17 q 385 35 356 17 q 415 89 415 54 q 390 147 415 122 q 326 196 364 172 q 249 247 288 219 q 185 311 211 274 q 160 403 160 349 q 192 534 160 472 q 278 643 225 596 q 393 717 331 690 q 515 743 456 743 q 597 704 568 743 q 625 607 625 665 q 610 554 625 582 q 576 497 596 526 q 541 438 556 468 q 526 379 526 408 q 492 398 506 379 q 479 439 479 417 q 494 498 479 471 q 528 550 508 525 q 562 600 547 575 q 576 654 576 625 q 569 678 576 660 q 531 696 561 696 q 439 668 489 696 q 343 597 389 640 q 268 503 297 553 q 239 413 239 454 q 264 342 239 372 q 326 287 289 311 q 399 239 363 263 q 460 188 435 215 q 485 122 485 160 q 458 42 485 74 q 390 -6 432 10 q 300 -21 349 -21 m 489 800 q 481 806 485 799 q 485 819 476 813 q 544 876 511 843 q 590 922 576 908 q 605 935 596 929 q 622 942 614 942 q 652 933 643 942 q 661 919 661 925 q 642 901 661 917 q 601 870 624 886 q 565 846 578 854 q 540 829 557 840 q 508 810 524 818 q 489 800 493 801 z "},"Š":{"ha":538,"x_min":18,"x_max":704,"o":"m 697 929 q 704 922 704 929 q 697 910 704 915 q 637 867 667 886 q 579 831 607 847 q 547 811 564 821 q 519 801 529 801 q 497 810 511 801 q 476 825 483 819 q 434 863 461 839 q 385 910 407 886 q 382 918 382 913 q 386 927 382 924 q 393 929 390 931 q 419 919 399 928 q 461 897 439 910 q 493 878 478 888 q 529 854 508 868 q 569 875 547 865 q 608 893 592 885 q 638 907 618 899 q 675 922 657 915 q 696 929 693 929 l 697 929 m 300 -21 q 190 2 238 -21 q 110 56 143 25 q 53 112 76 88 q 18 138 31 136 q 34 165 24 156 q 65 175 44 175 q 110 157 92 175 q 157 107 129 139 q 234 41 196 65 q 324 17 272 17 q 385 35 356 17 q 415 89 415 54 q 390 147 415 122 q 326 196 364 172 q 249 247 288 219 q 185 311 211 274 q 160 403 160 349 q 192 534 160 472 q 278 643 225 596 q 393 717 331 690 q 515 743 456 743 q 597 704 568 743 q 625 607 625 665 q 610 554 625 582 q 576 497 596 526 q 541 438 556 468 q 526 379 526 408 q 492 398 506 379 q 479 439 479 417 q 494 498 479 471 q 528 550 508 525 q 562 600 547 575 q 576 654 576 625 q 569 678 576 660 q 531 696 561 696 q 439 668 489 696 q 343 597 389 640 q 268 503 297 553 q 239 413 239 454 q 264 342 239 372 q 326 287 289 311 q 399 239 363 263 q 460 188 435 215 q 485 122 485 160 q 458 42 485 74 q 390 -6 432 10 q 300 -21 349 -21 z "},"Ş":{"ha":538,"x_min":18,"x_max":625,"o":"m 300 -21 q 190 2 238 -21 q 110 56 143 25 q 53 112 76 88 q 18 138 31 136 q 34 165 24 156 q 65 175 44 175 q 110 157 92 175 q 157 107 129 139 q 234 41 196 65 q 324 17 272 17 q 385 35 356 17 q 415 89 415 54 q 390 147 415 122 q 326 196 364 172 q 249 247 288 219 q 185 311 211 274 q 160 403 160 349 q 192 534 160 472 q 278 643 225 596 q 393 717 331 690 q 515 743 456 743 q 597 704 568 743 q 625 607 625 665 q 610 554 625 582 q 576 497 596 526 q 541 438 556 468 q 526 379 526 408 q 492 398 506 379 q 479 439 479 417 q 494 498 479 471 q 528 550 508 525 q 562 600 547 575 q 576 654 576 625 q 569 678 576 660 q 531 696 561 696 q 439 668 489 696 q 343 597 389 640 q 268 503 297 553 q 239 413 239 454 q 264 342 239 372 q 326 287 289 311 q 399 239 363 263 q 460 188 435 215 q 485 122 485 160 q 458 42 485 74 q 390 -6 432 10 q 300 -21 349 -21 m 94 -268 q 58 -260 74 -268 q 40 -235 43 -253 q 61 -237 49 -236 q 88 -239 74 -239 q 143 -226 115 -239 q 179 -174 171 -214 q 174 -139 183 -153 q 155 -110 165 -125 q 144 -69 144 -94 q 178 -6 144 -25 q 256 14 213 14 q 268 6 268 14 q 219 -10 238 0 q 201 -50 201 -21 q 210 -83 201 -69 q 226 -111 218 -97 q 233 -147 233 -125 q 210 -212 233 -185 q 156 -253 188 -239 q 94 -268 124 -268 z "},"Ə":{"ha":728,"x_min":31,"x_max":700,"o":"m 200 -12 q 75 24 119 -12 q 31 110 31 61 q 76 229 31 178 q 199 317 122 281 q 367 374 275 353 q 550 403 458 396 q 576 406 565 404 q 613 583 613 504 q 585 692 613 650 q 479 735 557 735 q 308 663 388 735 q 185 475 229 590 q 168 517 168 486 q 200 617 168 571 q 283 696 232 663 q 388 748 333 729 q 489 767 443 767 q 613 739 567 767 q 679 663 658 711 q 700 556 700 615 q 672 402 700 482 q 596 249 644 322 q 484 116 547 175 q 348 22 421 57 q 200 -12 275 -12 m 104 99 q 123 44 104 67 q 181 22 142 22 q 338 72 265 22 q 469 201 411 122 q 561 365 526 279 q 542 367 553 367 q 522 367 532 368 q 367 333 442 354 q 233 278 292 311 q 139 200 174 244 q 104 99 104 156 z "},"Ŝ":{"ha":538,"x_min":18,"x_max":686,"o":"m 300 -21 q 190 2 238 -21 q 110 56 143 25 q 53 112 76 88 q 18 138 31 136 q 34 165 24 156 q 65 175 44 175 q 110 157 92 175 q 157 107 129 139 q 234 41 196 65 q 324 17 272 17 q 385 35 356 17 q 415 89 415 54 q 390 147 415 122 q 326 196 364 172 q 249 247 288 219 q 185 311 211 274 q 160 403 160 349 q 192 534 160 472 q 278 643 225 596 q 393 717 331 690 q 515 743 456 743 q 597 704 568 743 q 625 607 625 665 q 610 554 625 582 q 576 497 596 526 q 541 438 556 468 q 526 379 526 408 q 492 398 506 379 q 479 439 479 417 q 494 498 479 471 q 528 550 508 525 q 562 600 547 575 q 576 654 576 625 q 569 678 576 660 q 531 696 561 696 q 439 668 489 696 q 343 597 389 640 q 268 503 297 553 q 239 413 239 454 q 264 342 239 372 q 326 287 289 311 q 399 239 363 263 q 460 188 435 215 q 485 122 485 160 q 458 42 485 74 q 390 -6 432 10 q 300 -21 349 -21 m 371 794 q 364 801 364 794 q 371 814 364 808 q 431 857 401 838 q 489 893 461 876 q 522 913 504 903 q 549 922 539 922 q 572 914 557 922 q 592 899 586 906 q 634 861 607 885 q 683 814 661 838 q 686 806 686 811 q 682 797 686 800 q 675 794 678 793 q 649 805 669 796 q 607 826 629 814 q 575 846 590 836 q 539 869 560 856 q 499 849 521 860 q 460 831 476 839 q 431 818 450 826 q 394 803 411 810 q 372 794 376 796 l 371 794 z "},"Ș":{"ha":538,"x_min":18,"x_max":625,"o":"m 300 -21 q 190 2 238 -21 q 110 56 143 25 q 53 112 76 88 q 18 138 31 136 q 34 165 24 156 q 65 175 44 175 q 110 157 92 175 q 157 107 129 139 q 234 41 196 65 q 324 17 272 17 q 385 35 356 17 q 415 89 415 54 q 390 147 415 122 q 326 196 364 172 q 249 247 288 219 q 185 311 211 274 q 160 403 160 349 q 192 534 160 472 q 278 643 225 596 q 393 717 331 690 q 515 743 456 743 q 597 704 568 743 q 625 607 625 665 q 610 554 625 582 q 576 497 596 526 q 541 438 556 468 q 526 379 526 408 q 492 398 506 379 q 479 439 479 417 q 494 498 479 471 q 528 550 508 525 q 562 600 547 575 q 576 654 576 625 q 569 678 576 660 q 531 696 561 696 q 439 668 489 696 q 343 597 389 640 q 268 503 297 553 q 239 413 239 454 q 264 342 239 372 q 326 287 289 311 q 399 239 363 263 q 460 188 435 215 q 485 122 485 160 q 458 42 485 74 q 390 -6 432 10 q 300 -21 349 -21 m 60 -301 q 56 -294 49 -301 l 99 -244 q 144 -188 122 -217 q 178 -129 165 -160 q 180 -117 179 -124 q 181 -106 181 -111 q 178 -92 181 -94 q 175 -85 175 -87 q 179 -82 175 -82 q 203 -92 190 -82 q 226 -139 226 -107 q 203 -200 226 -174 q 147 -245 179 -226 q 83 -281 114 -264 q 77 -286 79 -282 q 72 -293 75 -290 q 60 -301 67 -301 z "},"T":{"ha":425,"x_min":111,"x_max":731,"o":"m 154 -17 q 122 14 133 -6 q 111 74 111 33 q 127 135 111 103 q 165 199 143 168 q 201 256 186 231 q 333 471 267 363 q 436 672 400 579 q 351 662 399 667 q 256 657 304 657 q 183 678 199 657 q 167 725 167 700 q 201 719 179 721 q 253 718 222 718 q 326 719 285 718 q 414 724 367 721 q 431 724 421 724 q 453 726 442 725 q 457 743 457 733 q 475 739 468 743 q 488 728 482 735 q 584 738 535 733 q 660 742 633 742 q 709 729 694 742 q 727 699 724 717 q 731 663 731 681 q 685 676 722 669 q 576 683 647 683 q 539 683 558 683 q 497 681 519 682 l 497 660 q 478 594 497 638 q 430 498 458 550 q 374 399 401 446 q 329 326 346 353 q 274 237 303 288 q 221 138 246 186 q 176 45 194 88 q 154 -17 157 3 z "},"Ŧ":{"ha":425,"x_min":111,"x_max":731,"o":"m 154 -17 q 122 14 133 -6 q 111 74 111 33 q 127 135 111 103 q 165 199 143 168 q 201 256 186 231 q 333 471 267 363 q 436 672 400 579 q 351 662 399 667 q 256 657 304 657 q 183 678 199 657 q 167 725 167 700 q 201 719 179 721 q 253 718 222 718 q 326 719 285 718 q 414 724 367 721 q 431 724 421 724 q 453 726 442 725 q 457 743 457 733 q 475 739 468 743 q 488 728 482 735 q 584 738 535 733 q 660 742 633 742 q 709 729 694 742 q 727 699 724 717 q 731 663 731 681 q 685 676 722 669 q 576 683 647 683 q 539 683 558 683 q 497 681 519 682 l 497 660 q 478 594 497 638 q 430 498 458 550 q 374 399 401 446 q 329 326 346 353 q 274 237 303 288 q 221 138 246 186 q 176 45 194 88 q 154 -17 157 3 m 389 404 q 362 410 381 408 q 319 411 343 411 q 227 408 276 411 q 154 406 178 406 q 125 425 126 406 q 124 461 124 444 q 153 457 135 458 q 192 456 171 456 q 282 458 235 456 q 360 461 329 461 q 386 442 383 461 q 389 404 389 422 z "},"Ť":{"ha":425,"x_min":111,"x_max":731,"o":"m 693 940 q 700 933 700 940 q 693 921 700 926 q 633 878 663 897 q 575 842 603 858 q 542 822 560 832 q 515 813 525 813 q 493 822 507 813 q 472 836 479 831 q 430 874 457 850 q 381 921 403 897 q 378 929 378 924 q 382 938 378 935 q 389 940 386 942 q 415 930 394 939 q 457 908 435 921 q 489 889 474 899 q 525 865 504 879 q 565 886 543 876 q 604 904 588 896 q 633 918 614 910 q 671 933 653 926 q 692 940 689 940 l 693 940 m 154 -17 q 122 14 133 -6 q 111 74 111 33 q 127 135 111 103 q 165 199 143 168 q 201 256 186 231 q 333 471 267 363 q 436 672 400 579 q 351 662 399 667 q 256 657 304 657 q 183 678 199 657 q 167 725 167 700 q 201 719 179 721 q 253 718 222 718 q 326 719 285 718 q 414 724 367 721 q 431 724 421 724 q 453 726 442 725 q 457 743 457 733 q 475 739 468 743 q 488 728 482 735 q 584 738 535 733 q 660 742 633 742 q 709 729 694 742 q 727 699 724 717 q 731 663 731 681 q 685 676 722 669 q 576 683 647 683 q 539 683 558 683 q 497 681 519 682 l 497 660 q 478 594 497 638 q 430 498 458 550 q 374 399 401 446 q 329 326 346 353 q 274 237 303 288 q 221 138 246 186 q 176 45 194 88 q 154 -17 157 3 z "},"Ţ":{"ha":425,"x_min":-68,"x_max":731,"o":"m 154 -17 q 122 14 133 -6 q 111 74 111 33 q 127 135 111 103 q 165 199 143 168 q 201 256 186 231 q 333 471 267 363 q 436 672 400 579 q 351 662 399 667 q 256 657 304 657 q 183 678 199 657 q 167 725 167 700 q 201 719 179 721 q 253 718 222 718 q 326 719 285 718 q 414 724 367 721 q 431 724 421 724 q 453 726 442 725 q 457 743 457 733 q 475 739 468 743 q 488 728 482 735 q 584 738 535 733 q 660 742 633 742 q 709 729 694 742 q 727 699 724 717 q 731 663 731 681 q 685 676 722 669 q 576 683 647 683 q 539 683 558 683 q 497 681 519 682 l 497 660 q 478 594 497 638 q 430 498 458 550 q 374 399 401 446 q 329 326 346 353 q 274 237 303 288 q 221 138 246 186 q 176 45 194 88 q 154 -17 157 3 m -14 -268 q -50 -260 -35 -268 q -68 -235 -65 -253 q -47 -237 -60 -236 q -21 -239 -35 -239 q 35 -226 7 -239 q 71 -174 63 -214 q 66 -139 75 -153 q 47 -110 57 -125 q 36 -69 36 -94 q 70 -6 36 -25 q 147 14 104 14 q 160 6 160 14 q 111 -10 129 0 q 93 -50 93 -21 q 101 -83 93 -69 q 117 -111 110 -97 q 125 -147 125 -125 q 102 -212 125 -185 q 47 -253 79 -239 q -14 -268 15 -268 z "},"Ț":{"ha":425,"x_min":-60,"x_max":731,"o":"m 154 -17 q 122 14 133 -6 q 111 74 111 33 q 127 135 111 103 q 165 199 143 168 q 201 256 186 231 q 333 471 267 363 q 436 672 400 579 q 351 662 399 667 q 256 657 304 657 q 183 678 199 657 q 167 725 167 700 q 201 719 179 721 q 253 718 222 718 q 326 719 285 718 q 414 724 367 721 q 431 724 421 724 q 453 726 442 725 q 457 743 457 733 q 475 739 468 743 q 488 728 482 735 q 584 738 535 733 q 660 742 633 742 q 709 729 694 742 q 727 699 724 717 q 731 663 731 681 q 685 676 722 669 q 576 683 647 683 q 539 683 558 683 q 497 681 519 682 l 497 660 q 478 594 497 638 q 430 498 458 550 q 374 399 401 446 q 329 326 346 353 q 274 237 303 288 q 221 138 246 186 q 176 45 194 88 q 154 -17 157 3 m -49 -301 q -53 -294 -60 -301 l -10 -244 q 35 -188 14 -217 q 69 -129 57 -160 q 72 -117 71 -124 q 72 -106 72 -111 q 69 -92 72 -94 q 67 -85 67 -87 q 71 -82 67 -82 q 94 -92 82 -82 q 118 -139 118 -107 q 94 -200 118 -174 q 38 -245 71 -226 q -25 -281 6 -264 q -31 -286 -29 -282 q -36 -293 -33 -290 q -49 -301 -42 -301 z "},"Þ":{"ha":572,"x_min":100,"x_max":715,"o":"m 117 -46 q 103 -28 100 -46 q 136 102 108 8 q 211 327 164 196 q 319 607 258 458 q 305 605 313 606 q 292 604 297 604 q 280 603 286 603 q 268 603 274 603 q 226 613 239 603 q 214 636 214 622 q 216 647 214 642 q 219 657 218 651 q 285 666 251 660 q 351 681 318 672 q 399 788 375 733 q 450 897 424 843 q 454 901 450 900 q 469 893 458 903 q 492 869 481 883 q 504 843 503 856 q 501 835 504 838 q 478 782 493 817 q 443 703 463 747 q 519 717 488 713 q 576 722 550 722 q 683 682 651 722 q 715 585 715 642 q 693 494 715 543 q 631 397 671 446 q 541 309 592 349 q 433 245 490 269 q 319 221 376 221 q 247 233 283 221 q 183 74 211 144 q 146 -21 156 4 q 133 -40 142 -33 q 117 -46 124 -46 m 264 276 q 367 299 311 279 q 478 352 422 319 q 578 426 533 385 q 651 512 624 467 q 679 601 679 557 q 582 656 679 656 q 500 647 547 656 q 413 629 453 639 q 339 456 378 549 q 264 276 300 363 z "},"U":{"ha":610,"x_min":56,"x_max":751,"o":"m 240 -7 q 98 42 140 -7 q 56 156 56 92 q 63 210 56 183 q 81 264 69 238 q 149 401 108 328 q 230 544 190 475 q 296 666 269 614 q 322 739 322 718 q 331 742 326 742 q 338 742 335 742 q 367 723 357 742 q 376 693 376 704 q 360 619 376 658 q 318 535 343 579 q 260 444 293 493 q 197 340 228 394 q 145 231 165 286 q 125 124 125 176 q 145 53 125 81 q 219 25 165 25 q 322 65 271 25 q 419 170 372 106 q 508 310 467 235 q 584 456 550 385 q 642 578 618 526 q 688 694 679 660 q 697 743 697 729 q 705 745 701 744 q 711 746 708 746 q 742 723 732 746 q 751 681 751 700 q 748 642 751 665 q 728 574 744 618 q 676 453 713 531 q 610 327 647 392 q 535 206 572 263 q 465 114 497 150 q 366 28 422 64 q 240 -7 310 -7 z "},"Ú":{"ha":610,"x_min":56,"x_max":751,"o":"m 240 -7 q 98 42 140 -7 q 56 156 56 92 q 63 210 56 183 q 81 264 69 238 q 149 401 108 328 q 230 544 190 475 q 296 666 269 614 q 322 739 322 718 q 331 742 326 742 q 338 742 335 742 q 367 723 357 742 q 376 693 376 704 q 360 619 376 658 q 318 535 343 579 q 260 444 293 493 q 197 340 228 394 q 145 231 165 286 q 125 124 125 176 q 145 53 125 81 q 219 25 165 25 q 322 65 271 25 q 419 170 372 106 q 508 310 467 235 q 584 456 550 385 q 642 578 618 526 q 688 694 679 660 q 697 743 697 729 q 705 745 701 744 q 711 746 708 746 q 742 723 732 746 q 751 681 751 700 q 748 642 751 665 q 728 574 744 618 q 676 453 713 531 q 610 327 647 392 q 535 206 572 263 q 465 114 497 150 q 366 28 422 64 q 240 -7 310 -7 m 517 815 q 508 821 513 814 q 513 835 504 828 q 572 891 539 858 q 618 938 604 924 q 633 951 624 944 q 650 957 642 957 q 680 949 671 957 q 689 935 689 940 q 670 917 689 932 q 628 885 651 901 q 593 861 606 869 q 568 844 585 856 q 536 825 551 833 q 517 815 521 817 z "},"Ŭ":{"ha":610,"x_min":56,"x_max":751,"o":"m 240 -7 q 98 42 140 -7 q 56 156 56 92 q 63 210 56 183 q 81 264 69 238 q 149 401 108 328 q 230 544 190 475 q 296 666 269 614 q 322 739 322 718 q 331 742 326 742 q 338 742 335 742 q 367 723 357 742 q 376 693 376 704 q 360 619 376 658 q 318 535 343 579 q 260 444 293 493 q 197 340 228 394 q 145 231 165 286 q 125 124 125 176 q 145 53 125 81 q 219 25 165 25 q 322 65 271 25 q 419 170 372 106 q 508 310 467 235 q 584 456 550 385 q 642 578 618 526 q 688 694 679 660 q 697 743 697 729 q 705 745 701 744 q 711 746 708 746 q 742 723 732 746 q 751 681 751 700 q 748 642 751 665 q 728 574 744 618 q 676 453 713 531 q 610 327 647 392 q 535 206 572 263 q 465 114 497 150 q 366 28 422 64 q 240 -7 310 -7 m 546 817 q 472 841 499 817 q 444 896 444 865 q 468 947 444 947 q 478 935 478 947 q 499 887 478 904 q 554 869 521 869 q 605 873 576 869 q 660 890 633 876 q 703 932 688 903 q 713 947 710 943 q 722 950 717 950 q 731 939 735 950 q 659 844 708 872 q 546 817 610 817 z "},"Ǔ":{"ha":610,"x_min":56,"x_max":751,"o":"m 725 944 q 732 938 732 944 q 725 925 732 931 q 665 882 694 901 q 607 846 635 863 q 574 826 592 836 q 547 817 557 817 q 525 826 539 817 q 504 840 511 835 q 462 878 489 854 q 413 925 435 901 q 410 933 410 928 q 414 942 410 939 q 421 944 418 946 q 447 934 426 943 q 489 913 467 925 q 521 893 506 903 q 557 869 536 883 q 597 890 575 881 q 636 908 619 900 q 665 922 646 914 q 703 938 685 931 q 724 944 721 944 l 725 944 m 240 -7 q 98 42 140 -7 q 56 156 56 92 q 63 210 56 183 q 81 264 69 238 q 149 401 108 328 q 230 544 190 475 q 296 666 269 614 q 322 739 322 718 q 331 742 326 742 q 338 742 335 742 q 367 723 357 742 q 376 693 376 704 q 360 619 376 658 q 318 535 343 579 q 260 444 293 493 q 197 340 228 394 q 145 231 165 286 q 125 124 125 176 q 145 53 125 81 q 219 25 165 25 q 322 65 271 25 q 419 170 372 106 q 508 310 467 235 q 584 456 550 385 q 642 578 618 526 q 688 694 679 660 q 697 743 697 729 q 705 745 701 744 q 711 746 708 746 q 742 723 732 746 q 751 681 751 700 q 748 642 751 665 q 728 574 744 618 q 676 453 713 531 q 610 327 647 392 q 535 206 572 263 q 465 114 497 150 q 366 28 422 64 q 240 -7 310 -7 z "},"Û":{"ha":610,"x_min":56,"x_max":751,"o":"m 240 -7 q 98 42 140 -7 q 56 156 56 92 q 63 210 56 183 q 81 264 69 238 q 149 401 108 328 q 230 544 190 475 q 296 666 269 614 q 322 739 322 718 q 331 742 326 742 q 338 742 335 742 q 367 723 357 742 q 376 693 376 704 q 360 619 376 658 q 318 535 343 579 q 260 444 293 493 q 197 340 228 394 q 145 231 165 286 q 125 124 125 176 q 145 53 125 81 q 219 25 165 25 q 322 65 271 25 q 419 170 372 106 q 508 310 467 235 q 584 456 550 385 q 642 578 618 526 q 688 694 679 660 q 697 743 697 729 q 705 745 701 744 q 711 746 708 746 q 742 723 732 746 q 751 681 751 700 q 748 642 751 665 q 728 574 744 618 q 676 453 713 531 q 610 327 647 392 q 535 206 572 263 q 465 114 497 150 q 366 28 422 64 q 240 -7 310 -7 m 399 810 q 392 817 392 810 q 399 829 392 824 q 459 872 429 853 q 517 908 489 892 q 549 928 532 918 q 576 938 567 938 q 599 929 585 938 q 619 914 614 921 q 662 876 635 900 q 711 829 689 853 q 714 821 714 826 q 710 812 714 815 q 703 810 706 808 q 677 820 697 811 q 635 842 657 829 q 603 861 618 851 q 567 885 588 871 q 526 865 549 875 q 488 846 504 854 q 458 833 478 842 q 422 818 439 825 q 400 810 404 811 l 399 810 z "}}}
